<svg xmlns="http://www.w3.org/2000/svg" xmlns:xlink="http://www.w3.org/1999/xlink" width="48" height="80" style="padding: 0px"><path d="M0.96 64L0.96 39.64C1.60 40.20 2.48 40.52 3.48 40.52C6.68 40.52 10.64 37.52 10.64 34.48C10.64 32.68 9.20 31.48 7.12 31.48C3.16 31.48 0 34.40 0 37.52L0 64ZM16 20.52L16 19.48L0 19.48L0 20.52ZM16 28.52L16 27.48L0 27.48L0 28.52ZM0 51.48L0 52.52L16 52.52L16 51.48ZM16 36.52L16 35.48L0 35.48L0 36.52ZM0 43.48L0 44.52L16 44.52L16 43.48ZM32 20.52L32 19.48L16 19.48L16 20.52ZM32 28.52L32 27.48L16 27.48L16 28.52ZM16 51.48L16 52.52L32 52.52L32 51.48ZM32 36.52L32 35.48L16 35.48L16 36.52ZM16 43.48L16 44.52L32 44.52L32 43.48ZM21.96 64L21.96 39.64C22.60 40.20 23.48 40.52 24.48 40.52C27.68 40.52 31.64 37.52 31.64 34.48C31.64 32.68 30.20 31.48 28.12 31.48C24.16 31.48 21 34.40 21 37.52L21 64ZM40 20.52L40 19.48L32 19.48L32 20.52ZM40 28.52L40 27.48L32 27.48L32 28.52ZM32 51.48L32 52.52L40 52.52L40 51.48ZM40 36.52L40 35.48L32 35.48L32 36.52ZM32 43.48L32 44.52L40 44.52L40 43.48ZM34.96 64L34.96 39.64C35.60 40.20 36.48 40.52 37.48 40.52C40.68 40.52 44.64 37.52 44.64 34.48C44.64 32.68 43.20 31.48 41.12 31.48C37.16 31.48 34 34.40 34 37.52L34 64ZM48 20.52L48 19.48L40 19.48L40 20.52ZM48 28.52L48 27.48L40 27.48L40 28.52ZM40 51.48L40 52.52L48 52.52L48 51.48ZM48 36.52L48 35.48L40 35.48L40 36.52ZM40 43.48L40 44.52L48 44.52L48 43.48Z"/></svg>