<svg xmlns="http://www.w3.org/2000/svg" xmlns:xlink="http://www.w3.org/1999/xlink" height="80" width="18" style="padding: 0px">
	<g transform="translate(0 0)">
		<path d="M3.48 40.40C6.68 40.40 10.64 37.44 10.64 34.40L10.64 16.44C12.60 17.68 14.96 21.20 15.96 23.52C16.44 24.60 16.72 26.44 16.72 28.32C16.72 29.76 16.52 31.28 15.96 32.72C15.92 32.88 15.88 33.04 15.88 33.20C15.88 33.68 16.20 34 16.40 34.12L16.44 34.16C16.72 34.16 17.12 34.04 17.28 33.52C17.28 33.52 18.12 30.48 18.12 27.96C18.12 23.96 16.44 20.20 14.44 17C12.80 14.48 11.44 11.84 10.96 8.76C10.84 8.24 10.60 8.08 10 8.08C9.84 8.08 9.68 8.12 9.68 8.36L9.68 32.24C9.04 31.68 8.16 31.40 7.12 31.40C3.16 31.40 0 34.32 0 37.40C0 39.28 1.52 40.40 3.48 40.40Z"/>
	</g>
</svg>