<svg xmlns="http://www.w3.org/2000/svg" xmlns:xlink="http://www.w3.org/1999/xlink" height="80" width="21" style="padding: 0px">
	<g transform="translate(0 0)">
		<path d="M3.12 35.96C3.12 38.24 5.12 40.36 10.28 40.36C15.96 40.36 17.80 38.36 17.80 35.96C17.80 33.48 13.88 31.60 10.64 31.60C6 31.60 3.12 33.56 3.12 35.96ZM6.96 33.80C7.36 32.60 8.64 32.44 9.72 32.44C12.08 32.44 14 34.96 14 37.08C14 38.80 13 39.56 11.40 39.56C11.08 39.56 10.80 39.52 10.48 39.44C8.56 38.84 6.88 36.64 6.88 34.60C6.88 34.32 6.92 34.04 6.96 33.80ZM19.80 41.16C19.80 41.28 20 41.36 20.16 41.36L20.60 41.36C20.80 41.36 20.96 41.28 20.96 41.16L20.96 30.80C20.96 30.68 20.80 30.56 20.60 30.56L20.16 30.56C20 30.56 19.80 30.68 19.80 30.80ZM17.84 41.16C17.84 41.28 18 41.36 18.16 41.36L18.64 41.36C18.80 41.36 18.96 41.28 18.96 41.16L18.96 30.80C18.96 30.68 18.80 30.56 18.64 30.56L18.16 30.56C18 30.56 17.84 30.68 17.84 30.80ZM0.32 41.36L0.76 41.36C0.96 41.36 1.08 41.28 1.08 41.16L1.08 30.80C1.08 30.68 0.96 30.56 0.76 30.56L0.32 30.56C0.12 30.56 0 30.68 0 30.80L0 41.16C0 41.28 0.12 41.36 0.32 41.36ZM2 30.80L2 41.16C2 41.28 2.16 41.36 2.32 41.36L2.80 41.36C2.96 41.36 3.12 41.28 3.12 41.16L3.12 30.80C3.12 30.68 2.96 30.56 2.80 30.56L2.32 30.56C2.16 30.56 2 30.68 2 30.80Z"/>
	</g>
</svg>