<svg xmlns="http://www.w3.org/2000/svg" xmlns:xlink="http://www.w3.org/1999/xlink" width="19" height="80" style="padding: 0px"><path d="M0 37.40C0 39.28 1.52 40.40 3.48 40.40C6.68 40.40 10.64 37.44 10.64 34.40L10.64 20.84C12.40 20.96 14.36 21.52 16.28 25.40C17.04 26.96 17.32 28.52 17.32 30.16C17.32 31.12 17.20 32.08 17.04 33.04L17.04 33.32C17.04 33.76 17.24 34 17.48 34.08C17.56 34.12 17.64 34.16 17.72 34.16C17.96 34.16 18.16 34 18.36 33.60C18.48 33.44 18.60 31.60 18.60 30.08L18.60 29.36C18.60 28.04 18.24 26.72 17.68 25.52C17.68 25.44 17.64 25.36 17.64 25.24C17.64 25.20 17.64 25.12 17.68 25.04C17.76 24.84 18.48 22.92 18.48 20.96C18.48 20.56 18.44 20.20 18.36 19.80C18.04 17.64 17.20 16.72 14.92 14.24C13.20 12.40 11.40 11.88 10.84 8.48C10.80 8.12 10.40 8.08 10.20 8.08L9.68 8.08L9.68 32.24C9.04 31.68 8.16 31.40 7.12 31.40C3.16 31.40 0 34.32 0 37.40ZM11.40 15.08L11.64 15.08C13.60 15.08 15.32 16.88 16.40 18.44C16.96 19.28 17.24 20.24 17.24 21.28C17.24 21.68 17.20 22.44 17 22.76C16.96 22.84 16.72 22.96 16.56 22.96C16.48 22.96 16.40 22.92 16.36 22.80C15.84 22 15.28 21.36 14.64 20.60C13.12 18.88 11.64 18.12 10.96 15.48C10.96 15.24 11.16 15.08 11.40 15.08Z"/></svg>