<svg xmlns="http://www.w3.org/2000/svg" xmlns:xlink="http://www.w3.org/1999/xlink" height="80" width="11" style="padding: 0px">
	<g transform="translate(0 0)">
		<path d="M0 37.52L0 64L0.96 64L0.96 39.76C1.60 40.32 2.52 40.64 3.60 40.64C9.68 40.64 10.92 35.68 10.92 34.48C10.92 32.56 9.40 31.36 7.28 31.36C1.72 31.36 0 35.60 0 37.52ZM1.08 37.64C1.08 35.80 6.44 32.88 8.20 32.88C8.88 32.88 9.28 33.20 9.52 33.68C9.68 33.88 9.76 34.12 9.76 34.36C9.76 36 4.52 39.20 2.80 39.20C1.96 39.20 1.08 38.52 1.08 37.64Z"/>
	</g>
</svg>