<svg xmlns="http://www.w3.org/2000/svg" xmlns:xlink="http://www.w3.org/1999/xlink" height="80" width="11" style="padding: 0px">
	<g transform="translate(0 0)">
		<path d="M0 37.52L0 64.12L0.04 64.12L0.04 64.24L0.56 64.24C0.76 64.24 1.16 64.20 1.20 63.84C2 58.92 8.28 57.52 9.04 52.52C9.12 52.16 9.16 51.76 9.16 51.36C9.16 49.40 8.44 47.48 8.36 47.28C8.32 47.24 8.32 47.16 8.32 47.08C8.32 46.96 8.36 46.88 8.36 46.80C9.52 44.40 9.52 41.24 9.04 38.68C8.96 38.44 8.88 38.28 8.84 38.16C9.92 37.12 10.64 35.80 10.64 34.48C10.64 32.68 9.20 31.48 7.12 31.48C3.16 31.48 0 34.40 0 37.52ZM0.96 39.64C1.60 40.20 2.48 40.52 3.48 40.52C4.88 40.52 6.48 39.92 7.76 39.04C8.20 41.68 8.16 44.48 6.96 46.92C5.04 50.84 2.80 51.40 0.96 51.52ZM1.36 56.84C2 54.20 3.80 53.48 5.32 51.72C6 50.96 6.52 50.32 7.04 49.52C7.12 49.40 7.16 49.36 7.28 49.36C7.44 49.36 7.64 49.48 7.68 49.60C7.84 49.84 7.84 50.16 7.92 50.40C7.92 51.76 7.84 52.72 7.08 53.88C6 55.44 3.96 57.24 2 57.24L1.76 57.24C1.52 57.24 1.32 57.08 1.32 56.92C1.32 56.88 1.32 56.88 1.36 56.84Z"/>
	</g>
</svg>