<svg xmlns="http://www.w3.org/2000/svg" xmlns:xlink="http://www.w3.org/1999/xlink" height="80" width="11" style="padding: 0px">
	<g transform="translate(0 0)">
		<path d="M0 37.52L0 64.12L0.08 64.12C0.16 64.20 0.24 64.24 0.36 64.24C0.60 64.24 0.76 64.20 0.92 64.12L0.96 64.12L0.96 64.08C1.16 64 1.24 63.80 1.28 63.52C1.84 60.48 4.20 57.68 5.84 55.16C7.84 52 9.80 48.20 9.80 44.20C9.80 41.68 9.16 39.44 8.88 38.40C8.88 38.32 8.84 38.24 8.80 38.16C9.88 37.12 10.64 35.80 10.64 34.48C10.64 32.68 9.20 31.48 7.12 31.48C3.16 31.48 0 34.40 0 37.52ZM0.96 55.88L0.96 39.64C1.60 40.20 2.48 40.52 3.48 40.52C4.88 40.52 6.32 39.96 7.60 39.12C7.60 39.24 7.64 39.32 7.68 39.44C8.12 40.80 8.36 42.40 8.36 43.84C8.36 45.72 7.56 48.40 7.08 49.52C6 52 4.56 54.36 0.96 55.88Z"/>
	</g>
</svg>