<svg xmlns="http://www.w3.org/2000/svg" xmlns:xlink="http://www.w3.org/1999/xlink" height="80" width="11" style="padding: 0px">
	<g transform="translate(0 0)">
		<path d="M3.60 40.64C9.68 40.64 10.92 35.72 10.92 34.48L10.92 8L9.96 8L9.96 32.24C9.32 31.68 8.40 31.36 7.28 31.36C1.72 31.36 0 35.64 0 37.56C0 39.52 1.56 40.64 3.60 40.64ZM1.08 37.64C1.08 35.80 6.44 32.88 8.20 32.88C8.88 32.88 9.28 33.20 9.52 33.68C9.68 33.88 9.76 34.12 9.76 34.36C9.76 36 4.52 39.20 2.80 39.20C1.96 39.20 1.08 38.52 1.08 37.64Z"/>
	</g>
</svg>