<svg xmlns="http://www.w3.org/2000/svg" xmlns:xlink="http://www.w3.org/1999/xlink" height="80" width="15" style="padding: 0px">
	<g transform="translate(0 0)">
		<path d="M0 35.96C0 38.32 2 40.40 7.16 40.40C12.88 40.40 14.68 38.40 14.68 35.96C14.68 33.52 10.76 31.64 7.52 31.64C2.88 31.64 0 33.60 0 35.96ZM3.76 34.68C3.76 34.40 3.76 34.12 3.88 33.84C4.24 32.64 5.52 32.44 6.64 32.44C9 32.44 10.92 35 10.92 37.12C10.92 38.16 10.40 39.16 9.32 39.44C8.96 39.56 8.60 39.60 8.24 39.60C7.92 39.60 7.64 39.56 7.32 39.44C5.40 38.88 3.76 36.64 3.76 34.68Z"/>
	</g>
</svg>