<svg xmlns="http://www.w3.org/2000/svg" xmlns:xlink="http://www.w3.org/1999/xlink" width="82" height="80" style="padding: 0px"><path d="M11.64 52.08C12.40 52.08 13.20 52 13.84 51.88C14.20 51.80 14.28 51.76 14.32 52.16C14.72 54.32 15.20 57.08 15.20 58.60C15.20 63.32 12 63.92 10.12 63.92C8.40 63.92 7.56 63.40 7.56 62.96C7.56 62.76 7.84 62.64 8.56 62.44C9.56 62.16 10.72 61.28 10.72 59.44C10.72 57.68 9.60 56.16 7.64 56.16C5.52 56.16 4.24 57.84 4.24 59.84C4.24 61.92 5.48 65.04 10.32 65.04C12.44 65.04 16.60 64.08 16.60 58.64C16.60 56.84 16.04 53.80 15.68 51.80C15.60 51.44 15.64 51.44 16.08 51.28C19.32 50 21.48 47.28 21.48 43.64C21.48 39.56 18.48 35.92 13.76 35.92C12.92 35.92 12.92 35.92 12.84 35.36L12.04 30.72C11.96 30.32 12.04 30.32 12.24 30.12C15.68 26.68 18.32 23.04 18.32 17.92C18.32 15.12 17.52 12.40 16.24 10.48C15.76 9.76 14.92 8.88 14.56 8.88C14.12 8.88 13.12 9.68 12.48 10.40C10.12 13.04 9.36 17.04 9.36 20.36C9.36 22.20 9.56 24.28 9.80 25.60C9.84 26 9.88 26.04 9.52 26.36C4.92 30.16 0 34.76 0 41.20C0 46.80 3.80 52.08 11.64 52.08ZM2.56 43.36C2.56 37.96 6.52 34.48 10.44 31.40C10.76 31.12 10.80 31.16 10.88 31.52L11.56 35.60C11.64 36.24 11.64 36.20 11.08 36.40C8.24 37.36 6.44 39.88 6.44 42.60C6.44 45.48 7.92 47.52 10.12 48.24C10.36 48.36 10.76 48.44 10.96 48.44C11.24 48.44 11.36 48.28 11.36 48.08C11.36 47.88 11.12 47.76 10.88 47.68C9.52 47.12 8.56 45.72 8.56 44.24C8.56 42.44 9.84 41.04 11.76 40.52C12.28 40.40 12.36 40.40 12.40 40.76L14 50.32C14.08 50.64 14.04 50.64 13.56 50.76C13.04 50.84 12.40 50.92 11.76 50.92C6.16 50.92 2.56 47.80 2.56 43.36ZM15.04 13.84C16.08 13.84 16.96 14.68 16.96 16.44C16.96 20.04 13.92 22.84 11.40 25.08C11.16 25.28 11.04 25.24 10.96 24.84C10.84 24 10.80 22.92 10.80 21.88C10.80 16.88 13.08 13.84 15.04 13.84ZM14.12 40.24C16.72 40.48 18.84 42.64 18.84 45.48C18.84 47.48 17.64 49.12 15.84 50C15.44 50.20 15.40 50.20 15.32 49.84L13.76 40.72C13.68 40.32 13.72 40.24 14.12 40.24ZM0 51.48L0 52.52L24 52.52L24 51.48ZM24 28.52L24 27.48L0 27.48L0 28.52ZM24 36.52L24 35.48L0 35.48L0 36.52ZM0 43.48L0 44.52L24 44.52L24 43.48ZM24 20.52L24 19.48L0 19.48L0 20.52ZM23.96 64L23.96 39.64C24.60 40.20 25.48 40.52 26.48 40.52C29.68 40.52 33.64 37.52 33.64 34.48C33.64 32.68 32.20 31.48 30.12 31.48C26.16 31.48 23 34.40 23 37.52L23 64ZM40 20.52L40 19.48L24 19.48L24 20.52ZM40 28.52L40 27.48L24 27.48L24 28.52ZM24 51.48L24 52.52L40 52.52L40 51.48ZM40 36.52L40 35.48L24 35.48L24 36.52ZM24 43.48L24 44.52L40 44.52L40 43.48ZM40.96 64L40.96 39.64C41.60 40.20 42.48 40.52 43.48 40.52C46.68 40.52 50.64 37.52 50.64 34.48C50.64 32.68 49.20 31.48 47.12 31.48C43.16 31.48 40 34.40 40 37.52L40 64ZM53.96 64L53.96 39.64C54.60 40.20 55.48 40.52 56.48 40.52C59.68 40.52 63.64 37.52 63.64 34.48C63.64 32.68 62.20 31.48 60.12 31.48C56.16 31.48 53 34.40 53 37.52L53 64ZM66.96 64L66.96 39.64C67.60 40.20 68.48 40.52 69.48 40.52C72.68 40.52 76.64 37.52 76.64 34.48C76.64 32.68 75.20 31.48 73.12 31.48C69.16 31.48 66 34.40 66 37.52L66 64ZM82 20.52L82 19.48L66 19.48L66 20.52ZM82 28.52L82 27.48L66 27.48L66 28.52ZM66 51.48L66 52.52L82 52.52L82 51.48ZM82 36.52L82 35.48L66 35.48L66 36.52ZM66 43.48L66 44.52L82 44.52L82 43.48Z"/></svg>