<svg xmlns="http://www.w3.org/2000/svg" xmlns:xlink="http://www.w3.org/1999/xlink" width="35" height="80" style="padding: 0px"><path d="M0.24 48.32C0.40 48.32 0.60 48.24 0.80 48.16C8.68 44.28 17 38.64 17 28.88C17 23.32 13.60 19.60 8.08 19.60C2.48 19.60 0 23.68 0 26.76C0 29.32 1.36 31.52 3.92 31.52C5.96 31.52 7.32 30.12 7.32 28.12C7.32 26.08 5.84 24.80 4.24 24.80C3.40 24.80 3.08 25.04 2.64 25.04C2.24 25.04 2.16 24.76 2.16 24.44C2.16 23.16 4.08 20.84 7.32 20.84C10.72 20.84 12.20 24.16 12.20 29.20C12.20 38.16 7.76 43.08 0.32 47.36C0.04 47.52-0.16 47.68-0.16 47.92C-0.16 48.12-0.04 48.32 0.24 48.32ZM20.12 25.76C21.12 25.76 21.88 25 21.88 24C21.88 23 21.12 22.24 20.12 22.24C19.12 22.24 18.36 23 18.36 24C18.36 25 19.12 25.76 20.12 25.76ZM20.16 33.72C21.16 33.72 21.88 33 21.88 32C21.88 31 21.16 30.28 20.16 30.28C19.16 30.28 18.44 31 18.44 32C18.44 33 19.16 33.72 20.16 33.72ZM24.96 36L24.96 11.64C25.60 12.20 26.48 12.52 27.48 12.52C30.68 12.52 34.64 9.52 34.64 6.48C34.64 4.68 33.20 3.48 31.12 3.48C27.16 3.48 24 6.40 24 9.52L24 36Z"/></svg>