<svg xmlns="http://www.w3.org/2000/svg" xmlns:xlink="http://www.w3.org/1999/xlink" width="97" height="80" style="padding: 0px"><path d="M0.24 48.32C0.40 48.32 0.60 48.24 0.80 48.16C8.68 44.28 17 38.64 17 28.88C17 23.32 13.60 19.60 8.08 19.60C2.48 19.60 0 23.68 0 26.76C0 29.32 1.36 31.52 3.92 31.52C5.96 31.52 7.32 30.12 7.32 28.12C7.32 26.08 5.84 24.80 4.24 24.80C3.40 24.80 3.08 25.04 2.64 25.04C2.24 25.04 2.16 24.76 2.16 24.44C2.16 23.16 4.08 20.84 7.32 20.84C10.72 20.84 12.20 24.16 12.20 29.20C12.20 38.16 7.76 43.08 0.32 47.36C0.04 47.52-0.16 47.68-0.16 47.92C-0.16 48.12-0.04 48.32 0.24 48.32ZM20.12 25.76C21.12 25.76 21.88 25 21.88 24C21.88 23 21.12 22.24 20.12 22.24C19.12 22.24 18.36 23 18.36 24C18.36 25 19.12 25.76 20.12 25.76ZM20.16 33.72C21.16 33.72 21.88 33 21.88 32C21.88 31 21.16 30.28 20.16 30.28C19.16 30.28 18.44 31 18.44 32C18.44 33 19.16 33.72 20.16 33.72ZM24.96 36L24.96 11.64C25.60 12.20 26.48 12.52 27.48 12.52C30.68 12.52 34.64 9.52 34.64 6.48C34.64 4.68 33.20 3.48 31.12 3.48C27.16 3.48 24 6.40 24 9.52L24 36ZM37.96 40L37.96 15.64C38.60 16.20 39.48 16.52 40.48 16.52C43.68 16.52 47.64 13.52 47.64 10.48C47.64 8.68 46.20 7.48 44.12 7.48C40.16 7.48 37 10.40 37 13.52L37 40ZM61.64 52.08C62.40 52.08 63.20 52 63.84 51.88C64.20 51.80 64.28 51.76 64.32 52.16C64.72 54.32 65.20 57.08 65.20 58.60C65.20 63.32 62 63.92 60.12 63.92C58.40 63.92 57.56 63.40 57.56 62.96C57.56 62.76 57.84 62.64 58.56 62.44C59.56 62.16 60.72 61.28 60.72 59.44C60.72 57.68 59.60 56.16 57.64 56.16C55.52 56.16 54.24 57.84 54.24 59.84C54.24 61.92 55.48 65.04 60.32 65.04C62.44 65.04 66.60 64.08 66.60 58.64C66.60 56.84 66.04 53.80 65.68 51.80C65.60 51.44 65.64 51.44 66.08 51.28C69.32 50 71.48 47.28 71.48 43.64C71.48 39.56 68.48 35.92 63.76 35.92C62.92 35.92 62.92 35.92 62.84 35.36L62.04 30.72C61.96 30.32 62.04 30.32 62.24 30.12C65.68 26.68 68.32 23.04 68.32 17.92C68.32 15.12 67.52 12.40 66.24 10.48C65.76 9.76 64.92 8.88 64.56 8.88C64.12 8.88 63.12 9.68 62.48 10.40C60.12 13.04 59.36 17.04 59.36 20.36C59.36 22.20 59.56 24.28 59.80 25.60C59.84 26 59.88 26.04 59.52 26.36C54.92 30.16 50 34.76 50 41.20C50 46.80 53.80 52.08 61.64 52.08ZM52.56 43.36C52.56 37.96 56.52 34.48 60.44 31.40C60.76 31.12 60.80 31.16 60.88 31.52L61.56 35.60C61.64 36.24 61.64 36.20 61.08 36.40C58.24 37.36 56.44 39.88 56.44 42.60C56.44 45.48 57.92 47.52 60.12 48.24C60.36 48.36 60.76 48.44 60.96 48.44C61.24 48.44 61.36 48.28 61.36 48.08C61.36 47.88 61.12 47.76 60.88 47.68C59.52 47.12 58.56 45.72 58.56 44.24C58.56 42.44 59.84 41.04 61.76 40.52C62.28 40.40 62.36 40.40 62.40 40.76L64 50.32C64.08 50.64 64.04 50.64 63.56 50.76C63.04 50.84 62.40 50.92 61.76 50.92C56.16 50.92 52.56 47.80 52.56 43.36ZM65.04 13.84C66.08 13.84 66.96 14.68 66.96 16.44C66.96 20.04 63.92 22.84 61.40 25.08C61.16 25.28 61.04 25.24 60.96 24.84C60.84 24 60.80 22.92 60.80 21.88C60.80 16.88 63.08 13.84 65.04 13.84ZM64.12 40.24C66.72 40.48 68.84 42.64 68.84 45.48C68.84 47.48 67.64 49.12 65.84 50C65.44 50.20 65.40 50.20 65.32 49.84L63.76 40.72C63.68 40.32 63.72 40.24 64.12 40.24ZM76.48 60.52C79.68 60.52 83.64 57.52 83.64 54.48L83.64 28L82.68 28L82.68 52.32C82.04 51.76 81.16 51.48 80.12 51.48C76.16 51.48 73 54.40 73 57.52C73 59.40 74.52 60.52 76.48 60.52ZM89.48 64.52C92.68 64.52 96.64 61.52 96.64 58.48L96.64 32L95.68 32L95.68 56.32C95.04 55.76 94.16 55.48 93.12 55.48C89.16 55.48 86 58.40 86 61.52C86 63.40 87.52 64.52 89.48 64.52Z"/></svg>