<svg xmlns="http://www.w3.org/2000/svg" xmlns:xlink="http://www.w3.org/1999/xlink" height="80" width="71" style="padding: 0px">
	<g transform="translate(0 0)">
		<path d="M0.24 48.32C0.40 48.32 0.60 48.24 0.80 48.16C8.68 44.28 17 38.64 17 28.88C17 23.32 13.60 19.60 8.08 19.60C2.48 19.60 0 23.68 0 26.76C0 29.32 1.36 31.52 3.92 31.52C5.96 31.52 7.32 30.12 7.32 28.12C7.32 26.08 5.84 24.80 4.24 24.80C3.40 24.80 3.08 25.04 2.64 25.04C2.24 25.04 2.16 24.76 2.16 24.44C2.16 23.16 4.08 20.84 7.32 20.84C10.72 20.84 12.20 24.16 12.20 29.20C12.20 38.16 7.76 43.08 0.32 47.36C0.04 47.52-0.16 47.68-0.16 47.92C-0.16 48.12-0.04 48.32 0.24 48.32ZM20.12 25.76C21.12 25.76 21.88 25 21.88 24C21.88 23 21.12 22.24 20.12 22.24C19.12 22.24 18.36 23 18.36 24C18.36 25 19.12 25.76 20.12 25.76ZM20.16 33.72C21.16 33.72 21.88 33 21.88 32C21.88 31 21.16 30.28 20.16 30.28C19.16 30.28 18.44 31 18.44 32C18.44 33 19.16 33.72 20.16 33.72ZM24.96 40L24.96 15.64C25.60 16.20 26.48 16.52 27.48 16.52C30.68 16.52 34.64 13.52 34.64 10.48C34.64 8.68 33.20 7.48 31.12 7.48C27.16 7.48 24 10.40 24 13.52L24 40ZM48.64 52.08C49.40 52.08 50.20 52 50.84 51.88C51.20 51.80 51.28 51.76 51.32 52.16C51.72 54.32 52.20 57.08 52.20 58.60C52.20 63.32 49 63.92 47.12 63.92C45.40 63.92 44.56 63.40 44.56 62.96C44.56 62.76 44.84 62.64 45.56 62.44C46.56 62.16 47.72 61.28 47.72 59.44C47.72 57.68 46.60 56.16 44.64 56.16C42.52 56.16 41.24 57.84 41.24 59.84C41.24 61.92 42.48 65.04 47.32 65.04C49.44 65.04 53.60 64.08 53.60 58.64C53.60 56.84 53.04 53.80 52.68 51.80C52.60 51.44 52.64 51.44 53.08 51.28C56.32 50 58.48 47.28 58.48 43.64C58.48 39.56 55.48 35.92 50.76 35.92C49.92 35.92 49.92 35.92 49.84 35.36L49.04 30.72C48.96 30.32 49.04 30.32 49.24 30.12C52.68 26.68 55.32 23.04 55.32 17.92C55.32 15.12 54.52 12.40 53.24 10.48C52.76 9.76 51.92 8.88 51.56 8.88C51.12 8.88 50.12 9.68 49.48 10.40C47.12 13.04 46.36 17.04 46.36 20.36C46.36 22.20 46.56 24.28 46.80 25.60C46.84 26 46.88 26.04 46.52 26.36C41.92 30.16 37 34.76 37 41.20C37 46.80 40.80 52.08 48.64 52.08ZM39.56 43.36C39.56 37.96 43.52 34.48 47.44 31.40C47.76 31.12 47.80 31.16 47.88 31.52L48.56 35.60C48.64 36.24 48.64 36.20 48.08 36.40C45.24 37.36 43.44 39.88 43.44 42.60C43.44 45.48 44.92 47.52 47.12 48.24C47.36 48.36 47.76 48.44 47.96 48.44C48.24 48.44 48.36 48.28 48.36 48.08C48.36 47.88 48.12 47.76 47.88 47.68C46.52 47.12 45.56 45.72 45.56 44.24C45.56 42.44 46.84 41.04 48.76 40.52C49.28 40.40 49.36 40.40 49.40 40.76L51 50.32C51.08 50.64 51.04 50.64 50.56 50.76C50.04 50.84 49.40 50.92 48.76 50.92C43.16 50.92 39.56 47.80 39.56 43.36ZM52.04 13.84C53.08 13.84 53.96 14.68 53.96 16.44C53.96 20.04 50.92 22.84 48.40 25.08C48.16 25.28 48.04 25.24 47.96 24.84C47.84 24 47.80 22.92 47.80 21.88C47.80 16.88 50.08 13.84 52.04 13.84ZM51.12 40.24C53.72 40.48 55.84 42.64 55.84 45.48C55.84 47.48 54.64 49.12 52.84 50C52.44 50.20 52.40 50.20 52.32 49.84L50.76 40.72C50.68 40.32 50.72 40.24 51.12 40.24ZM63.48 64.52C66.68 64.52 70.64 61.52 70.64 58.48L70.64 32L69.68 32L69.68 56.32C69.04 55.76 68.16 55.48 67.12 55.48C63.16 55.48 60 58.40 60 61.52C60 63.40 61.52 64.52 63.48 64.52Z"/>
	</g>
</svg>