<svg xmlns="http://www.w3.org/2000/svg" xmlns:xlink="http://www.w3.org/1999/xlink" height="80" width="24" style="padding: 0px">
	<g transform="translate(0 0)">
		<path d="M5 26.80L5 39.48L6 39.48L6 26.80L11 33.52L11 30L5.52 22.48L0 30L0 33.52ZM16 20.52L16 19.48L0 19.48L0 20.52ZM16 28.52L16 27.48L0 27.48L0 28.52ZM0 51.48L0 52.52L16 52.52L16 51.48ZM16 36.52L16 35.48L0 35.48L0 36.52ZM0 43.48L0 44.52L16 44.52L16 43.48ZM13.96 56L13.96 31.64C14.60 32.20 15.48 32.52 16.48 32.52C19.68 32.52 23.64 29.52 23.64 26.48C23.64 24.68 22.20 23.48 20.12 23.48C16.16 23.48 13 26.40 13 29.52L13 56ZM24 20.52L24 19.48L16 19.48L16 20.52ZM24 28.52L24 27.48L16 27.48L16 28.52ZM16 51.48L16 52.52L24 52.52L24 51.48ZM24 36.52L24 35.48L16 35.48L16 36.52ZM16 43.48L16 44.52L24 44.52L24 43.48Z"/>
	</g>
</svg>