<svg xmlns="http://www.w3.org/2000/svg" xmlns:xlink="http://www.w3.org/1999/xlink" height="80" width="277" style="padding: 0px">
	<g transform="translate(0 0)">
		<path d="M10.84 36.12L13.96 36L13.96 35.24L13.64 35.24C12.60 35.20 12.52 35.08 12.52 33.92L12.52 22.72L9 22.92L9 23.72L10.08 23.72C10.76 23.72 10.84 23.84 10.84 24.60L10.84 28.68C10.16 27.76 9.40 27.36 8.36 27.36C6.32 27.36 4.76 29.28 4.76 31.88C4.76 34.44 6.28 36.28 8.36 36.28C9.48 36.28 10.28 35.80 10.84 34.72ZM8.72 28.32C9.44 28.32 10.16 28.84 10.48 29.68C10.72 30.24 10.84 30.96 10.84 31.84C10.84 33.96 9.96 35.28 8.68 35.28C7.40 35.28 6.68 34.12 6.68 32.12C6.68 31.04 6.76 30.24 7 29.64C7.32 28.84 8 28.32 8.72 28.32ZM20.52 27.36C18.32 27.36 16.60 29.32 16.60 31.84C16.60 34.32 18.32 36.28 20.48 36.28C22.64 36.28 24.40 34.28 24.40 31.80C24.40 29.32 22.64 27.36 20.52 27.36ZM20.52 28.12C21.80 28.12 22.48 29.44 22.48 31.80C22.48 34.20 21.76 35.48 20.48 35.48C19.20 35.48 18.52 34.20 18.52 31.84C18.52 29.40 19.16 28.12 20.52 28.12ZM30.60 27.60L27.48 27.80L27.48 28.60L28.12 28.60C28.80 28.60 28.92 28.72 28.92 29.48L28.92 33.80L28.92 34.20L28.92 34.64C28.92 34.92 28.88 35.04 28.80 35.12C28.68 35.28 28.32 35.36 27.56 35.36L27.48 35.36L27.48 36L32.04 36L32.04 35.36L31.96 35.36C30.76 35.32 30.60 35.20 30.60 34.56L30.60 33.80L30.60 31.92C30.60 31.04 30.72 30.20 30.92 29.80C31.28 29 32.12 28.44 32.88 28.44C33.36 28.44 33.88 28.72 34.16 29.08C34.44 29.48 34.56 30 34.56 30.88L34.56 33.80L34.56 34.64C34.56 34.92 34.52 35.04 34.44 35.12C34.32 35.28 33.96 35.36 33.20 35.36L33.12 35.36L33.12 36L37.68 36L37.68 35.36L37.60 35.36C36.40 35.32 36.24 35.20 36.24 34.56L36.24 33.80L36.24 30.96C36.24 29.68 36.20 29.32 35.88 28.72C35.44 27.84 34.52 27.36 33.44 27.36C32.28 27.36 31.40 27.88 30.60 29.08ZM40.84 27.92C41.52 27.44 41.92 27.12 42.04 27C42.76 26.36 43.20 25.32 43.20 24.36C43.20 23.36 42.60 22.68 41.72 22.68C41.04 22.68 40.56 23.16 40.56 23.76C40.56 24.44 41 24.80 41.84 24.80L42.08 24.80L42.12 24.80C42.20 24.80 42.24 24.84 42.24 24.92C42.24 25.80 41.64 26.64 40.44 27.40ZM49.48 27.60L49.48 24.04L48.76 24.04C48.60 26.36 47.76 27.56 46.32 27.68L46.32 28.40L47.80 28.40L47.80 32.96C47.80 34.24 47.84 34.72 48 35.12C48.28 35.88 49.04 36.28 50.08 36.28C51.68 36.28 52.72 35.04 52.72 33.12L52.72 32.72L51.96 32.72C51.92 34.32 51.44 35.16 50.56 35.16C50.16 35.16 49.76 34.96 49.64 34.64C49.52 34.40 49.48 33.92 49.48 33.28L49.48 28.40L52.12 28.40L52.12 27.60ZM65.60 31.64L65.60 22.72L62.24 22.92L62.24 23.72L63.12 23.72C63.80 23.72 63.88 23.84 63.88 24.60L63.88 33.80L63.88 34.64C63.88 34.88 63.88 35.04 63.80 35.12C63.68 35.28 63.32 35.36 62.56 35.36L62.48 35.36L62.48 36L67.04 36L67.04 35.36L66.96 35.36C65.76 35.32 65.60 35.20 65.60 34.56L65.60 33.80L65.60 32.76L66.68 31.72L68.84 34.72C68.92 34.88 68.96 34.96 68.96 35.04C68.96 35.28 68.76 35.36 68.16 35.36L67.80 35.36L67.80 36L72.56 36L72.56 35.36C71.56 35.28 71.20 35.04 70.48 34.12L67.92 30.60L68.72 29.84C69.80 28.80 70.52 28.40 71.76 28.24L71.76 27.60L67.04 27.60L67.04 28.24L67.60 28.24C68.16 28.24 68.44 28.36 68.44 28.60C68.44 28.80 68.28 29.04 68 29.32ZM78.60 27.60L75.48 27.80L75.48 28.60L76.12 28.60C76.80 28.60 76.92 28.72 76.92 29.48L76.92 33.80L76.92 34.20L76.92 34.64C76.92 34.92 76.88 35.04 76.80 35.12C76.68 35.28 76.32 35.36 75.56 35.36L75.48 35.36L75.48 36L80.04 36L80.04 35.36L79.96 35.36C78.76 35.32 78.60 35.20 78.60 34.56L78.60 33.80L78.60 31.92C78.60 31.04 78.72 30.20 78.92 29.80C79.28 29 80.12 28.44 80.88 28.44C81.36 28.44 81.88 28.72 82.16 29.08C82.44 29.48 82.56 30 82.56 30.88L82.56 33.80L82.56 34.64C82.56 34.92 82.52 35.04 82.44 35.12C82.32 35.28 81.96 35.36 81.20 35.36L81.12 35.36L81.12 36L85.68 36L85.68 35.36L85.60 35.36C84.40 35.32 84.24 35.20 84.24 34.56L84.24 33.80L84.24 30.96C84.24 29.68 84.20 29.32 83.88 28.72C83.44 27.84 82.52 27.36 81.44 27.36C80.28 27.36 79.40 27.88 78.60 29.08ZM92.52 27.36C90.32 27.36 88.60 29.32 88.60 31.84C88.60 34.32 90.32 36.28 92.48 36.28C94.64 36.28 96.40 34.28 96.40 31.80C96.40 29.32 94.64 27.36 92.52 27.36ZM92.52 28.12C93.80 28.12 94.48 29.44 94.48 31.80C94.48 34.20 93.76 35.48 92.48 35.48C91.20 35.48 90.52 34.20 90.52 31.84C90.52 29.40 91.16 28.12 92.52 28.12ZM108.84 33.68L107.08 29.04C107.04 28.92 107 28.84 107 28.68C107 28.36 107.16 28.24 107.76 28.24L108.20 28.24L108.20 27.60L104.16 27.60L104.16 28.24L104.48 28.24C105.04 28.24 105.28 28.40 105.44 28.92L105.56 29.40L104 33.60L102.24 29.08C102.20 28.96 102.16 28.80 102.16 28.68C102.16 28.36 102.36 28.24 102.92 28.24L103.24 28.24L103.24 27.60L99.28 27.60L99.28 28.24L99.60 28.24C100.12 28.24 100.32 28.52 100.52 29.16L103.24 36.28L103.88 36.28L106 30.60L108.20 36.28L108.76 36.28L111.28 29.64C111.68 28.56 111.92 28.24 112.60 28.24L112.72 28.24L112.72 27.60L109.32 27.60L109.32 28.24L109.64 28.24C110.28 28.24 110.52 28.44 110.52 28.92C110.52 29.08 110.44 29.32 110.36 29.56ZM131.84 33.68L130.08 29.04C130.04 28.92 130 28.84 130 28.68C130 28.36 130.16 28.24 130.76 28.24L131.20 28.24L131.20 27.60L127.16 27.60L127.16 28.24L127.48 28.24C128.04 28.24 128.28 28.40 128.44 28.92L128.56 29.40L127 33.60L125.24 29.08C125.20 28.96 125.16 28.80 125.16 28.68C125.16 28.36 125.36 28.24 125.92 28.24L126.24 28.24L126.24 27.60L122.28 27.60L122.28 28.24L122.60 28.24C123.12 28.24 123.32 28.52 123.52 29.16L126.24 36.28L126.88 36.28L129 30.60L131.20 36.28L131.76 36.28L134.28 29.64C134.68 28.56 134.92 28.24 135.60 28.24L135.72 28.24L135.72 27.60L132.32 27.60L132.32 28.24L132.64 28.24C133.28 28.24 133.52 28.44 133.52 28.92C133.52 29.08 133.44 29.32 133.36 29.56ZM141.60 22.72L138.28 22.92L138.28 23.72L139.12 23.72C139.80 23.72 139.92 23.84 139.92 24.60L139.92 33.80L139.92 34.20L139.92 34.64C139.92 34.88 139.88 35.04 139.80 35.12C139.68 35.28 139.32 35.36 138.56 35.36L138.48 35.36L138.48 36L143.04 36L143.04 35.36L142.96 35.36C141.76 35.32 141.60 35.20 141.60 34.56L141.60 33.80L141.60 31.92C141.60 31.04 141.72 30.20 141.92 29.80C142.32 29 143.12 28.44 143.88 28.44C144.36 28.44 144.92 28.72 145.16 29.08C145.44 29.48 145.56 30 145.56 30.88L145.56 33.80L145.56 34.64C145.56 34.88 145.52 35.04 145.44 35.12C145.32 35.28 144.96 35.36 144.20 35.36L144.12 35.36L144.12 36L148.68 36L148.68 35.36L148.60 35.36C147.40 35.32 147.24 35.20 147.24 34.56L147.24 33.80L147.24 30.96C147.24 29.68 147.20 29.32 146.88 28.72C146.44 27.84 145.52 27.36 144.44 27.36C143.28 27.36 142.40 27.88 141.60 29.08ZM159.12 30.20C159.12 29.08 158.92 28.52 158.40 28.08C157.80 27.60 156.96 27.36 155.80 27.36C153.76 27.36 152.28 28.28 152.28 29.60C152.28 30.28 152.68 30.72 153.32 30.72C153.88 30.72 154.28 30.36 154.28 29.80C154.28 29.56 154.20 29.28 154.04 29.04C153.92 28.92 153.88 28.88 153.88 28.80C153.88 28.44 154.60 28.12 155.48 28.12C156.04 28.12 156.68 28.28 156.96 28.56C157.32 28.84 157.44 29.28 157.44 30.08L157.44 30.80C155.56 31.12 154.96 31.24 154.08 31.60C152.52 32.16 151.80 33 151.80 34.16C151.80 35.44 152.80 36.28 154.40 36.28C155.64 36.28 156.76 35.76 157.52 34.84C157.80 35.76 158.28 36.12 159.12 36.12C159.92 36.12 160.76 35.60 160.76 35.08C160.76 34.96 160.72 34.88 160.60 34.88C160.52 34.88 160.44 34.88 160.32 34.92C160.08 35.04 159.96 35.08 159.80 35.08C159.28 35.08 159.12 34.76 159.12 33.84ZM157.44 32.40C157.44 33.48 157.40 33.72 157.08 34.20C156.64 34.88 155.84 35.32 155.04 35.32C154.20 35.32 153.60 34.72 153.60 33.92C153.60 33.16 153.96 32.60 154.76 32.24C155.32 32 156.04 31.80 157.44 31.56ZM166.48 27.60L166.48 24.04L165.76 24.04C165.60 26.36 164.76 27.56 163.32 27.68L163.32 28.40L164.80 28.40L164.80 32.96C164.80 34.24 164.84 34.72 165 35.12C165.28 35.88 166.04 36.28 167.08 36.28C168.68 36.28 169.72 35.04 169.72 33.12L169.72 32.72L168.96 32.72C168.92 34.32 168.44 35.16 167.56 35.16C167.16 35.16 166.76 34.96 166.64 34.64C166.52 34.40 166.48 33.92 166.48 33.28L166.48 28.40L169.12 28.40L169.12 27.60ZM182.72 27.60L179.32 27.80L179.32 28.60L180.24 28.60C180.92 28.60 181 28.72 181 29.48L181 33.80L181 34.64C181 34.92 181 35.04 180.92 35.12C180.80 35.28 180.44 35.36 179.68 35.36L179.56 35.36L179.56 36L184.20 36L184.20 35.36L184.08 35.36C182.88 35.32 182.72 35.20 182.72 34.56L182.72 33.80ZM181.88 23.12C181.32 23.12 180.80 23.60 180.80 24.16C180.80 24.72 181.28 25.20 181.84 25.20C182.44 25.20 182.92 24.72 182.92 24.16C182.92 23.60 182.44 23.12 181.88 23.12ZM187.84 27.92C188.52 27.44 188.92 27.12 189.04 27C189.76 26.36 190.20 25.32 190.20 24.36C190.20 23.36 189.60 22.68 188.72 22.68C188.04 22.68 187.56 23.16 187.56 23.76C187.56 24.44 188 24.80 188.84 24.80L189.08 24.80L189.12 24.80C189.20 24.80 189.24 24.84 189.24 24.92C189.24 25.80 188.64 26.64 187.44 27.40ZM196.60 27.60L193.40 27.80L193.40 28.60L194.16 28.60C194.84 28.60 194.92 28.72 194.92 29.48L194.92 33.80L194.92 34.48L194.92 34.64C194.92 34.92 194.88 35.04 194.80 35.12C194.68 35.28 194.32 35.36 193.56 35.36L193.52 35.36L193.52 36L198.04 36L198.04 35.36L197.96 35.36C196.76 35.32 196.60 35.24 196.60 34.56L196.60 33.80L196.60 31.24C196.60 29.64 197.52 28.44 198.68 28.44C199.72 28.44 200.20 29.20 200.20 30.64L200.20 33.80L200.20 34.64C200.20 34.88 200.16 35.04 200.08 35.12C199.96 35.28 199.60 35.36 198.84 35.36L198.76 35.36L198.76 36L203.32 36L203.32 35.36L203.24 35.36C202.04 35.32 201.92 35.20 201.92 34.56L201.92 33.80L201.92 31.40C201.92 29.60 202.68 28.44 203.96 28.44C205 28.44 205.52 29.24 205.52 30.84L205.52 33.80L205.52 34.64C205.52 34.88 205.48 35.04 205.40 35.12C205.28 35.28 204.92 35.36 204.16 35.36L204.08 35.36L204.08 36L208.64 36L208.64 35.36L208.56 35.36C207.36 35.32 207.20 35.24 207.20 34.56L207.20 33.80L207.20 30.48C207.20 29.36 207.12 28.96 206.64 28.36C206.12 27.68 205.40 27.36 204.52 27.36C203.36 27.36 202.44 27.92 201.68 29.16C201.36 28.08 200.40 27.36 199.20 27.36C198.12 27.36 197.32 27.88 196.60 29ZM224.84 36.12L227.96 36L227.96 35.24L227.64 35.24C226.60 35.20 226.52 35.08 226.52 33.92L226.52 22.72L223 22.92L223 23.72L224.08 23.72C224.76 23.72 224.84 23.84 224.84 24.60L224.84 28.68C224.16 27.76 223.40 27.36 222.36 27.36C220.32 27.36 218.76 29.28 218.76 31.88C218.76 34.44 220.28 36.28 222.36 36.28C223.48 36.28 224.28 35.80 224.84 34.72ZM222.72 28.32C223.44 28.32 224.16 28.84 224.48 29.68C224.72 30.24 224.84 30.96 224.84 31.84C224.84 33.96 223.96 35.28 222.68 35.28C221.40 35.28 220.68 34.12 220.68 32.12C220.68 31.04 220.76 30.24 221 29.64C221.32 28.84 222 28.32 222.72 28.32ZM234.52 27.36C232.32 27.36 230.60 29.32 230.60 31.84C230.60 34.32 232.32 36.28 234.48 36.28C236.64 36.28 238.40 34.28 238.40 31.80C238.40 29.32 236.64 27.36 234.52 27.36ZM234.52 28.12C235.80 28.12 236.48 29.44 236.48 31.80C236.48 34.20 235.76 35.48 234.48 35.48C233.20 35.48 232.52 34.20 232.52 31.84C232.52 29.40 233.16 28.12 234.52 28.12ZM244.72 27.60L241.32 27.80L241.32 28.60L242.24 28.60C242.92 28.60 243 28.72 243 29.48L243 33.80L243 34.64C243 34.92 243 35.04 242.92 35.12C242.80 35.28 242.44 35.36 241.68 35.36L241.56 35.36L241.56 36L246.20 36L246.20 35.36L246.08 35.36C244.88 35.32 244.72 35.20 244.72 34.56L244.72 33.80ZM243.88 23.12C243.32 23.12 242.80 23.60 242.80 24.16C242.80 24.72 243.28 25.20 243.84 25.20C244.44 25.20 244.92 24.72 244.92 24.16C244.92 23.60 244.44 23.12 243.88 23.12ZM252.60 27.60L249.48 27.80L249.48 28.60L250.12 28.60C250.80 28.60 250.92 28.72 250.92 29.48L250.92 33.80L250.92 34.20L250.92 34.64C250.92 34.92 250.88 35.04 250.80 35.12C250.68 35.28 250.32 35.36 249.56 35.36L249.48 35.36L249.48 36L254.04 36L254.04 35.36L253.96 35.36C252.76 35.32 252.60 35.20 252.60 34.56L252.60 33.80L252.60 31.92C252.60 31.04 252.72 30.20 252.92 29.80C253.28 29 254.12 28.44 254.88 28.44C255.36 28.44 255.88 28.72 256.16 29.08C256.44 29.48 256.56 30 256.56 30.88L256.56 33.80L256.56 34.64C256.56 34.92 256.52 35.04 256.44 35.12C256.32 35.28 255.96 35.36 255.20 35.36L255.12 35.36L255.12 36L259.68 36L259.68 35.36L259.60 35.36C258.40 35.32 258.24 35.20 258.24 34.56L258.24 33.80L258.24 30.96C258.24 29.68 258.20 29.32 257.88 28.72C257.44 27.84 256.52 27.36 255.44 27.36C254.28 27.36 253.40 27.88 252.60 29.08ZM265.52 34.68C264.52 34.68 264.48 34.64 264.28 34.52C264.16 34.44 264.04 34.24 264.04 34.04C264.04 33.48 264.56 33.28 265.76 33.24C267.44 33.20 267.72 33.16 268.32 32.88C269.40 32.40 270 31.48 270 30.28C270 29.56 269.84 29.12 269.36 28.52C269.68 28.20 269.80 28.08 269.96 28.08C270.04 28.08 270.08 28.12 270.12 28.32C270.20 28.76 270.52 29 270.96 29C271.44 29 271.76 28.60 271.76 28.12C271.76 27.52 271.28 27.08 270.56 27.08C270 27.08 269.68 27.28 268.84 28.04C268.08 27.52 267.48 27.36 266.60 27.36C264.44 27.36 263.08 28.52 263.08 30.32C263.08 31.40 263.64 32.32 264.56 32.76C263.36 33.04 262.88 33.56 262.88 34.56C262.88 35.36 263.24 35.80 264.08 36.08C262.96 36.48 262.40 37.08 262.40 37.80C262.40 38.36 262.80 38.84 263.36 39.16C264.08 39.52 264.92 39.64 266.20 39.64C269.20 39.64 270.72 38.68 270.72 36.80C270.72 35.92 270.28 35.20 269.64 34.92C269.16 34.76 268.60 34.68 267.36 34.68ZM266.60 28.12C267.72 28.12 268.32 28.88 268.32 30.28C268.32 31.68 267.64 32.56 266.52 32.56C265.40 32.56 264.72 31.72 264.72 30.36C264.72 28.92 265.40 28.12 266.60 28.12ZM266.44 36.20C267.92 36.20 268.04 36.20 268.28 36.24C269 36.32 269.44 36.72 269.44 37.28C269.44 38.32 268.28 38.92 266.28 38.92C264.76 38.92 263.92 38.44 263.92 37.64C263.92 37.04 264.20 36.64 265.08 36.20Z"/>
	</g>
</svg>