<svg xmlns="http://www.w3.org/2000/svg" xmlns:xlink="http://www.w3.org/1999/xlink" height="80" width="277" style="padding: 0px">
	<g transform="translate(0 0)">
		<path d="M6.84 36.12L9.96 36L9.96 35.24L9.64 35.24C8.60 35.20 8.52 35.08 8.52 33.92L8.52 22.72L5 22.92L5 23.72L6.08 23.72C6.76 23.72 6.84 23.84 6.84 24.60L6.84 28.68C6.16 27.76 5.40 27.36 4.36 27.36C2.32 27.36 0.76 29.28 0.76 31.88C0.76 34.44 2.28 36.28 4.36 36.28C5.48 36.28 6.28 35.80 6.84 34.72ZM4.72 28.32C5.44 28.32 6.16 28.84 6.48 29.68C6.72 30.24 6.84 30.96 6.84 31.84C6.84 33.96 5.96 35.28 4.68 35.28C3.40 35.28 2.68 34.12 2.68 32.12C2.68 31.04 2.76 30.24 3 29.64C3.32 28.84 4 28.32 4.72 28.32ZM16.52 27.36C14.32 27.36 12.60 29.32 12.60 31.84C12.60 34.32 14.32 36.28 16.48 36.28C18.64 36.28 20.40 34.28 20.40 31.80C20.40 29.32 18.64 27.36 16.52 27.36ZM16.52 28.12C17.80 28.12 18.48 29.44 18.48 31.80C18.48 34.20 17.76 35.48 16.48 35.48C15.20 35.48 14.52 34.20 14.52 31.84C14.52 29.40 15.16 28.12 16.52 28.12ZM26.60 27.60L23.48 27.80L23.48 28.60L24.12 28.60C24.80 28.60 24.92 28.72 24.92 29.48L24.92 33.80L24.92 34.20L24.92 34.64C24.92 34.92 24.88 35.04 24.80 35.12C24.68 35.28 24.32 35.36 23.56 35.36L23.48 35.36L23.48 36L28.04 36L28.04 35.36L27.96 35.36C26.76 35.32 26.60 35.20 26.60 34.56L26.60 33.80L26.60 31.92C26.60 31.04 26.72 30.20 26.92 29.80C27.28 29 28.12 28.44 28.88 28.44C29.36 28.44 29.88 28.72 30.16 29.08C30.44 29.48 30.56 30 30.56 30.88L30.56 33.80L30.56 34.64C30.56 34.92 30.52 35.04 30.44 35.12C30.32 35.28 29.96 35.36 29.20 35.36L29.12 35.36L29.12 36L33.68 36L33.68 35.36L33.60 35.36C32.40 35.32 32.24 35.20 32.24 34.56L32.24 33.80L32.24 30.96C32.24 29.68 32.20 29.32 31.88 28.72C31.44 27.84 30.52 27.36 29.44 27.36C28.28 27.36 27.40 27.88 26.60 29.08ZM36.84 27.92C37.52 27.44 37.92 27.12 38.04 27C38.76 26.36 39.20 25.32 39.20 24.36C39.20 23.36 38.60 22.68 37.72 22.68C37.04 22.68 36.56 23.16 36.56 23.76C36.56 24.44 37 24.80 37.84 24.80L38.08 24.80L38.12 24.80C38.20 24.80 38.24 24.84 38.24 24.92C38.24 25.80 37.64 26.64 36.44 27.40ZM45.48 27.60L45.48 24.04L44.76 24.04C44.60 26.36 43.76 27.56 42.32 27.68L42.32 28.40L43.80 28.40L43.80 32.96C43.80 34.24 43.84 34.72 44 35.12C44.28 35.88 45.04 36.28 46.08 36.28C47.68 36.28 48.72 35.04 48.72 33.12L48.72 32.72L47.96 32.72C47.92 34.32 47.44 35.16 46.56 35.16C46.16 35.16 45.76 34.96 45.64 34.64C45.52 34.40 45.48 33.92 45.48 33.28L45.48 28.40L48.12 28.40L48.12 27.60ZM61.60 31.64L61.60 22.72L58.24 22.92L58.24 23.72L59.12 23.72C59.80 23.72 59.88 23.84 59.88 24.60L59.88 33.80L59.88 34.64C59.88 34.88 59.88 35.04 59.80 35.12C59.68 35.28 59.32 35.36 58.56 35.36L58.48 35.36L58.48 36L63.04 36L63.04 35.36L62.96 35.36C61.76 35.32 61.60 35.20 61.60 34.56L61.60 33.80L61.60 32.76L62.68 31.72L64.84 34.72C64.92 34.88 64.96 34.96 64.96 35.04C64.96 35.28 64.76 35.36 64.16 35.36L63.80 35.36L63.80 36L68.56 36L68.56 35.36C67.56 35.28 67.20 35.04 66.48 34.12L63.92 30.60L64.72 29.84C65.80 28.80 66.52 28.40 67.76 28.24L67.76 27.60L63.04 27.60L63.04 28.24L63.60 28.24C64.16 28.24 64.44 28.36 64.44 28.60C64.44 28.80 64.28 29.04 64 29.32ZM74.60 27.60L71.48 27.80L71.48 28.60L72.12 28.60C72.80 28.60 72.92 28.72 72.92 29.48L72.92 33.80L72.92 34.20L72.92 34.64C72.92 34.92 72.88 35.04 72.80 35.12C72.68 35.28 72.32 35.36 71.56 35.36L71.48 35.36L71.48 36L76.04 36L76.04 35.36L75.96 35.36C74.76 35.32 74.60 35.20 74.60 34.56L74.60 33.80L74.60 31.92C74.60 31.04 74.72 30.20 74.92 29.80C75.28 29 76.12 28.44 76.88 28.44C77.36 28.44 77.88 28.72 78.16 29.08C78.44 29.48 78.56 30 78.56 30.88L78.56 33.80L78.56 34.64C78.56 34.92 78.52 35.04 78.44 35.12C78.32 35.28 77.96 35.36 77.20 35.36L77.12 35.36L77.12 36L81.68 36L81.68 35.36L81.60 35.36C80.40 35.32 80.24 35.20 80.24 34.56L80.24 33.80L80.24 30.96C80.24 29.68 80.20 29.32 79.88 28.72C79.44 27.84 78.52 27.36 77.44 27.36C76.28 27.36 75.40 27.88 74.60 29.08ZM88.52 27.36C86.32 27.36 84.60 29.32 84.60 31.84C84.60 34.32 86.32 36.28 88.48 36.28C90.64 36.28 92.40 34.28 92.40 31.80C92.40 29.32 90.64 27.36 88.52 27.36ZM88.52 28.12C89.80 28.12 90.48 29.44 90.48 31.80C90.48 34.20 89.76 35.48 88.48 35.48C87.20 35.48 86.52 34.20 86.52 31.84C86.52 29.40 87.16 28.12 88.52 28.12ZM104.84 33.68L103.08 29.04C103.04 28.92 103 28.84 103 28.68C103 28.36 103.16 28.24 103.76 28.24L104.20 28.24L104.20 27.60L100.16 27.60L100.16 28.24L100.48 28.24C101.04 28.24 101.28 28.40 101.44 28.92L101.56 29.40L100 33.60L98.24 29.08C98.20 28.96 98.16 28.80 98.16 28.68C98.16 28.36 98.36 28.24 98.92 28.24L99.24 28.24L99.24 27.60L95.28 27.60L95.28 28.24L95.60 28.24C96.12 28.24 96.32 28.52 96.52 29.16L99.24 36.28L99.88 36.28L102 30.60L104.20 36.28L104.76 36.28L107.28 29.64C107.68 28.56 107.92 28.24 108.60 28.24L108.72 28.24L108.72 27.60L105.32 27.60L105.32 28.24L105.64 28.24C106.28 28.24 106.52 28.44 106.52 28.92C106.52 29.08 106.44 29.32 106.36 29.56ZM127.84 33.68L126.08 29.04C126.04 28.92 126 28.84 126 28.68C126 28.36 126.16 28.24 126.76 28.24L127.20 28.24L127.20 27.60L123.16 27.60L123.16 28.24L123.48 28.24C124.04 28.24 124.28 28.40 124.44 28.92L124.56 29.40L123 33.60L121.24 29.08C121.20 28.96 121.16 28.80 121.16 28.68C121.16 28.36 121.36 28.24 121.92 28.24L122.24 28.24L122.24 27.60L118.28 27.60L118.28 28.24L118.60 28.24C119.12 28.24 119.32 28.52 119.52 29.16L122.24 36.28L122.88 36.28L125 30.60L127.20 36.28L127.76 36.28L130.28 29.64C130.68 28.56 130.92 28.24 131.60 28.24L131.72 28.24L131.72 27.60L128.32 27.60L128.32 28.24L128.64 28.24C129.28 28.24 129.52 28.44 129.52 28.92C129.52 29.08 129.44 29.32 129.36 29.56ZM137.60 22.72L134.28 22.92L134.28 23.72L135.12 23.72C135.80 23.72 135.92 23.84 135.92 24.60L135.92 33.80L135.92 34.20L135.92 34.64C135.92 34.88 135.88 35.04 135.80 35.12C135.68 35.28 135.32 35.36 134.56 35.36L134.48 35.36L134.48 36L139.04 36L139.04 35.36L138.96 35.36C137.76 35.32 137.60 35.20 137.60 34.56L137.60 33.80L137.60 31.92C137.60 31.04 137.72 30.20 137.92 29.80C138.32 29 139.12 28.44 139.88 28.44C140.36 28.44 140.92 28.72 141.16 29.08C141.44 29.48 141.56 30 141.56 30.88L141.56 33.80L141.56 34.64C141.56 34.88 141.52 35.04 141.44 35.12C141.32 35.28 140.96 35.36 140.20 35.36L140.12 35.36L140.12 36L144.68 36L144.68 35.36L144.60 35.36C143.40 35.32 143.24 35.20 143.24 34.56L143.24 33.80L143.24 30.96C143.24 29.68 143.20 29.32 142.88 28.72C142.44 27.84 141.52 27.36 140.44 27.36C139.28 27.36 138.40 27.88 137.60 29.08ZM155.12 30.20C155.12 29.08 154.92 28.52 154.40 28.08C153.80 27.60 152.96 27.36 151.80 27.36C149.76 27.36 148.28 28.28 148.28 29.60C148.28 30.28 148.68 30.72 149.32 30.72C149.88 30.72 150.28 30.36 150.28 29.80C150.28 29.56 150.20 29.28 150.04 29.04C149.92 28.92 149.88 28.88 149.88 28.80C149.88 28.44 150.60 28.12 151.48 28.12C152.04 28.12 152.68 28.28 152.96 28.56C153.32 28.84 153.44 29.28 153.44 30.08L153.44 30.80C151.56 31.12 150.96 31.24 150.08 31.60C148.52 32.16 147.80 33 147.80 34.16C147.80 35.44 148.80 36.28 150.40 36.28C151.64 36.28 152.76 35.76 153.52 34.84C153.80 35.76 154.28 36.12 155.12 36.12C155.92 36.12 156.76 35.60 156.76 35.08C156.76 34.96 156.72 34.88 156.60 34.88C156.52 34.88 156.44 34.88 156.32 34.92C156.08 35.04 155.96 35.08 155.80 35.08C155.28 35.08 155.12 34.76 155.12 33.84ZM153.44 32.40C153.44 33.48 153.40 33.72 153.08 34.20C152.64 34.88 151.84 35.32 151.04 35.32C150.20 35.32 149.60 34.72 149.60 33.92C149.60 33.16 149.96 32.60 150.76 32.24C151.32 32 152.04 31.80 153.44 31.56ZM162.48 27.60L162.48 24.04L161.76 24.04C161.60 26.36 160.76 27.56 159.32 27.68L159.32 28.40L160.80 28.40L160.80 32.96C160.80 34.24 160.84 34.72 161 35.12C161.28 35.88 162.04 36.28 163.08 36.28C164.68 36.28 165.72 35.04 165.72 33.12L165.72 32.72L164.96 32.72C164.92 34.32 164.44 35.16 163.56 35.16C163.16 35.16 162.76 34.96 162.64 34.64C162.52 34.40 162.48 33.92 162.48 33.28L162.48 28.40L165.12 28.40L165.12 27.60ZM178.72 27.60L175.32 27.80L175.32 28.60L176.24 28.60C176.92 28.60 177 28.72 177 29.48L177 33.80L177 34.64C177 34.92 177 35.04 176.92 35.12C176.80 35.28 176.44 35.36 175.68 35.36L175.56 35.36L175.56 36L180.20 36L180.20 35.36L180.08 35.36C178.88 35.32 178.72 35.20 178.72 34.56L178.72 33.80ZM177.88 23.12C177.32 23.12 176.80 23.60 176.80 24.16C176.80 24.72 177.28 25.20 177.84 25.20C178.44 25.20 178.92 24.72 178.92 24.16C178.92 23.60 178.44 23.12 177.88 23.12ZM183.84 27.92C184.52 27.44 184.92 27.12 185.04 27C185.76 26.36 186.20 25.32 186.20 24.36C186.20 23.36 185.60 22.68 184.72 22.68C184.04 22.68 183.56 23.16 183.56 23.76C183.56 24.44 184 24.80 184.84 24.80L185.08 24.80L185.12 24.80C185.20 24.80 185.24 24.84 185.24 24.92C185.24 25.80 184.64 26.64 183.44 27.40ZM192.60 27.60L189.40 27.80L189.40 28.60L190.16 28.60C190.84 28.60 190.92 28.72 190.92 29.48L190.92 33.80L190.92 34.48L190.92 34.64C190.92 34.92 190.88 35.04 190.80 35.12C190.68 35.28 190.32 35.36 189.56 35.36L189.52 35.36L189.52 36L194.04 36L194.04 35.36L193.96 35.36C192.76 35.32 192.60 35.24 192.60 34.56L192.60 33.80L192.60 31.24C192.60 29.64 193.52 28.44 194.68 28.44C195.72 28.44 196.20 29.20 196.20 30.64L196.20 33.80L196.20 34.64C196.20 34.88 196.16 35.04 196.08 35.12C195.96 35.28 195.60 35.36 194.84 35.36L194.76 35.36L194.76 36L199.32 36L199.32 35.36L199.24 35.36C198.04 35.32 197.92 35.20 197.92 34.56L197.92 33.80L197.92 31.40C197.92 29.60 198.68 28.44 199.96 28.44C201 28.44 201.52 29.24 201.52 30.84L201.52 33.80L201.52 34.64C201.52 34.88 201.48 35.04 201.40 35.12C201.28 35.28 200.92 35.36 200.16 35.36L200.08 35.36L200.08 36L204.64 36L204.64 35.36L204.56 35.36C203.36 35.32 203.20 35.24 203.20 34.56L203.20 33.80L203.20 30.48C203.20 29.36 203.12 28.96 202.64 28.36C202.12 27.68 201.40 27.36 200.52 27.36C199.36 27.36 198.44 27.92 197.68 29.16C197.36 28.08 196.40 27.36 195.20 27.36C194.12 27.36 193.32 27.88 192.60 29ZM220.84 36.12L223.96 36L223.96 35.24L223.64 35.24C222.60 35.20 222.52 35.08 222.52 33.92L222.52 22.72L219 22.92L219 23.72L220.08 23.72C220.76 23.72 220.84 23.84 220.84 24.60L220.84 28.68C220.16 27.76 219.40 27.36 218.36 27.36C216.32 27.36 214.76 29.28 214.76 31.88C214.76 34.44 216.28 36.28 218.36 36.28C219.48 36.28 220.28 35.80 220.84 34.72ZM218.72 28.32C219.44 28.32 220.16 28.84 220.48 29.68C220.72 30.24 220.84 30.96 220.84 31.84C220.84 33.96 219.96 35.28 218.68 35.28C217.40 35.28 216.68 34.12 216.68 32.12C216.68 31.04 216.76 30.24 217 29.64C217.32 28.84 218 28.32 218.72 28.32ZM230.52 27.36C228.32 27.36 226.60 29.32 226.60 31.84C226.60 34.32 228.32 36.28 230.48 36.28C232.64 36.28 234.40 34.28 234.40 31.80C234.40 29.32 232.64 27.36 230.52 27.36ZM230.52 28.12C231.80 28.12 232.48 29.44 232.48 31.80C232.48 34.20 231.76 35.48 230.48 35.48C229.20 35.48 228.52 34.20 228.52 31.84C228.52 29.40 229.16 28.12 230.52 28.12ZM240.72 27.60L237.32 27.80L237.32 28.60L238.24 28.60C238.92 28.60 239 28.72 239 29.48L239 33.80L239 34.64C239 34.92 239 35.04 238.92 35.12C238.80 35.28 238.44 35.36 237.68 35.36L237.56 35.36L237.56 36L242.20 36L242.20 35.36L242.08 35.36C240.88 35.32 240.72 35.20 240.72 34.56L240.72 33.80ZM239.88 23.12C239.32 23.12 238.80 23.60 238.80 24.16C238.80 24.72 239.28 25.20 239.84 25.20C240.44 25.20 240.92 24.72 240.92 24.16C240.92 23.60 240.44 23.12 239.88 23.12ZM248.60 27.60L245.48 27.80L245.48 28.60L246.12 28.60C246.80 28.60 246.92 28.72 246.92 29.48L246.92 33.80L246.92 34.20L246.92 34.64C246.92 34.92 246.88 35.04 246.80 35.12C246.68 35.28 246.32 35.36 245.56 35.36L245.48 35.36L245.48 36L250.04 36L250.04 35.36L249.96 35.36C248.76 35.32 248.60 35.20 248.60 34.56L248.60 33.80L248.60 31.92C248.60 31.04 248.72 30.20 248.92 29.80C249.28 29 250.12 28.44 250.88 28.44C251.36 28.44 251.88 28.72 252.16 29.08C252.44 29.48 252.56 30 252.56 30.88L252.56 33.80L252.56 34.64C252.56 34.92 252.52 35.04 252.44 35.12C252.32 35.28 251.96 35.36 251.20 35.36L251.12 35.36L251.12 36L255.68 36L255.68 35.36L255.60 35.36C254.40 35.32 254.24 35.20 254.24 34.56L254.24 33.80L254.24 30.96C254.24 29.68 254.20 29.32 253.88 28.72C253.44 27.84 252.52 27.36 251.44 27.36C250.28 27.36 249.40 27.88 248.60 29.08ZM261.52 34.68C260.52 34.68 260.48 34.64 260.28 34.52C260.16 34.44 260.04 34.24 260.04 34.04C260.04 33.48 260.56 33.28 261.76 33.24C263.44 33.20 263.72 33.16 264.32 32.88C265.40 32.40 266 31.48 266 30.28C266 29.56 265.84 29.12 265.36 28.52C265.68 28.20 265.80 28.08 265.96 28.08C266.04 28.08 266.08 28.12 266.12 28.32C266.20 28.76 266.52 29 266.96 29C267.44 29 267.76 28.60 267.76 28.12C267.76 27.52 267.28 27.08 266.56 27.08C266 27.08 265.68 27.28 264.84 28.04C264.08 27.52 263.48 27.36 262.60 27.36C260.44 27.36 259.08 28.52 259.08 30.32C259.08 31.40 259.64 32.32 260.56 32.76C259.36 33.04 258.88 33.56 258.88 34.56C258.88 35.36 259.24 35.80 260.08 36.08C258.96 36.48 258.40 37.08 258.40 37.80C258.40 38.36 258.80 38.84 259.36 39.16C260.08 39.52 260.92 39.64 262.20 39.64C265.20 39.64 266.72 38.68 266.72 36.80C266.72 35.92 266.28 35.20 265.64 34.92C265.16 34.76 264.60 34.68 263.36 34.68ZM262.60 28.12C263.72 28.12 264.32 28.88 264.32 30.28C264.32 31.68 263.64 32.56 262.52 32.56C261.40 32.56 260.72 31.72 260.72 30.36C260.72 28.92 261.40 28.12 262.60 28.12ZM262.44 36.20C263.92 36.20 264.04 36.20 264.28 36.24C265 36.32 265.44 36.72 265.44 37.28C265.44 38.32 264.28 38.92 262.28 38.92C260.76 38.92 259.92 38.44 259.92 37.64C259.92 37.04 260.20 36.64 261.08 36.20Z"/>
	</g>
</svg>