<svg xmlns="http://www.w3.org/2000/svg" xmlns:xlink="http://www.w3.org/1999/xlink" height="80" width="24" style="padding: 0px">
	<g transform="translate(0 0)">
		<path d="M13.52 36.64L13.52 35.36L-2.48 35.36L-2.48 36.64ZM3.48 64.40C6.68 64.40 10.64 61.44 10.64 58.40L10.64 40.44C12.60 41.68 14.96 45.20 15.96 47.52C16.44 48.60 16.72 50.44 16.72 52.32C16.72 53.76 16.52 55.28 15.96 56.72C15.92 56.88 15.88 57.04 15.88 57.20C15.88 57.68 16.20 58 16.40 58.12L16.44 58.16C16.72 58.16 17.12 58.04 17.28 57.52C17.28 57.52 18.12 54.48 18.12 51.96C18.12 47.96 16.44 44.20 14.44 41C12.80 38.48 11.44 35.84 10.96 32.76C10.84 32.24 10.60 32.08 10 32.08C9.84 32.08 9.68 32.12 9.68 32.36L9.68 56.24C9.04 55.68 8.16 55.40 7.12 55.40C3.16 55.40 0 58.32 0 61.40C0 63.28 1.52 64.40 3.48 64.40ZM0 51.48L0 52.52L24 52.52L24 51.48ZM24 28.52L24 27.48L0 27.48L0 28.52ZM24 36.52L24 35.48L0 35.48L0 36.52ZM0 43.48L0 44.52L24 44.52L24 43.48ZM24 20.52L24 19.48L0 19.48L0 20.52Z"/>
	</g>
</svg>