<svg xmlns="http://www.w3.org/2000/svg" xmlns:xlink="http://www.w3.org/1999/xlink" width="24" height="80" style="padding: 0px"><path d="M13.20 60.64L13.20 59.36L-2.56 59.36L-2.56 60.64ZM0 61C0 62.88 1.52 64 3.48 64C6.68 64 10.64 61.04 10.64 58L10.64 45.48C14.76 45.80 16.88 50.60 16.88 54.28C16.88 55.16 16.80 56.08 16.64 57.04C16.60 57.12 16.60 57.20 16.60 57.28C16.60 57.68 16.80 57.96 17.04 58C17.08 58.04 17.20 58.08 17.28 58.08C17.52 58.08 17.68 57.92 17.88 57.52C18 57.36 18.16 55.84 18.16 54.44C18.16 54.12 18.12 53.84 18.12 53.52C18.04 52.32 17.76 51.12 17.24 49.92C17.24 49.88 17.20 49.76 17.20 49.68C17.20 49.60 17.20 49.52 17.24 49.52C17.32 49.28 18 47.52 18 45.68C18 45.28 17.96 44.88 17.88 44.52C17.84 44.04 17.68 43.60 17.56 43.24C17.84 42.32 18.12 41.04 18.12 39.88C18.12 39.04 17.92 38.08 17.52 37.36C17.80 36.48 18.12 35.12 18.12 33.84C18.12 33.04 17.92 32.12 17.52 31.40C17.80 30.48 18.12 29.16 18.12 27.92C18.12 27.08 17.92 26.12 17.52 25.40C17.80 24.52 18.12 23.16 18.12 21.92C18.12 21.08 17.96 20.16 17.52 19.44C17.80 18.52 18.12 17.20 18.12 15.92C18.12 15.12 17.92 14.16 17.52 13.44C17.80 12.56 18.12 11.16 18.12 9.92C18.12 9.60 18.08 9.32 18.04 9.04C17.76 7.28 16.92 6.36 15.12 4.40L14.64 3.92C13.04 2.08 11.24 1.28 10.68-1.84C10.64-2.44 10.44-2.44 10.16-2.44C10.16-2.44 9.68-2.32 9.68-2.16L9.68 55.80C9.04 55.28 8.16 54.96 7.12 54.96C3.16 54.96 0 57.88 0 61ZM11.28 40.08L11.48 40.08C13.96 40.08 16.84 43.36 16.84 45.84C16.84 46.04 16.80 46.28 16.76 46.48C16.72 46.80 16.72 47.04 16.56 47.28C16.56 47.40 16.40 47.52 16.24 47.52C16.12 47.52 16.04 47.48 15.96 47.40C15.48 46.60 14.96 46 14.36 45.32C12.88 43.64 11.48 42.96 10.96 40.48C10.96 40.24 11.12 40.08 11.28 40.08ZM16.36 8.40C16.72 9.04 16.88 9.52 16.88 9.92C16.88 10.44 16.56 11.36 16.40 11.84C15.92 11.28 15.32 10.64 14.64 9.88C13.12 8.16 11.56 7.36 10.92 4.64C12.64 4.64 14.60 5.40 16.36 8.40ZM10.92 22.60C12.64 22.60 14.60 23.36 16.40 26.36C16.76 27 16.88 27.44 16.88 27.88C16.88 28.12 16.84 28.36 16.76 28.56L16.40 29.80L14.64 27.80C13.12 26.12 11.56 25.32 10.92 22.60ZM10.92 28.56C12.64 28.56 14.60 29.36 16.40 32.36C16.76 33 16.88 33.44 16.88 33.84C16.88 34.40 16.60 35.24 16.40 35.76C15.92 35.24 15.36 34.60 14.64 33.80C13.12 32.08 11.56 31.28 10.92 28.56ZM16.40 14.44C16.76 15.08 16.88 15.52 16.88 15.92C16.88 16.16 16.84 16.40 16.76 16.60L16.40 17.84L14.64 15.84C13.12 14.16 11.56 13.36 10.92 10.64C12.64 10.64 14.60 11.44 16.40 14.44ZM16.40 20.40C16.76 21.04 16.88 21.52 16.88 21.88C16.88 22.44 16.60 23.28 16.40 23.80C15.92 23.28 15.36 22.64 14.64 21.84C13.12 20.12 11.56 19.32 10.92 16.60C12.64 16.60 14.60 17.40 16.40 20.40ZM16.40 38.32C16.76 38.96 16.88 39.44 16.88 39.84C16.88 40.08 16.84 40.32 16.76 40.56L16.52 41.40C16.04 40.80 15.44 40.12 14.64 39.28C13.12 37.64 11.52 37.12 10.92 34.56C12.64 34.60 14.64 35.44 16.40 38.32ZM0 51.48L0 52.52L24 52.52L24 51.48ZM24 28.52L24 27.48L0 27.48L0 28.52ZM24 36.52L24 35.48L0 35.48L0 36.52ZM0 43.48L0 44.52L24 44.52L24 43.48ZM24 20.52L24 19.48L0 19.48L0 20.52Z"/></svg>