<svg xmlns="http://www.w3.org/2000/svg" xmlns:xlink="http://www.w3.org/1999/xlink" height="80" width="24" style="padding: 0px">
	<g transform="translate(0 0)">
		<path d="M13.52 36.64L13.52 35.36L-2.48 35.36L-2.48 36.64ZM3.48 64.40C6.68 64.40 10.64 61.44 10.64 58.40L10.64 45.48C12.28 45.60 14.16 46.16 15.92 49.84C16.64 51.28 16.92 52.72 16.92 54.28C16.92 55.16 16.84 56.08 16.68 57.04C16.64 57.12 16.64 57.20 16.64 57.28C16.64 57.68 16.84 57.96 17.04 58C17.12 58.04 17.20 58.08 17.32 58.08C17.52 58.08 17.72 57.92 17.92 57.52C18.16 57.20 18.16 53.96 18.16 53.52C18.08 52.32 17.80 51.12 17.28 49.92C17.28 49.88 17.24 49.76 17.24 49.68C17.24 49.60 17.24 49.52 17.28 49.52C17.36 49.28 18 47.52 18 45.68C18 45.28 18 44.88 17.92 44.52C17.84 44.04 17.72 43.60 17.60 43.24C17.84 42.32 18.16 41.04 18.16 39.88C18.16 39.56 18.12 39.24 18.08 38.96C17.96 38.36 17.80 37.84 17.56 37.36C17.84 36.48 18.16 35.12 18.16 33.84C18.16 33.52 18.12 33.24 18.08 32.96C17.96 32.40 17.80 31.88 17.56 31.40C17.84 30.48 18.16 29.16 18.16 27.92C18.16 27.60 18.12 27.28 18.08 27C17.96 26.40 17.80 25.88 17.56 25.40C17.84 24.52 18.16 23.16 18.16 21.92C18.16 21.08 17.92 20.20 17.56 19.44C17.84 18.52 18.16 17.20 18.16 15.92C18.16 15.60 18.12 15.32 18.08 15.04C17.80 13.28 16.96 12.36 15.16 10.44L14.64 9.88C13.04 8.08 11.24 7.28 10.68 4.16C10.64 3.60 10.44 3.60 10.16 3.60C10.16 3.60 9.68 3.68 9.68 3.88L9.68 56.24C9.04 55.68 8.16 55.40 7.12 55.40C3.16 55.40 0 58.32 0 61.40C0 63.28 1.52 64.40 3.48 64.40ZM11.32 40.08L11.52 40.08C14 40.08 16.88 43.36 16.88 45.84C16.88 46.12 16.72 47.04 16.60 47.28C16.56 47.40 16.40 47.52 16.24 47.52C16.16 47.52 16.08 47.48 16 47.40C15.52 46.60 15 46 14.40 45.32C12.92 43.68 11.52 42.96 10.96 40.48C10.96 40.28 11.08 40.08 11.32 40.08ZM10.96 28.56C12.68 28.56 14.64 29.36 16.40 32.36C16.80 33 16.88 33.44 16.88 33.84C16.88 34.12 16.88 34.32 16.80 34.56C16.72 34.84 16.56 35.32 16.40 35.76C15.96 35.24 15.36 34.60 14.64 33.84C13.16 32.08 11.60 31.28 10.96 28.56ZM16.40 20.40C16.80 21.04 16.88 21.52 16.88 21.88C16.88 22.16 16.88 22.36 16.80 22.60C16.72 22.88 16.56 23.36 16.40 23.80C15.96 23.28 15.36 22.64 14.64 21.84C13.16 20.12 11.60 19.32 10.96 16.60C12.68 16.60 14.64 17.40 16.40 20.40ZM10.96 22.60C12.68 22.60 14.64 23.40 16.40 26.40C16.80 27.04 16.88 27.48 16.88 27.88C16.88 28.12 16.88 28.36 16.80 28.56C16.72 28.88 16.56 29.36 16.40 29.80C15.96 29.24 15.36 28.60 14.64 27.84C13.16 26.12 11.60 25.32 10.96 22.60ZM16.40 14.44C16.76 15.08 16.88 15.56 16.88 15.92C16.88 16.20 16.88 16.40 16.80 16.60C16.72 16.88 16.56 17.36 16.40 17.84C15.96 17.28 15.36 16.64 14.64 15.88C13.16 14.16 11.60 13.36 10.96 10.64C12.68 10.64 14.64 11.44 16.40 14.44ZM10.96 34.56C12.64 34.60 14.64 35.44 16.40 38.32C16.76 38.96 16.88 39.44 16.88 39.84C16.88 40.08 16.88 40.32 16.80 40.56L16.56 41.40C16.08 40.80 15.44 40.12 14.64 39.28C13.12 37.64 11.56 37.12 10.96 34.56ZM0 51.48L0 52.52L24 52.52L24 51.48ZM24 28.52L24 27.48L0 27.48L0 28.52ZM24 36.52L24 35.48L0 35.48L0 36.52ZM0 43.48L0 44.52L24 44.52L24 43.48ZM24 20.52L24 19.48L0 19.48L0 20.52Z"/>
	</g>
</svg>