<svg xmlns="http://www.w3.org/2000/svg" xmlns:xlink="http://www.w3.org/1999/xlink" width="24" height="80" style="padding: 0px"><path d="M13.20 60.64L13.20 59.36L-2.56 59.36L-2.56 60.64ZM0 61.40C0 63.28 1.52 64.40 3.48 64.40C6.68 64.40 10.64 61.44 10.64 58.40L10.64 45.36C12.28 45.48 14.16 46.04 15.92 49.72C16.56 51.12 16.88 52.60 16.88 54.16C16.88 55.04 16.76 55.92 16.60 56.88C16.56 57 16.56 57.04 16.56 57.16C16.56 57.52 16.76 57.84 17 57.88C17.04 57.92 17.16 57.96 17.24 57.96C17.48 57.96 17.68 57.80 17.84 57.40C18 57.24 18.12 55.72 18.12 54.32C18.12 54 18.08 53.68 18.08 53.40C18 52.20 17.72 50.96 17.20 49.80L17.20 49.52L17.20 49.36C17.28 49.16 17.96 47.40 17.96 45.52C17.96 45.16 17.92 44.76 17.84 44.40C17.80 43.92 17.68 43.48 17.56 43.12C17.84 42.24 18.12 41.04 18.12 39.84C18.12 39.48 18.08 39.12 18 38.80C17.92 38.24 17.76 37.72 17.52 37.24C17.80 36.40 18.08 35.04 18.08 33.84C18.08 33.48 18.08 33.16 18 32.84C17.92 32.24 17.76 31.76 17.52 31.28C17.80 30.40 18.08 29.04 18.08 27.84C18.08 27.48 18.08 27.16 18 26.84C17.92 26.28 17.76 25.76 17.52 25.28C17.80 24.40 18.08 23.12 18.08 21.84C18.08 21.52 18.08 21.20 18 20.88C17.72 19.16 16.92 18.24 15.20 16.36L14.64 15.76C12.96 14 11.20 13.12 10.64 10C10.64 9.44 10.40 9.44 10.16 9.44C10.12 9.44 9.68 9.52 9.68 9.72L9.68 56.24C9.04 55.68 8.16 55.40 7.12 55.40C3.16 55.40 0 58.32 0 61.40ZM11.28 39.92L11.48 39.92C13.92 39.92 16.80 43.20 16.80 45.68C16.80 45.92 16.76 46.16 16.72 46.36C16.68 46.64 16.68 46.92 16.56 47.16C16.52 47.28 16.36 47.40 16.20 47.40C16.08 47.40 16 47.36 15.92 47.28C15.44 46.48 14.96 45.84 14.36 45.20C12.88 43.52 11.48 42.80 10.92 40.36C10.92 40.16 11.04 39.92 11.28 39.92ZM16.36 32.20C16.72 32.84 16.84 33.32 16.84 33.72C16.84 34 16.80 34.20 16.72 34.44C16.68 34.72 16.52 35.20 16.40 35.64L14.64 33.68C13.08 31.96 11.56 31.16 10.92 28.44C12.68 28.44 14.60 29.20 16.36 32.20ZM16.36 20.28C16.72 20.88 16.84 21.36 16.84 21.76C16.84 22 16.80 22.24 16.72 22.48C16.68 22.76 16.52 23.24 16.40 23.68L14.64 21.72C13.08 20 11.56 19.20 10.92 16.48C12.68 16.48 14.60 17.24 16.36 20.28ZM16.36 26.28C16.72 26.88 16.84 27.32 16.84 27.76C16.84 28 16.80 28.24 16.72 28.44C16.68 28.72 16.52 29.20 16.40 29.68L14.64 27.72C13.08 26 11.56 25.20 10.92 22.48C12.68 22.48 14.60 23.24 16.36 26.28ZM10.92 34.44C12.64 34.48 14.64 35.28 16.36 38.20C16.72 38.84 16.84 39.28 16.84 39.72C16.84 39.96 16.80 40.20 16.72 40.40C16.68 40.64 16.60 40.92 16.48 41.28C16.04 40.68 15.44 40 14.64 39.12C13.08 37.52 11.56 37 10.92 34.44ZM0 51.48L0 52.52L24 52.52L24 51.48ZM24 28.52L24 27.48L0 27.48L0 28.52ZM24 36.52L24 35.48L0 35.48L0 36.52ZM0 43.48L0 44.52L24 44.52L24 43.48ZM24 20.52L24 19.48L0 19.48L0 20.52Z"/></svg>