<svg xmlns="http://www.w3.org/2000/svg" xmlns:xlink="http://www.w3.org/1999/xlink" height="80" width="24" style="padding: 0px">
	<g transform="translate(0 0)">
		<path d="M13.20 60.64L13.20 59.36L-2.56 59.36L-2.56 60.64ZM3.48 64.40C6.64 64.40 10.60 61.44 10.60 58.40L10.60 45.60C12.24 45.72 14.08 46.28 15.84 49.84C16.56 51.28 16.84 52.72 16.84 54.24C16.84 55.12 16.72 56.04 16.56 56.96C16.56 57.36 16.60 58 17.16 58C17.36 58 17.56 57.84 17.80 57.52C18 57 18 54.12 18 53.56C17.92 52.32 17.64 51.12 17.16 49.96C17.12 49.88 17.12 49.84 17.12 49.72C17.12 49.68 17.12 49.60 17.16 49.52C17.20 49.32 17.88 47.56 17.88 45.72C17.88 45.36 17.84 45 17.80 44.60C17.68 43.88 17.48 43.28 17.20 42.76C17.52 41.92 17.84 40.60 17.84 39.36C17.84 39.04 17.84 38.76 17.80 38.48C17.44 36.52 16.72 35.64 14.56 33.32C12.96 31.60 11.24 31.08 10.68 27.88C10.64 27.60 10.24 27.28 10.04 27.28C9.84 27.28 9.68 27.64 9.68 27.64L9.68 56.24C9.04 55.68 8.12 55.40 7.12 55.40C3.16 55.40 0 58.32 0 61.40C0 63.28 1.52 64.40 3.48 64.40ZM16.32 37.84C16.68 38.48 16.80 38.96 16.80 39.36C16.80 39.60 16.72 39.80 16.72 40.04C16.64 40.36 16.48 40.88 16.32 41.44C15.88 40.88 15.28 40.24 14.56 39.44C13 37.72 11.44 37.20 10.92 34.08C12.68 34.08 14.56 34.84 16.32 37.84ZM10.88 40.60C10.88 40.56 11.12 40.24 11.28 40.20C13.84 40.20 16.72 43.24 16.72 45.84C16.72 46.12 16.72 46.36 16.68 46.64C16.60 46.88 16.60 47.12 16.52 47.36C16.48 47.44 16.32 47.56 16.16 47.56C16.08 47.56 15.96 47.52 15.92 47.44C15.44 46.72 15 46.16 14.48 45.52L14.32 45.36C12.92 43.76 11.52 43.08 10.88 40.60ZM0 51.48L0 52.52L24 52.52L24 51.48ZM24 28.52L24 27.48L0 27.48L0 28.52ZM24 36.52L24 35.48L0 35.48L0 36.52ZM0 43.48L0 44.52L24 44.52L24 43.48ZM24 20.52L24 19.48L0 19.48L0 20.52Z"/>
	</g>
</svg>