<svg xmlns="http://www.w3.org/2000/svg" xmlns:xlink="http://www.w3.org/1999/xlink" height="80" width="24" style="padding: 0px">
	<g transform="translate(0 0)">
		<path d="M13.52 36.64L13.52 35.36L-2.48 35.36L-2.48 36.64ZM0 61.40C0 63.28 1.52 64.40 3.48 64.40C6.64 64.40 10.60 61.44 10.60 58.40L10.60 45.56C12.24 45.68 14.08 46.24 15.84 49.84C16.56 51.24 16.84 52.68 16.84 54.20C16.84 55.12 16.72 56 16.56 56.92C16.56 57.24 16.56 57.80 16.96 57.92C17.04 57.96 17.08 58 17.16 58C17.36 58 17.56 57.84 17.80 57.48C18 56.96 18 54.08 18 53.52C17.92 52.28 17.64 51.08 17.16 49.92C17.12 49.84 17.12 49.80 17.12 49.68C17.12 49.64 17.12 49.56 17.16 49.52C17.20 49.28 17.88 47.52 17.88 45.68C17.88 45.32 17.84 44.96 17.80 44.56C17.68 43.84 17.48 43.28 17.20 42.72C17.52 41.88 17.84 40.56 17.84 39.32C17.84 38.32 17.64 37.40 17.16 36.52C17.44 35.72 17.84 34.32 17.84 32.96C17.84 32.68 17.84 32.40 17.80 32.08C17.44 30.16 16.72 29.28 14.56 26.96C12.96 25.20 11.24 24.72 10.68 21.52C10.64 21.20 10.24 20.88 10.04 20.88C9.84 20.88 9.68 21.28 9.68 21.28L9.68 56.24C9.04 55.68 8.12 55.40 7.12 55.40C3.16 55.40 0 58.32 0 61.40ZM10.92 27.72C12.72 27.72 14.56 28.52 16.32 31.44C16.68 32.08 16.80 32.56 16.80 33C16.80 33.24 16.72 33.44 16.72 33.68L16.28 35.24C15.84 34.68 15.28 34.08 14.56 33.28C12.96 31.56 11.48 31.04 10.96 27.84C10.96 27.80 10.96 27.76 10.92 27.72ZM10.92 34.04C12.68 34.04 14.56 34.80 16.32 37.80C16.68 38.44 16.80 38.92 16.80 39.32C16.80 39.60 16.72 39.76 16.72 40C16.64 40.32 16.48 40.88 16.32 41.40C15.88 40.84 15.28 40.24 14.56 39.44C13 37.68 11.44 37.16 10.92 34.04ZM11.28 40.16C13.88 40.16 16.72 43.24 16.72 45.84C16.72 46.08 16.72 46.32 16.68 46.60C16.60 46.84 16.60 47.12 16.52 47.32C16.48 47.44 16.32 47.52 16.16 47.52C16.08 47.52 15.96 47.48 15.92 47.40C15.44 46.68 15 46.16 14.48 45.52L14.32 45.36C12.92 43.72 11.52 43.04 10.88 40.56C10.88 40.56 11.12 40.20 11.28 40.16ZM0 51.48L0 52.52L24 52.52L24 51.48ZM24 28.52L24 27.48L0 27.48L0 28.52ZM24 36.52L24 35.48L0 35.48L0 36.52ZM0 43.48L0 44.52L24 44.52L24 43.48ZM24 20.52L24 19.48L0 19.48L0 20.52Z"/>
	</g>
</svg>