<svg xmlns="http://www.w3.org/2000/svg" xmlns:xlink="http://www.w3.org/1999/xlink" height="80" width="16" style="padding: 0px">
	<g transform="translate(0 0)">
		<path d="M13.20 12.64L13.20 11.36L-2.56 11.36L-2.56 12.64ZM0.96 36L0.96 11.64C1.60 12.20 2.48 12.52 3.48 12.52C6.68 12.52 10.64 9.52 10.64 6.48C10.64 4.68 9.20 3.48 7.12 3.48C3.16 3.48 0 6.40 0 9.52L0 36ZM16 20.52L16 19.48L0 19.48L0 20.52ZM16 28.52L16 27.48L0 27.48L0 28.52ZM0 51.48L0 52.52L16 52.52L16 51.48ZM16 36.52L16 35.48L0 35.48L0 36.52ZM0 43.48L0 44.52L16 44.52L16 43.48Z"/>
	</g>
</svg>