<svg xmlns="http://www.w3.org/2000/svg" xmlns:xlink="http://www.w3.org/1999/xlink" height="80" width="48" style="padding: 0px">
	<g transform="translate(0 0)">
		<path d="M5 26.80L5 39.48L6 39.48L6 26.80L11 33.52L11 30L5.52 22.48L0 30L0 33.52ZM16 20.52L16 19.48L0 19.48L0 20.52ZM16 28.52L16 27.48L0 27.48L0 28.52ZM0 51.48L0 52.52L16 52.52L16 51.48ZM16 36.52L16 35.48L0 35.48L0 36.52ZM0 43.48L0 44.52L16 44.52L16 43.48ZM13.96 56L13.96 31.64C14.60 32.20 15.48 32.52 16.48 32.52C19.68 32.52 23.64 29.52 23.64 26.48C23.64 24.68 22.20 23.48 20.12 23.48C16.16 23.48 13 26.40 13 29.52L13 56ZM32 20.52L32 19.48L16 19.48L16 20.52ZM32 28.52L32 27.48L16 27.48L16 28.52ZM16 51.48L16 52.52L32 52.52L32 51.48ZM32 36.52L32 35.48L16 35.48L16 36.52ZM16 43.48L16 44.52L32 44.52L32 43.48ZM31 32.52L30 32.52L30 44.72L26 37.68L26 41.52L30.52 49.52L31 49.52ZM40 20.52L40 19.48L32 19.48L32 20.52ZM40 28.52L40 27.48L32 27.48L32 28.52ZM32 51.48L32 52.52L40 52.52L40 51.48ZM40 36.52L40 35.48L32 35.48L32 36.52ZM32 43.48L32 44.52L40 44.52L40 43.48ZM36.48 48.52C39.68 48.52 43.64 45.52 43.64 42.48L43.64 16L42.68 16L42.68 40.32C42.04 39.76 41.16 39.48 40.12 39.48C36.16 39.48 33 42.40 33 45.52C33 47.40 34.52 48.52 36.48 48.52ZM48 20.52L48 19.48L40 19.48L40 20.52ZM48 28.52L48 27.48L40 27.48L40 28.52ZM40 51.48L40 52.52L48 52.52L48 51.48ZM48 36.52L48 35.48L40 35.48L40 36.52ZM40 43.48L40 44.52L48 44.52L48 43.48Z"/>
	</g>
</svg>