<svg xmlns="http://www.w3.org/2000/svg" xmlns:xlink="http://www.w3.org/1999/xlink" height="80" width="16" style="padding: 0px">
	<g transform="translate(0 0)">
		<path d="M17.52 36.64L17.52 35.36L-2.48 35.36L-2.48 36.64ZM3.28 55.80C3.28 55.92 3.40 56 3.60 56C8 56 11.60 54.20 11.60 52C11.60 49.80 8 48 3.60 48C3.40 48 3.28 48.08 3.28 48.20C3.28 48.32 3.40 48.44 3.60 48.56C4.56 49.28 5.20 50.56 5.20 52C5.20 53.44 4.56 54.68 3.60 55.40C3.40 55.56 3.28 55.68 3.28 55.80ZM5.68 54.48C6.16 54 6.44 53.04 6.44 52C6.44 50.96 6.16 50 5.72 49.48C5.64 49.36 5.56 49.28 5.56 49.20C5.56 49.12 5.64 49.04 5.72 49.04C7.72 49.04 9.32 50.36 9.32 52C9.32 53.60 7.72 54.96 5.72 54.96C5.64 54.96 5.56 54.88 5.56 54.80C5.56 54.68 5.64 54.60 5.68 54.48ZM1.84 56.72C1.84 56.88 1.96 56.96 2.16 56.96L2.52 56.96C2.68 56.96 2.84 56.88 2.84 56.72L2.84 47.28C2.84 47.16 2.68 47.04 2.52 47.04L2.16 47.04C1.96 47.04 1.84 47.16 1.84 47.28ZM13.68 56.72C13.68 56.88 13.84 56.96 14 56.96L14.40 56.96C14.56 56.96 14.72 56.88 14.72 56.72L14.72 47.28C14.72 47.16 14.56 47.04 14.40 47.04L14 47.04C13.84 47.04 13.68 47.16 13.68 47.28ZM12.16 56.96L12.56 56.96C12.72 56.96 12.88 56.88 12.88 56.72L12.88 47.28C12.88 47.16 12.72 47.04 12.56 47.04L12.16 47.04C11.96 47.04 11.88 47.16 11.88 47.28L11.88 56.72C11.88 56.88 11.96 56.96 12.16 56.96ZM0.28 56.96L0.72 56.96C0.88 56.96 1 56.88 1 56.72L1 47.28C1 47.16 0.88 47.04 0.72 47.04L0.28 47.04C0.08 47.04 0 47.16 0 47.28L0 56.72C0 56.88 0.08 56.96 0.28 56.96ZM16 20.52L16 19.48L0 19.48L0 20.52ZM16 28.52L16 27.48L0 27.48L0 28.52ZM0 51.48L0 52.52L16 52.52L16 51.48ZM16 36.52L16 35.48L0 35.48L0 36.52ZM0 43.48L0 44.52L16 44.52L16 43.48Z"/>
	</g>
</svg>