<svg xmlns="http://www.w3.org/2000/svg" xmlns:xlink="http://www.w3.org/1999/xlink" height="80" width="24" style="padding: 0px">
	<g transform="translate(0 0)">
		<path d="M5 10.80L5 23.48L6 23.48L6 10.80L11 17.52L11 14L5.52 6.48L0 14L0 17.52ZM16 20.52L16 19.48L0 19.48L0 20.52ZM16 28.52L16 27.48L0 27.48L0 28.52ZM0 51.48L0 52.52L16 52.52L16 51.48ZM16 36.52L16 35.48L0 35.48L0 36.52ZM0 43.48L0 44.52L16 44.52L16 43.48ZM26.52 36.64L26.52 35.36L10.52 35.36L10.52 36.64ZM13.96 40L13.96 15.64C14.60 16.20 15.48 16.52 16.48 16.52C19.68 16.52 23.64 13.52 23.64 10.48C23.64 8.68 22.20 7.48 20.12 7.48C16.16 7.48 13 10.40 13 13.52L13 40ZM24 20.52L24 19.48L16 19.48L16 20.52ZM24 28.52L24 27.48L16 27.48L16 28.52ZM16 51.48L16 52.52L24 52.52L24 51.48ZM24 36.52L24 35.48L16 35.48L16 36.52ZM16 43.48L16 44.52L24 44.52L24 43.48Z"/>
	</g>
</svg>