<svg xmlns="http://www.w3.org/2000/svg" xmlns:xlink="http://www.w3.org/1999/xlink" height="80" width="24" style="padding: 0px">
	<g transform="translate(0 0)">
		<path d="M19.60 12.64L19.60 11.36L-2.56 11.36L-2.56 12.64ZM3.12 11.96C3.12 14.24 5.12 16.36 10.28 16.36C15.96 16.36 17.80 14.36 17.80 11.96C17.80 9.48 13.88 7.60 10.64 7.60C6 7.60 3.12 9.56 3.12 11.96ZM6.96 9.80C7.36 8.60 8.64 8.44 9.72 8.44C12.08 8.44 14 10.96 14 13.08C14 14.80 13 15.56 11.40 15.56C11.08 15.56 10.80 15.52 10.48 15.44C8.56 14.84 6.88 12.64 6.88 10.60C6.88 10.32 6.92 10.04 6.96 9.80ZM19.80 17.16C19.80 17.28 20 17.36 20.16 17.36L20.60 17.36C20.80 17.36 20.96 17.28 20.96 17.16L20.96 6.80C20.96 6.68 20.80 6.56 20.60 6.56L20.16 6.56C20 6.56 19.80 6.68 19.80 6.80ZM17.84 17.16C17.84 17.28 18 17.36 18.16 17.36L18.64 17.36C18.80 17.36 18.96 17.28 18.96 17.16L18.96 6.80C18.96 6.68 18.80 6.56 18.64 6.56L18.16 6.56C18 6.56 17.84 6.68 17.84 6.80ZM0.32 17.36L0.76 17.36C0.96 17.36 1.08 17.28 1.08 17.16L1.08 6.80C1.08 6.68 0.96 6.56 0.76 6.56L0.32 6.56C0.12 6.56 0 6.68 0 6.80L0 17.16C0 17.28 0.12 17.36 0.32 17.36ZM2 6.80L2 17.16C2 17.28 2.16 17.36 2.32 17.36L2.80 17.36C2.96 17.36 3.12 17.28 3.12 17.16L3.12 6.80C3.12 6.68 2.96 6.56 2.80 6.56L2.32 6.56C2.16 6.56 2 6.68 2 6.80ZM0 51.48L0 52.52L24 52.52L24 51.48ZM24 28.52L24 27.48L0 27.48L0 28.52ZM24 36.52L24 35.48L0 35.48L0 36.52ZM0 43.48L0 44.52L24 44.52L24 43.48ZM24 20.52L24 19.48L0 19.48L0 20.52Z"/>
	</g>
</svg>