<svg xmlns="http://www.w3.org/2000/svg" xmlns:xlink="http://www.w3.org/1999/xlink" height="80" width="16" style="padding: 0px">
	<g transform="translate(0 0)">
		<path d="M13.52 36.64L13.52 35.36L-2.48 35.36L-2.48 36.64ZM13.52 36.64L13.52 35.36L-2.48 35.36L-2.48 36.64ZM3.48 72.52C6.68 72.52 10.64 69.52 10.64 66.48L10.64 40L9.68 40L9.68 64.32C9.04 63.76 8.16 63.48 7.12 63.48C3.16 63.48 0 66.40 0 69.52C0 71.40 1.52 72.52 3.48 72.52ZM16 20.52L16 19.48L0 19.48L0 20.52ZM16 28.52L16 27.48L0 27.48L0 28.52ZM0 51.48L0 52.52L16 52.52L16 51.48ZM16 36.52L16 35.48L0 35.48L0 36.52ZM0 43.48L0 44.52L16 44.52L16 43.48Z"/>
	</g>
</svg>