<svg xmlns="http://www.w3.org/2000/svg" xmlns:xlink="http://www.w3.org/1999/xlink" width="59" height="80" style="padding: 0px"><path d="M11.64 52.08C12.40 52.08 13.20 52 13.84 51.88C14.20 51.80 14.28 51.76 14.32 52.16C14.72 54.32 15.20 57.08 15.20 58.60C15.20 63.32 12 63.92 10.12 63.92C8.40 63.92 7.56 63.40 7.56 62.96C7.56 62.76 7.84 62.64 8.56 62.44C9.56 62.16 10.72 61.28 10.72 59.44C10.72 57.68 9.60 56.16 7.64 56.16C5.52 56.16 4.24 57.84 4.24 59.84C4.24 61.92 5.48 65.04 10.32 65.04C12.44 65.04 16.60 64.08 16.60 58.64C16.60 56.84 16.04 53.80 15.68 51.80C15.60 51.44 15.64 51.44 16.08 51.28C19.32 50 21.48 47.28 21.48 43.64C21.48 39.56 18.48 35.92 13.76 35.92C12.92 35.92 12.92 35.92 12.84 35.36L12.04 30.72C11.96 30.32 12.04 30.32 12.24 30.12C15.68 26.68 18.32 23.04 18.32 17.92C18.32 15.12 17.52 12.40 16.24 10.48C15.76 9.76 14.92 8.88 14.56 8.88C14.12 8.88 13.12 9.68 12.48 10.40C10.12 13.04 9.36 17.04 9.36 20.36C9.36 22.20 9.56 24.28 9.80 25.60C9.84 26 9.88 26.04 9.52 26.36C4.92 30.16 0 34.76 0 41.20C0 46.80 3.80 52.08 11.64 52.08ZM2.56 43.36C2.56 37.96 6.52 34.48 10.44 31.40C10.76 31.12 10.80 31.16 10.88 31.52L11.56 35.60C11.64 36.24 11.64 36.20 11.08 36.40C8.24 37.36 6.44 39.88 6.44 42.60C6.44 45.48 7.92 47.52 10.12 48.24C10.36 48.36 10.76 48.44 10.96 48.44C11.24 48.44 11.36 48.28 11.36 48.08C11.36 47.88 11.12 47.76 10.88 47.68C9.52 47.12 8.56 45.72 8.56 44.24C8.56 42.44 9.84 41.04 11.76 40.52C12.28 40.40 12.36 40.40 12.40 40.76L14 50.32C14.08 50.64 14.04 50.64 13.56 50.76C13.04 50.84 12.40 50.92 11.76 50.92C6.16 50.92 2.56 47.80 2.56 43.36ZM15.04 13.84C16.08 13.84 16.96 14.68 16.96 16.44C16.96 20.04 13.92 22.84 11.40 25.08C11.16 25.28 11.04 25.24 10.96 24.84C10.84 24 10.80 22.92 10.80 21.88C10.80 16.88 13.08 13.84 15.04 13.84ZM14.12 40.24C16.72 40.48 18.84 42.64 18.84 45.48C18.84 47.48 17.64 49.12 15.84 50C15.44 50.20 15.40 50.20 15.32 49.84L13.76 40.72C13.68 40.32 13.72 40.24 14.12 40.24ZM24.80 34.48C24.80 34.72 24.72 35.12 24.60 35.60C24.52 36.08 24.44 36.52 24.44 36.92C24.44 38.56 25.88 39.72 27.40 39.92L27.40 39.64C26.12 39.32 25.60 38.64 25.60 37.84C25.60 37.52 25.64 37.12 25.80 36.64C25.92 36.12 25.96 35.68 25.96 35.36C25.96 34.28 25.16 33.20 23.64 32.68C25.16 32.12 25.96 30.96 25.96 29.96C25.96 29.60 25.92 29.16 25.80 28.68C25.64 28.16 25.60 27.76 25.60 27.44C25.60 26.64 26.12 25.96 27.40 25.64L27.40 25.36C26.52 25.48 25.80 25.84 25.24 26.40C24.72 27 24.44 27.68 24.44 28.40C24.44 28.76 24.52 29.20 24.60 29.68C24.72 30.16 24.80 30.56 24.80 30.80C24.80 31.60 24.16 32.36 23 32.48L23 32.80C24.16 32.92 24.80 33.68 24.80 34.48ZM29.96 64L29.96 39.64C30.60 40.20 31.48 40.52 32.48 40.52C35.68 40.52 39.64 37.52 39.64 34.48C39.64 32.68 38.20 31.48 36.12 31.48C32.16 31.48 29 34.40 29 37.52L29 64ZM42 39.64L42 39.92C43.52 39.72 44.96 38.52 44.96 36.92C44.96 36.52 44.88 36.08 44.80 35.60C44.64 35.12 44.60 34.72 44.60 34.48C44.60 33.68 45.24 32.92 46.40 32.80L46.40 32.48C45.24 32.36 44.60 31.60 44.60 30.80C44.60 30.56 44.64 30.16 44.80 29.68C44.88 29.20 44.96 28.76 44.96 28.40C44.96 27.68 44.64 27 44.16 26.40C43.56 25.84 42.88 25.48 42 25.36L42 25.64C43.28 25.96 43.80 26.64 43.80 27.44C43.80 27.76 43.72 28.16 43.60 28.68C43.48 29.16 43.40 29.60 43.40 29.96C43.40 30.96 44.20 32.12 45.76 32.68C44.20 33.20 43.40 34.28 43.40 35.36C43.40 35.68 43.48 36.12 43.60 36.64C43.72 37.12 43.80 37.52 43.80 37.84C43.80 38.64 43.28 39.32 42 39.64ZM48.96 64L48.96 39.64C49.60 40.20 50.48 40.52 51.48 40.52C54.68 40.52 58.64 37.52 58.64 34.48C58.64 32.68 57.20 31.48 55.12 31.48C51.16 31.48 48 34.40 48 37.52L48 64Z"/></svg>