<svg xmlns="http://www.w3.org/2000/svg" xmlns:xlink="http://www.w3.org/1999/xlink" height="640" width="112" style="padding: 0px">
	<g transform="translate(0 0)">
		<path d="M0.96 64L0.96 39.64C1.60 40.20 2.48 40.52 3.48 40.52C6.68 40.52 10.64 37.52 10.64 34.48C10.64 32.68 9.20 31.48 7.12 31.48C3.16 31.48 0 34.40 0 37.52L0 64ZM16 20.52L16 19.48L0 19.48L0 20.52ZM16 28.52L16 27.48L0 27.48L0 28.52ZM0 51.48L0 52.52L16 52.52L16 51.48ZM16 36.52L16 35.48L0 35.48L0 36.52ZM0 43.48L0 44.52L16 44.52L16 43.48ZM16.16 52L16.16 20L15 20L15 52Z"/>
	</g>
	<g transform="translate(0 80)">
		<path d="M0.96 64L0.96 39.64C1.60 40.20 2.48 40.52 3.48 40.52C6.68 40.52 10.64 37.52 10.64 34.48C10.64 32.68 9.20 31.48 7.12 31.48C3.16 31.48 0 34.40 0 37.52L0 64ZM16 20.52L16 19.48L0 19.48L0 20.52ZM16 28.52L16 27.48L0 27.48L0 28.52ZM0 51.48L0 52.52L16 52.52L16 51.48ZM16 36.52L16 35.48L0 35.48L0 36.52ZM0 43.48L0 44.52L16 44.52L16 43.48ZM13.96 64L13.96 39.64C14.60 40.20 15.48 40.52 16.48 40.52C19.68 40.52 23.64 37.52 23.64 34.48C23.64 32.68 22.20 31.48 20.12 31.48C16.16 31.48 13 34.40 13 37.52L13 64ZM32 20.52L32 19.48L16 19.48L16 20.52ZM32 28.52L32 27.48L16 27.48L16 28.52ZM16 51.48L16 52.52L32 52.52L32 51.48ZM32 36.52L32 35.48L16 35.48L16 36.52ZM16 43.48L16 44.52L32 44.52L32 43.48ZM32.16 52L32.16 20L31 20L31 52Z"/>
	</g>
	<g transform="translate(0 160)">
		<path d="M0.96 64L0.96 39.64C1.60 40.20 2.48 40.52 3.48 40.52C6.68 40.52 10.64 37.52 10.64 34.48C10.64 32.68 9.20 31.48 7.12 31.48C3.16 31.48 0 34.40 0 37.52L0 64ZM16 20.52L16 19.48L0 19.48L0 20.52ZM16 28.52L16 27.48L0 27.48L0 28.52ZM0 51.48L0 52.52L16 52.52L16 51.48ZM16 36.52L16 35.48L0 35.48L0 36.52ZM0 43.48L0 44.52L16 44.52L16 43.48ZM13.96 64L13.96 39.64C14.60 40.20 15.48 40.52 16.48 40.52C19.68 40.52 23.64 37.52 23.64 34.48C23.64 32.68 22.20 31.48 20.12 31.48C16.16 31.48 13 34.40 13 37.52L13 64ZM32 20.52L32 19.48L16 19.48L16 20.52ZM32 28.52L32 27.48L16 27.48L16 28.52ZM16 51.48L16 52.52L32 52.52L32 51.48ZM32 36.52L32 35.48L16 35.48L16 36.52ZM16 43.48L16 44.52L32 44.52L32 43.48ZM26.96 64L26.96 39.64C27.60 40.20 28.48 40.52 29.48 40.52C32.68 40.52 36.64 37.52 36.64 34.48C36.64 32.68 35.20 31.48 33.12 31.48C29.16 31.48 26 34.40 26 37.52L26 64ZM40 20.52L40 19.48L32 19.48L32 20.52ZM40 28.52L40 27.48L32 27.48L32 28.52ZM32 51.48L32 52.52L40 52.52L40 51.48ZM40 36.52L40 35.48L32 35.48L32 36.52ZM32 43.48L32 44.52L40 44.52L40 43.48ZM40.16 52L40.16 20L39 20L39 52Z"/>
	</g>
	<g transform="translate(0 240)">
		<path d="M0.96 64L0.96 39.64C1.60 40.20 2.48 40.52 3.48 40.52C6.68 40.52 10.64 37.52 10.64 34.48C10.64 32.68 9.20 31.48 7.12 31.48C3.16 31.48 0 34.40 0 37.52L0 64ZM16 20.52L16 19.48L0 19.48L0 20.52ZM16 28.52L16 27.48L0 27.48L0 28.52ZM0 51.48L0 52.52L16 52.52L16 51.48ZM16 36.52L16 35.48L0 35.48L0 36.52ZM0 43.48L0 44.52L16 44.52L16 43.48ZM13.96 64L13.96 39.64C14.60 40.20 15.48 40.52 16.48 40.52C19.68 40.52 23.64 37.52 23.64 34.48C23.64 32.68 22.20 31.48 20.12 31.48C16.16 31.48 13 34.40 13 37.52L13 64ZM32 20.52L32 19.48L16 19.48L16 20.52ZM32 28.52L32 27.48L16 27.48L16 28.52ZM16 51.48L16 52.52L32 52.52L32 51.48ZM32 36.52L32 35.48L16 35.48L16 36.52ZM16 43.48L16 44.52L32 44.52L32 43.48ZM26.96 64L26.96 39.64C27.60 40.20 28.48 40.52 29.48 40.52C32.68 40.52 36.64 37.52 36.64 34.48C36.64 32.68 35.20 31.48 33.12 31.48C29.16 31.48 26 34.40 26 37.52L26 64ZM40 20.52L40 19.48L32 19.48L32 20.52ZM40 28.52L40 27.48L32 27.48L32 28.52ZM32 51.48L32 52.52L40 52.52L40 51.48ZM40 36.52L40 35.48L32 35.48L32 36.52ZM32 43.48L32 44.52L40 44.52L40 43.48ZM39.96 64L39.96 39.64C40.60 40.20 41.48 40.52 42.48 40.52C45.68 40.52 49.64 37.52 49.64 34.48C49.64 32.68 48.20 31.48 46.12 31.48C42.16 31.48 39 34.40 39 37.52L39 64ZM56 20.52L56 19.48L40 19.48L40 20.52ZM56 28.52L56 27.48L40 27.48L40 28.52ZM40 51.48L40 52.52L56 52.52L56 51.48ZM56 36.52L56 35.48L40 35.48L40 36.52ZM40 43.48L40 44.52L56 44.52L56 43.48ZM56.16 52L56.16 20L55 20L55 52Z"/>
	</g>
	<g transform="translate(0 320)">
		<path d="M0.96 64L0.96 39.64C1.60 40.20 2.48 40.52 3.48 40.52C6.68 40.52 10.64 37.52 10.64 34.48C10.64 32.68 9.20 31.48 7.12 31.48C3.16 31.48 0 34.40 0 37.52L0 64ZM16 20.52L16 19.48L0 19.48L0 20.52ZM16 28.52L16 27.48L0 27.48L0 28.52ZM0 51.48L0 52.52L16 52.52L16 51.48ZM16 36.52L16 35.48L0 35.48L0 36.52ZM0 43.48L0 44.52L16 44.52L16 43.48ZM13.96 64L13.96 39.64C14.60 40.20 15.48 40.52 16.48 40.52C19.68 40.52 23.64 37.52 23.64 34.48C23.64 32.68 22.20 31.48 20.12 31.48C16.16 31.48 13 34.40 13 37.52L13 64ZM32 20.52L32 19.48L16 19.48L16 20.52ZM32 28.52L32 27.48L16 27.48L16 28.52ZM16 51.48L16 52.52L32 52.52L32 51.48ZM32 36.52L32 35.48L16 35.48L16 36.52ZM16 43.48L16 44.52L32 44.52L32 43.48ZM26.96 64L26.96 39.64C27.60 40.20 28.48 40.52 29.48 40.52C32.68 40.52 36.64 37.52 36.64 34.48C36.64 32.68 35.20 31.48 33.12 31.48C29.16 31.48 26 34.40 26 37.52L26 64ZM40 20.52L40 19.48L32 19.48L32 20.52ZM40 28.52L40 27.48L32 27.48L32 28.52ZM32 51.48L32 52.52L40 52.52L40 51.48ZM40 36.52L40 35.48L32 35.48L32 36.52ZM32 43.48L32 44.52L40 44.52L40 43.48ZM39.96 64L39.96 39.64C40.60 40.20 41.48 40.52 42.48 40.52C45.68 40.52 49.64 37.52 49.64 34.48C49.64 32.68 48.20 31.48 46.12 31.48C42.16 31.48 39 34.40 39 37.52L39 64ZM56 20.52L56 19.48L40 19.48L40 20.52ZM56 28.52L56 27.48L40 27.48L40 28.52ZM40 51.48L40 52.52L56 52.52L56 51.48ZM56 36.52L56 35.48L40 35.48L40 36.52ZM40 43.48L40 44.52L56 44.52L56 43.48ZM52.96 64L52.96 39.64C53.60 40.20 54.48 40.52 55.48 40.52C58.68 40.52 62.64 37.52 62.64 34.48C62.64 32.68 61.20 31.48 59.12 31.48C55.16 31.48 52 34.40 52 37.52L52 64ZM72 20.52L72 19.48L56 19.48L56 20.52ZM72 28.52L72 27.48L56 27.48L56 28.52ZM56 51.48L56 52.52L72 52.52L72 51.48ZM72 36.52L72 35.48L56 35.48L56 36.52ZM56 43.48L56 44.52L72 44.52L72 43.48ZM72.16 52L72.16 20L71 20L71 52Z"/>
	</g>
	<g transform="translate(0 400)">
		<path d="M0.96 64L0.96 39.64C1.60 40.20 2.48 40.52 3.48 40.52C6.68 40.52 10.64 37.52 10.64 34.48C10.64 32.68 9.20 31.48 7.12 31.48C3.16 31.48 0 34.40 0 37.52L0 64ZM16 20.52L16 19.48L0 19.48L0 20.52ZM16 28.52L16 27.48L0 27.48L0 28.52ZM0 51.48L0 52.52L16 52.52L16 51.48ZM16 36.52L16 35.48L0 35.48L0 36.52ZM0 43.48L0 44.52L16 44.52L16 43.48ZM13.96 64L13.96 39.64C14.60 40.20 15.48 40.52 16.48 40.52C19.68 40.52 23.64 37.52 23.64 34.48C23.64 32.68 22.20 31.48 20.12 31.48C16.16 31.48 13 34.40 13 37.52L13 64ZM32 20.52L32 19.48L16 19.48L16 20.52ZM32 28.52L32 27.48L16 27.48L16 28.52ZM16 51.48L16 52.52L32 52.52L32 51.48ZM32 36.52L32 35.48L16 35.48L16 36.52ZM16 43.48L16 44.52L32 44.52L32 43.48ZM26.96 64L26.96 39.64C27.60 40.20 28.48 40.52 29.48 40.52C32.68 40.52 36.64 37.52 36.64 34.48C36.64 32.68 35.20 31.48 33.12 31.48C29.16 31.48 26 34.40 26 37.52L26 64ZM40 20.52L40 19.48L32 19.48L32 20.52ZM40 28.52L40 27.48L32 27.48L32 28.52ZM32 51.48L32 52.52L40 52.52L40 51.48ZM40 36.52L40 35.48L32 35.48L32 36.52ZM32 43.48L32 44.52L40 44.52L40 43.48ZM39.96 64L39.96 39.64C40.60 40.20 41.48 40.52 42.48 40.52C45.68 40.52 49.64 37.52 49.64 34.48C49.64 32.68 48.20 31.48 46.12 31.48C42.16 31.48 39 34.40 39 37.52L39 64ZM56 20.52L56 19.48L40 19.48L40 20.52ZM56 28.52L56 27.48L40 27.48L40 28.52ZM40 51.48L40 52.52L56 52.52L56 51.48ZM56 36.52L56 35.48L40 35.48L40 36.52ZM40 43.48L40 44.52L56 44.52L56 43.48ZM52.96 64L52.96 39.64C53.60 40.20 54.48 40.52 55.48 40.52C58.68 40.52 62.64 37.52 62.64 34.48C62.64 32.68 61.20 31.48 59.12 31.48C55.16 31.48 52 34.40 52 37.52L52 64ZM72 20.52L72 19.48L56 19.48L56 20.52ZM72 28.52L72 27.48L56 27.48L56 28.52ZM56 51.48L56 52.52L72 52.52L72 51.48ZM72 36.52L72 35.48L56 35.48L56 36.52ZM56 43.48L56 44.52L72 44.52L72 43.48ZM65.96 64L65.96 39.64C66.60 40.20 67.48 40.52 68.48 40.52C71.68 40.52 75.64 37.52 75.64 34.48C75.64 32.68 74.20 31.48 72.12 31.48C68.16 31.48 65 34.40 65 37.52L65 64ZM80 20.52L80 19.48L72 19.48L72 20.52ZM80 28.52L80 27.48L72 27.48L72 28.52ZM72 51.48L72 52.52L80 52.52L80 51.48ZM80 36.52L80 35.48L72 35.48L72 36.52ZM72 43.48L72 44.52L80 44.52L80 43.48ZM80.16 52L80.16 20L79 20L79 52Z"/>
	</g>
	<g transform="translate(0 480)">
		<path d="M0.96 64L0.96 39.64C1.60 40.20 2.48 40.52 3.48 40.52C6.68 40.52 10.64 37.52 10.64 34.48C10.64 32.68 9.20 31.48 7.12 31.48C3.16 31.48 0 34.40 0 37.52L0 64ZM16 20.52L16 19.48L0 19.48L0 20.52ZM16 28.52L16 27.48L0 27.48L0 28.52ZM0 51.48L0 52.52L16 52.52L16 51.48ZM16 36.52L16 35.48L0 35.48L0 36.52ZM0 43.48L0 44.52L16 44.52L16 43.48ZM13.96 64L13.96 39.64C14.60 40.20 15.48 40.52 16.48 40.52C19.68 40.52 23.64 37.52 23.64 34.48C23.64 32.68 22.20 31.48 20.12 31.48C16.16 31.48 13 34.40 13 37.52L13 64ZM32 20.52L32 19.48L16 19.48L16 20.52ZM32 28.52L32 27.48L16 27.48L16 28.52ZM16 51.48L16 52.52L32 52.52L32 51.48ZM32 36.52L32 35.48L16 35.48L16 36.52ZM16 43.48L16 44.52L32 44.52L32 43.48ZM26.96 64L26.96 39.64C27.60 40.20 28.48 40.52 29.48 40.52C32.68 40.52 36.64 37.52 36.64 34.48C36.64 32.68 35.20 31.48 33.12 31.48C29.16 31.48 26 34.40 26 37.52L26 64ZM40 20.52L40 19.48L32 19.48L32 20.52ZM40 28.52L40 27.48L32 27.48L32 28.52ZM32 51.48L32 52.52L40 52.52L40 51.48ZM40 36.52L40 35.48L32 35.48L32 36.52ZM32 43.48L32 44.52L40 44.52L40 43.48ZM39.96 64L39.96 39.64C40.60 40.20 41.48 40.52 42.48 40.52C45.68 40.52 49.64 37.52 49.64 34.48C49.64 32.68 48.20 31.48 46.12 31.48C42.16 31.48 39 34.40 39 37.52L39 64ZM56 20.52L56 19.48L40 19.48L40 20.52ZM56 28.52L56 27.48L40 27.48L40 28.52ZM40 51.48L40 52.52L56 52.52L56 51.48ZM56 36.52L56 35.48L40 35.48L40 36.52ZM40 43.48L40 44.52L56 44.52L56 43.48ZM52.96 64L52.96 39.64C53.60 40.20 54.48 40.52 55.48 40.52C58.68 40.52 62.64 37.52 62.64 34.48C62.64 32.68 61.20 31.48 59.12 31.48C55.16 31.48 52 34.40 52 37.52L52 64ZM72 20.52L72 19.48L56 19.48L56 20.52ZM72 28.52L72 27.48L56 27.48L56 28.52ZM56 51.48L56 52.52L72 52.52L72 51.48ZM72 36.52L72 35.48L56 35.48L56 36.52ZM56 43.48L56 44.52L72 44.52L72 43.48ZM65.96 64L65.96 39.64C66.60 40.20 67.48 40.52 68.48 40.52C71.68 40.52 75.64 37.52 75.64 34.48C75.64 32.68 74.20 31.48 72.12 31.48C68.16 31.48 65 34.40 65 37.52L65 64ZM80 20.52L80 19.48L72 19.48L72 20.52ZM80 28.52L80 27.48L72 27.48L72 28.52ZM72 51.48L72 52.52L80 52.52L80 51.48ZM80 36.52L80 35.48L72 35.48L72 36.52ZM72 43.48L72 44.52L80 44.52L80 43.48ZM78.96 64L78.96 39.64C79.60 40.20 80.48 40.52 81.48 40.52C84.68 40.52 88.64 37.52 88.64 34.48C88.64 32.68 87.20 31.48 85.12 31.48C81.16 31.48 78 34.40 78 37.52L78 64ZM96 20.52L96 19.48L80 19.48L80 20.52ZM96 28.52L96 27.48L80 27.48L80 28.52ZM80 51.48L80 52.52L96 52.52L96 51.48ZM96 36.52L96 35.48L80 35.48L80 36.52ZM80 43.48L80 44.52L96 44.52L96 43.48ZM96.16 52L96.16 20L95 20L95 52Z"/>
	</g>
	<g transform="translate(0 560)">
		<path d="M0.96 64L0.96 39.64C1.60 40.20 2.48 40.52 3.48 40.52C6.68 40.52 10.64 37.52 10.64 34.48C10.64 32.68 9.20 31.48 7.12 31.48C3.16 31.48 0 34.40 0 37.52L0 64ZM16 20.52L16 19.48L0 19.48L0 20.52ZM16 28.52L16 27.48L0 27.48L0 28.52ZM0 51.48L0 52.52L16 52.52L16 51.48ZM16 36.52L16 35.48L0 35.48L0 36.52ZM0 43.48L0 44.52L16 44.52L16 43.48ZM13.96 64L13.96 39.64C14.60 40.20 15.48 40.52 16.48 40.52C19.68 40.52 23.64 37.52 23.64 34.48C23.64 32.68 22.20 31.48 20.12 31.48C16.16 31.48 13 34.40 13 37.52L13 64ZM32 20.52L32 19.48L16 19.48L16 20.52ZM32 28.52L32 27.48L16 27.48L16 28.52ZM16 51.48L16 52.52L32 52.52L32 51.48ZM32 36.52L32 35.48L16 35.48L16 36.52ZM16 43.48L16 44.52L32 44.52L32 43.48ZM26.96 64L26.96 39.64C27.60 40.20 28.48 40.52 29.48 40.52C32.68 40.52 36.64 37.52 36.64 34.48C36.64 32.68 35.20 31.48 33.12 31.48C29.16 31.48 26 34.40 26 37.52L26 64ZM40 20.52L40 19.48L32 19.48L32 20.52ZM40 28.52L40 27.48L32 27.48L32 28.52ZM32 51.48L32 52.52L40 52.52L40 51.48ZM40 36.52L40 35.48L32 35.48L32 36.52ZM32 43.48L32 44.52L40 44.52L40 43.48ZM39.96 64L39.96 39.64C40.60 40.20 41.48 40.52 42.48 40.52C45.68 40.52 49.64 37.52 49.64 34.48C49.64 32.68 48.20 31.48 46.12 31.48C42.16 31.48 39 34.40 39 37.52L39 64ZM56 20.52L56 19.48L40 19.48L40 20.52ZM56 28.52L56 27.48L40 27.48L40 28.52ZM40 51.48L40 52.52L56 52.52L56 51.48ZM56 36.52L56 35.48L40 35.48L40 36.52ZM40 43.48L40 44.52L56 44.52L56 43.48ZM52.96 64L52.96 39.64C53.60 40.20 54.48 40.52 55.48 40.52C58.68 40.52 62.64 37.52 62.64 34.48C62.64 32.68 61.20 31.48 59.12 31.48C55.16 31.48 52 34.40 52 37.52L52 64ZM72 20.52L72 19.48L56 19.48L56 20.52ZM72 28.52L72 27.48L56 27.48L56 28.52ZM56 51.48L56 52.52L72 52.52L72 51.48ZM72 36.52L72 35.48L56 35.48L56 36.52ZM56 43.48L56 44.52L72 44.52L72 43.48ZM65.96 64L65.96 39.64C66.60 40.20 67.48 40.52 68.48 40.52C71.68 40.52 75.64 37.52 75.64 34.48C75.64 32.68 74.20 31.48 72.12 31.48C68.16 31.48 65 34.40 65 37.52L65 64ZM80 20.52L80 19.48L72 19.48L72 20.52ZM80 28.52L80 27.48L72 27.48L72 28.52ZM72 51.48L72 52.52L80 52.52L80 51.48ZM80 36.52L80 35.48L72 35.48L72 36.52ZM72 43.48L72 44.52L80 44.52L80 43.48ZM78.96 64L78.96 39.64C79.60 40.20 80.48 40.52 81.48 40.52C84.68 40.52 88.64 37.52 88.64 34.48C88.64 32.68 87.20 31.48 85.12 31.48C81.16 31.48 78 34.40 78 37.52L78 64ZM96 20.52L96 19.48L80 19.48L80 20.52ZM96 28.52L96 27.48L80 27.48L80 28.52ZM80 51.48L80 52.52L96 52.52L96 51.48ZM96 36.52L96 35.48L80 35.48L80 36.52ZM80 43.48L80 44.52L96 44.52L96 43.48ZM91.96 64L91.96 39.64C92.60 40.20 93.48 40.52 94.48 40.52C97.68 40.52 101.64 37.52 101.64 34.48C101.64 32.68 100.20 31.48 98.12 31.48C94.16 31.48 91 34.40 91 37.52L91 64ZM104 20.52L104 19.48L96 19.48L96 20.52ZM104 28.52L104 27.48L96 27.48L96 28.52ZM96 51.48L96 52.52L104 52.52L104 51.48ZM104 36.52L104 35.48L96 35.48L96 36.52ZM96 43.48L96 44.52L104 44.52L104 43.48ZM112 20.52L112 19.48L104 19.48L104 20.52ZM112 28.52L112 27.48L104 27.48L104 28.52ZM104 51.48L104 52.52L112 52.52L112 51.48ZM112 36.52L112 35.48L104 35.48L104 36.52ZM104 43.48L104 44.52L112 44.52L112 43.48ZM112.16 52L112.16 20L111 20L111 52Z"/>
	</g>
</svg>