<svg xmlns="http://www.w3.org/2000/svg" xmlns:xlink="http://www.w3.org/1999/xlink" width="48" height="80" style="padding: 0px"><path d="M5 26.80L5 39.48L6 39.48L6 26.80L11 33.52L11 30L5.52 22.48L0 30L0 33.52ZM16 20.52L16 19.48L0 19.48L0 20.52ZM16 28.52L16 27.48L0 27.48L0 28.52ZM0 51.48L0 52.52L16 52.52L16 51.48ZM16 36.52L16 35.48L0 35.48L0 36.52ZM0 43.48L0 44.52L16 44.52L16 43.48ZM14.96 56L14.96 31.64C15.60 32.20 16.48 32.52 17.48 32.52C20.68 32.52 24.64 29.52 24.64 26.48C24.64 24.68 23.20 23.48 21.12 23.48C17.16 23.48 14 26.40 14 29.52L14 56ZM32 20.52L32 19.48L16 19.48L16 20.52ZM32 28.52L32 27.48L16 27.48L16 28.52ZM16 51.48L16 52.52L32 52.52L32 51.48ZM32 36.52L32 35.48L16 35.48L16 36.52ZM16 43.48L16 44.52L32 44.52L32 43.48ZM48 20.52L48 19.48L32 19.48L32 20.52ZM48 28.52L48 27.48L32 27.48L32 28.52ZM32 51.48L32 52.52L48 52.52L48 51.48ZM48 36.52L48 35.48L32 35.48L32 36.52ZM32 43.48L32 44.52L48 44.52L48 43.48Z"/></svg>