<svg xmlns="http://www.w3.org/2000/svg" xmlns:xlink="http://www.w3.org/1999/xlink" width="611.16" height="80" style="padding: 0px"><path d="M0.96 64L0.96 39.64C1.60 40.20 2.48 40.52 3.48 40.52C6.68 40.52 10.64 37.52 10.64 34.48C10.64 32.68 9.20 31.48 7.12 31.48C3.16 31.48 0 34.40 0 37.52L0 64ZM16 20.52L16 19.48L0 19.48L0 20.52ZM16 28.52L16 27.48L0 27.48L0 28.52ZM0 51.48L0 52.52L16 52.52L16 51.48ZM16 36.52L16 35.48L0 35.48L0 36.52ZM0 43.48L0 44.52L16 44.52L16 43.48ZM24 20.52L24 19.48L16 19.48L16 20.52ZM24 28.52L24 27.48L16 27.48L16 28.52ZM16 51.48L16 52.52L24 52.52L24 51.48ZM24 36.52L24 35.48L16 35.48L16 36.52ZM16 43.48L16 44.52L24 44.52L24 43.48ZM23.44 52L24.60 52L24.60 20L23.44 20ZM21.16 52L21.16 20L20 20L20 52ZM36.84 64L36.84 39.64C37.48 40.20 38.36 40.52 39.36 40.52C42.56 40.52 46.52 37.52 46.52 34.48C46.52 32.68 45.08 31.48 43 31.48C39.04 31.48 35.88 34.40 35.88 37.52L35.88 64ZM51.88 20.52L51.88 19.48L35.88 19.48L35.88 20.52ZM51.88 28.52L51.88 27.48L35.88 27.48L35.88 28.52ZM35.88 51.48L35.88 52.52L51.88 52.52L51.88 51.48ZM51.88 36.52L51.88 35.48L35.88 35.48L35.88 36.52ZM35.88 43.48L35.88 44.52L51.88 44.52L51.88 43.48ZM49.84 64L49.84 39.64C50.48 40.20 51.36 40.52 52.36 40.52C55.56 40.52 59.52 37.52 59.52 34.48C59.52 32.68 58.08 31.48 56 31.48C52.04 31.48 48.88 34.40 48.88 37.52L48.88 64ZM67.88 20.52L67.88 19.48L51.88 19.48L51.88 20.52ZM67.88 28.52L67.88 27.48L51.88 27.48L51.88 28.52ZM51.88 51.48L51.88 52.52L67.88 52.52L67.88 51.48ZM67.88 36.52L67.88 35.48L51.88 35.48L51.88 36.52ZM51.88 43.48L51.88 44.52L67.88 44.52L67.88 43.48ZM67.32 52L68.48 52L68.48 20L67.32 20ZM65.04 52L65.04 20L63.88 20L63.88 52ZM80.72 64L80.72 39.64C81.36 40.20 82.24 40.52 83.24 40.52C86.44 40.52 90.40 37.52 90.40 34.48C90.40 32.68 88.96 31.48 86.88 31.48C82.92 31.48 79.76 34.40 79.76 37.52L79.76 64ZM95.76 20.52L95.76 19.48L79.76 19.48L79.76 20.52ZM95.76 28.52L95.76 27.48L79.76 27.48L79.76 28.52ZM79.76 51.48L79.76 52.52L95.76 52.52L95.76 51.48ZM95.76 36.52L95.76 35.48L79.76 35.48L79.76 36.52ZM79.76 43.48L79.76 44.52L95.76 44.52L95.76 43.48ZM93.72 64L93.72 39.64C94.36 40.20 95.24 40.52 96.24 40.52C99.44 40.52 103.40 37.52 103.40 34.48C103.40 32.68 101.96 31.48 99.88 31.48C95.92 31.48 92.76 34.40 92.76 37.52L92.76 64ZM111.76 20.52L111.76 19.48L95.76 19.48L95.76 20.52ZM111.76 28.52L111.76 27.48L95.76 27.48L95.76 28.52ZM95.76 51.48L95.76 52.52L111.76 52.52L111.76 51.48ZM111.76 36.52L111.76 35.48L95.76 35.48L95.76 36.52ZM95.76 43.48L95.76 44.52L111.76 44.52L111.76 43.48ZM106.72 64L106.72 39.64C107.36 40.20 108.24 40.52 109.24 40.52C112.44 40.52 116.40 37.52 116.40 34.48C116.40 32.68 114.96 31.48 112.88 31.48C108.92 31.48 105.76 34.40 105.76 37.52L105.76 64ZM119.76 20.52L119.76 19.48L111.76 19.48L111.76 20.52ZM119.76 28.52L119.76 27.48L111.76 27.48L111.76 28.52ZM111.76 51.48L111.76 52.52L119.76 52.52L119.76 51.48ZM119.76 36.52L119.76 35.48L111.76 35.48L111.76 36.52ZM111.76 43.48L111.76 44.52L119.76 44.52L119.76 43.48ZM127.76 20.52L127.76 19.48L119.76 19.48L119.76 20.52ZM127.76 28.52L127.76 27.48L119.76 27.48L119.76 28.52ZM119.76 51.48L119.76 52.52L127.76 52.52L127.76 51.48ZM127.76 36.52L127.76 35.48L119.76 35.48L119.76 36.52ZM119.76 43.48L119.76 44.52L127.76 44.52L127.76 43.48ZM127.20 52L128.36 52L128.36 20L127.20 20ZM124.92 52L124.92 20L123.76 20L123.76 52ZM140.60 64L140.60 39.64C141.24 40.20 142.12 40.52 143.12 40.52C146.32 40.52 150.28 37.52 150.28 34.48C150.28 32.68 148.84 31.48 146.76 31.48C142.80 31.48 139.64 34.40 139.64 37.52L139.64 64ZM155.64 20.52L155.64 19.48L139.64 19.48L139.64 20.52ZM155.64 28.52L155.64 27.48L139.64 27.48L139.64 28.52ZM139.64 51.48L139.64 52.52L155.64 52.52L155.64 51.48ZM155.64 36.52L155.64 35.48L139.64 35.48L139.64 36.52ZM139.64 43.48L139.64 44.52L155.64 44.52L155.64 43.48ZM153.60 64L153.60 39.64C154.24 40.20 155.12 40.52 156.12 40.52C159.32 40.52 163.28 37.52 163.28 34.48C163.28 32.68 161.84 31.48 159.76 31.48C155.80 31.48 152.64 34.40 152.64 37.52L152.64 64ZM171.64 20.52L171.64 19.48L155.64 19.48L155.64 20.52ZM171.64 28.52L171.64 27.48L155.64 27.48L155.64 28.52ZM155.64 51.48L155.64 52.52L171.64 52.52L171.64 51.48ZM171.64 36.52L171.64 35.48L155.64 35.48L155.64 36.52ZM155.64 43.48L155.64 44.52L171.64 44.52L171.64 43.48ZM166.60 64L166.60 39.64C167.24 40.20 168.12 40.52 169.12 40.52C172.32 40.52 176.28 37.52 176.28 34.48C176.28 32.68 174.84 31.48 172.76 31.48C168.80 31.48 165.64 34.40 165.64 37.52L165.64 64ZM179.64 20.52L179.64 19.48L171.64 19.48L171.64 20.52ZM179.64 28.52L179.64 27.48L171.64 27.48L171.64 28.52ZM171.64 51.48L171.64 52.52L179.64 52.52L179.64 51.48ZM179.64 36.52L179.64 35.48L171.64 35.48L171.64 36.52ZM171.64 43.48L171.64 44.52L179.64 44.52L179.64 43.48ZM179.60 64L179.60 39.64C180.24 40.20 181.12 40.52 182.12 40.52C185.32 40.52 189.28 37.52 189.28 34.48C189.28 32.68 187.84 31.48 185.76 31.48C181.80 31.48 178.64 34.40 178.64 37.52L178.64 64ZM195.64 20.52L195.64 19.48L179.64 19.48L179.64 20.52ZM195.64 28.52L195.64 27.48L179.64 27.48L179.64 28.52ZM179.64 51.48L179.64 52.52L195.64 52.52L195.64 51.48ZM195.64 36.52L195.64 35.48L179.64 35.48L179.64 36.52ZM179.64 43.48L179.64 44.52L195.64 44.52L195.64 43.48ZM195.08 52L196.24 52L196.24 20L195.08 20ZM192.80 52L192.80 20L191.64 20L191.64 52ZM208.48 64L208.48 39.64C209.12 40.20 210.00 40.52 211.00 40.52C214.20 40.52 218.16 37.52 218.16 34.48C218.16 32.68 216.72 31.48 214.64 31.48C210.68 31.48 207.52 34.40 207.52 37.52L207.52 64ZM223.52 20.52L223.52 19.48L207.52 19.48L207.52 20.52ZM223.52 28.52L223.52 27.48L207.52 27.48L207.52 28.52ZM207.52 51.48L207.52 52.52L223.52 52.52L223.52 51.48ZM223.52 36.52L223.52 35.48L207.52 35.48L207.52 36.52ZM207.52 43.48L207.52 44.52L223.52 44.52L223.52 43.48ZM221.48 64L221.48 39.64C222.12 40.20 223.00 40.52 224.00 40.52C227.20 40.52 231.16 37.52 231.16 34.48C231.16 32.68 229.72 31.48 227.64 31.48C223.68 31.48 220.52 34.40 220.52 37.52L220.52 64ZM239.52 20.52L239.52 19.48L223.52 19.48L223.52 20.52ZM239.52 28.52L239.52 27.48L223.52 27.48L223.52 28.52ZM223.52 51.48L223.52 52.52L239.52 52.52L239.52 51.48ZM239.52 36.52L239.52 35.48L223.52 35.48L223.52 36.52ZM223.52 43.48L223.52 44.52L239.52 44.52L239.52 43.48ZM234.48 64L234.48 39.64C235.12 40.20 236.00 40.52 237.00 40.52C240.20 40.52 244.16 37.52 244.16 34.48C244.16 32.68 242.72 31.48 240.64 31.48C236.68 31.48 233.52 34.40 233.52 37.52L233.52 64ZM247.52 20.52L247.52 19.48L239.52 19.48L239.52 20.52ZM247.52 28.52L247.52 27.48L239.52 27.48L239.52 28.52ZM239.52 51.48L239.52 52.52L247.52 52.52L247.52 51.48ZM247.52 36.52L247.52 35.48L239.52 35.48L239.52 36.52ZM239.52 43.48L239.52 44.52L247.52 44.52L247.52 43.48ZM247.48 64L247.48 39.64C248.12 40.20 249.00 40.52 250.00 40.52C253.20 40.52 257.16 37.52 257.16 34.48C257.16 32.68 255.72 31.48 253.64 31.48C249.68 31.48 246.52 34.40 246.52 37.52L246.52 64ZM263.52 20.52L263.52 19.48L247.52 19.48L247.52 20.52ZM263.52 28.52L263.52 27.48L247.52 27.48L247.52 28.52ZM247.52 51.48L247.52 52.52L263.52 52.52L263.52 51.48ZM263.52 36.52L263.52 35.48L247.52 35.48L247.52 36.52ZM247.52 43.48L247.52 44.52L263.52 44.52L263.52 43.48ZM260.48 64L260.48 39.64C261.12 40.20 262 40.52 263 40.52C266.20 40.52 270.16 37.52 270.16 34.48C270.16 32.68 268.72 31.48 266.64 31.48C262.68 31.48 259.52 34.40 259.52 37.52L259.52 64ZM279.52 20.52L279.52 19.48L263.52 19.48L263.52 20.52ZM279.52 28.52L279.52 27.48L263.52 27.48L263.52 28.52ZM263.52 51.48L263.52 52.52L279.52 52.52L279.52 51.48ZM279.52 36.52L279.52 35.48L263.52 35.48L263.52 36.52ZM263.52 43.48L263.52 44.52L279.52 44.52L279.52 43.48ZM278.96 52L280.12 52L280.12 20L278.96 20ZM276.68 52L276.68 20L275.52 20L275.52 52ZM292.36 64L292.36 39.64C293 40.20 293.88 40.52 294.88 40.52C298.08 40.52 302.04 37.52 302.04 34.48C302.04 32.68 300.60 31.48 298.52 31.48C294.56 31.48 291.40 34.40 291.40 37.52L291.40 64ZM307.40 20.52L307.40 19.48L291.40 19.48L291.40 20.52ZM307.40 28.52L307.40 27.48L291.40 27.48L291.40 28.52ZM291.40 51.48L291.40 52.52L307.40 52.52L307.40 51.48ZM307.40 36.52L307.40 35.48L291.40 35.48L291.40 36.52ZM291.40 43.48L291.40 44.52L307.40 44.52L307.40 43.48ZM305.36 64L305.36 39.64C306 40.20 306.88 40.52 307.88 40.52C311.08 40.52 315.04 37.52 315.04 34.48C315.04 32.68 313.60 31.48 311.52 31.48C307.56 31.48 304.40 34.40 304.40 37.52L304.40 64ZM323.40 20.52L323.40 19.48L307.40 19.48L307.40 20.52ZM323.40 28.52L323.40 27.48L307.40 27.48L307.40 28.52ZM307.40 51.48L307.40 52.52L323.40 52.52L323.40 51.48ZM323.40 36.52L323.40 35.48L307.40 35.48L307.40 36.52ZM307.40 43.48L307.40 44.52L323.40 44.52L323.40 43.48ZM318.36 64L318.36 39.64C319 40.20 319.88 40.52 320.88 40.52C324.08 40.52 328.04 37.52 328.04 34.48C328.04 32.68 326.60 31.48 324.52 31.48C320.56 31.48 317.40 34.40 317.40 37.52L317.40 64ZM331.40 20.52L331.40 19.48L323.40 19.48L323.40 20.52ZM331.40 28.52L331.40 27.48L323.40 27.48L323.40 28.52ZM323.40 51.48L323.40 52.52L331.40 52.52L331.40 51.48ZM331.40 36.52L331.40 35.48L323.40 35.48L323.40 36.52ZM323.40 43.48L323.40 44.52L331.40 44.52L331.40 43.48ZM331.36 64L331.36 39.64C332 40.20 332.88 40.52 333.88 40.52C337.08 40.52 341.04 37.52 341.04 34.48C341.04 32.68 339.60 31.48 337.52 31.48C333.56 31.48 330.40 34.40 330.40 37.52L330.40 64ZM347.40 20.52L347.40 19.48L331.40 19.48L331.40 20.52ZM347.40 28.52L347.40 27.48L331.40 27.48L331.40 28.52ZM331.40 51.48L331.40 52.52L347.40 52.52L347.40 51.48ZM347.40 36.52L347.40 35.48L331.40 35.48L331.40 36.52ZM331.40 43.48L331.40 44.52L347.40 44.52L347.40 43.48ZM344.36 64L344.36 39.64C345 40.20 345.88 40.52 346.88 40.52C350.08 40.52 354.04 37.52 354.04 34.48C354.04 32.68 352.60 31.48 350.52 31.48C346.56 31.48 343.40 34.40 343.40 37.52L343.40 64ZM363.40 20.52L363.40 19.48L347.40 19.48L347.40 20.52ZM363.40 28.52L363.40 27.48L347.40 27.48L347.40 28.52ZM347.40 51.48L347.40 52.52L363.40 52.52L363.40 51.48ZM363.40 36.52L363.40 35.48L347.40 35.48L347.40 36.52ZM347.40 43.48L347.40 44.52L363.40 44.52L363.40 43.48ZM357.36 64L357.36 39.64C358 40.20 358.88 40.52 359.88 40.52C363.08 40.52 367.04 37.52 367.04 34.48C367.04 32.68 365.60 31.48 363.52 31.48C359.56 31.48 356.40 34.40 356.40 37.52L356.40 64ZM371.40 20.52L371.40 19.48L363.40 19.48L363.40 20.52ZM371.40 28.52L371.40 27.48L363.40 27.48L363.40 28.52ZM363.40 51.48L363.40 52.52L371.40 52.52L371.40 51.48ZM371.40 36.52L371.40 35.48L363.40 35.48L363.40 36.52ZM363.40 43.48L363.40 44.52L371.40 44.52L371.40 43.48ZM379.40 20.52L379.40 19.48L371.40 19.48L371.40 20.52ZM379.40 28.52L379.40 27.48L371.40 27.48L371.40 28.52ZM371.40 51.48L371.40 52.52L379.40 52.52L379.40 51.48ZM379.40 36.52L379.40 35.48L371.40 35.48L371.40 36.52ZM371.40 43.48L371.40 44.52L379.40 44.52L379.40 43.48ZM378.84 52L380 52L380 20L378.84 20ZM376.56 52L376.56 20L375.40 20L375.40 52ZM392.24 64L392.24 39.64C392.88 40.20 393.76 40.52 394.76 40.52C397.96 40.52 401.92 37.52 401.92 34.48C401.92 32.68 400.48 31.48 398.40 31.48C394.44 31.48 391.28 34.40 391.28 37.52L391.28 64ZM407.28 20.52L407.28 19.48L391.28 19.48L391.28 20.52ZM407.28 28.52L407.28 27.48L391.28 27.48L391.28 28.52ZM391.28 51.48L391.28 52.52L407.28 52.52L407.28 51.48ZM407.28 36.52L407.28 35.48L391.28 35.48L391.28 36.52ZM391.28 43.48L391.28 44.52L407.28 44.52L407.28 43.48ZM405.24 64L405.24 39.64C405.88 40.20 406.76 40.52 407.76 40.52C410.96 40.52 414.92 37.52 414.92 34.48C414.92 32.68 413.48 31.48 411.40 31.48C407.44 31.48 404.28 34.40 404.28 37.52L404.28 64ZM423.28 20.52L423.28 19.48L407.28 19.48L407.28 20.52ZM423.28 28.52L423.28 27.48L407.28 27.48L407.28 28.52ZM407.28 51.48L407.28 52.52L423.28 52.52L423.28 51.48ZM423.28 36.52L423.28 35.48L407.28 35.48L407.28 36.52ZM407.28 43.48L407.28 44.52L423.28 44.52L423.28 43.48ZM418.24 64L418.24 39.64C418.88 40.20 419.76 40.52 420.76 40.52C423.96 40.52 427.92 37.52 427.92 34.48C427.92 32.68 426.48 31.48 424.40 31.48C420.44 31.48 417.28 34.40 417.28 37.52L417.28 64ZM431.28 20.52L431.28 19.48L423.28 19.48L423.28 20.52ZM431.28 28.52L431.28 27.48L423.28 27.48L423.28 28.52ZM423.28 51.48L423.28 52.52L431.28 52.52L431.28 51.48ZM431.28 36.52L431.28 35.48L423.28 35.48L423.28 36.52ZM423.28 43.48L423.28 44.52L431.28 44.52L431.28 43.48ZM431.24 64L431.24 39.64C431.88 40.20 432.76 40.52 433.76 40.52C436.96 40.52 440.92 37.52 440.92 34.48C440.92 32.68 439.48 31.48 437.40 31.48C433.44 31.48 430.28 34.40 430.28 37.52L430.28 64ZM447.28 20.52L447.28 19.48L431.28 19.48L431.28 20.52ZM447.28 28.52L447.28 27.48L431.28 27.48L431.28 28.52ZM431.28 51.48L431.28 52.52L447.28 52.52L447.28 51.48ZM447.28 36.52L447.28 35.48L431.28 35.48L431.28 36.52ZM431.28 43.48L431.28 44.52L447.28 44.52L447.28 43.48ZM444.24 64L444.24 39.64C444.88 40.20 445.76 40.52 446.76 40.52C449.96 40.52 453.92 37.52 453.92 34.48C453.92 32.68 452.48 31.48 450.40 31.48C446.44 31.48 443.28 34.40 443.28 37.52L443.28 64ZM463.28 20.52L463.28 19.48L447.28 19.48L447.28 20.52ZM463.28 28.52L463.28 27.48L447.28 27.48L447.28 28.52ZM447.28 51.48L447.28 52.52L463.28 52.52L463.28 51.48ZM463.28 36.52L463.28 35.48L447.28 35.48L447.28 36.52ZM447.28 43.48L447.28 44.52L463.28 44.52L463.28 43.48ZM457.24 64L457.24 39.64C457.88 40.20 458.76 40.52 459.76 40.52C462.96 40.52 466.92 37.52 466.92 34.48C466.92 32.68 465.48 31.48 463.40 31.48C459.44 31.48 456.28 34.40 456.28 37.52L456.28 64ZM471.28 20.52L471.28 19.48L463.28 19.48L463.28 20.52ZM471.28 28.52L471.28 27.48L463.28 27.48L463.28 28.52ZM463.28 51.48L463.28 52.52L471.28 52.52L471.28 51.48ZM471.28 36.52L471.28 35.48L463.28 35.48L463.28 36.52ZM463.28 43.48L463.28 44.52L471.28 44.52L471.28 43.48ZM470.24 64L470.24 39.64C470.88 40.20 471.76 40.52 472.76 40.52C475.96 40.52 479.92 37.52 479.92 34.48C479.92 32.68 478.48 31.48 476.40 31.48C472.44 31.48 469.28 34.40 469.28 37.52L469.28 64ZM487.28 20.52L487.28 19.48L471.28 19.48L471.28 20.52ZM487.28 28.52L487.28 27.48L471.28 27.48L471.28 28.52ZM471.28 51.48L471.28 52.52L487.28 52.52L487.28 51.48ZM487.28 36.52L487.28 35.48L471.28 35.48L471.28 36.52ZM471.28 43.48L471.28 44.52L487.28 44.52L487.28 43.48ZM486.72 52L487.88 52L487.88 20L486.72 20ZM484.44 52L484.44 20L483.28 20L483.28 52ZM500.12 64L500.12 39.64C500.76 40.20 501.64 40.52 502.64 40.52C505.84 40.52 509.80 37.52 509.80 34.48C509.80 32.68 508.36 31.48 506.28 31.48C502.32 31.48 499.16 34.40 499.16 37.52L499.16 64ZM515.16 20.52L515.16 19.48L499.16 19.48L499.16 20.52ZM515.16 28.52L515.16 27.48L499.16 27.48L499.16 28.52ZM499.16 51.48L499.16 52.52L515.16 52.52L515.16 51.48ZM515.16 36.52L515.16 35.48L499.16 35.48L499.16 36.52ZM499.16 43.48L499.16 44.52L515.16 44.52L515.16 43.48ZM513.12 64L513.12 39.64C513.76 40.20 514.64 40.52 515.64 40.52C518.84 40.52 522.80 37.52 522.80 34.48C522.80 32.68 521.36 31.48 519.28 31.48C515.32 31.48 512.16 34.40 512.16 37.52L512.16 64ZM531.16 20.52L531.16 19.48L515.16 19.48L515.16 20.52ZM531.16 28.52L531.16 27.48L515.16 27.48L515.16 28.52ZM515.16 51.48L515.16 52.52L531.16 52.52L531.16 51.48ZM531.16 36.52L531.16 35.48L515.16 35.48L515.16 36.52ZM515.16 43.48L515.16 44.52L531.16 44.52L531.16 43.48ZM526.12 64L526.12 39.64C526.76 40.20 527.64 40.52 528.64 40.52C531.84 40.52 535.80 37.52 535.80 34.48C535.80 32.68 534.36 31.48 532.28 31.48C528.32 31.48 525.16 34.40 525.16 37.52L525.16 64ZM539.16 20.52L539.16 19.48L531.16 19.48L531.16 20.52ZM539.16 28.52L539.16 27.48L531.16 27.48L531.16 28.52ZM531.16 51.48L531.16 52.52L539.16 52.52L539.16 51.48ZM539.16 36.52L539.16 35.48L531.16 35.48L531.16 36.52ZM531.16 43.48L531.16 44.52L539.16 44.52L539.16 43.48ZM539.12 64L539.12 39.64C539.76 40.20 540.64 40.52 541.64 40.52C544.84 40.52 548.80 37.52 548.80 34.48C548.80 32.68 547.36 31.48 545.28 31.48C541.32 31.48 538.16 34.40 538.16 37.52L538.16 64ZM555.16 20.52L555.16 19.48L539.16 19.48L539.16 20.52ZM555.16 28.52L555.16 27.48L539.16 27.48L539.16 28.52ZM539.16 51.48L539.16 52.52L555.16 52.52L555.16 51.48ZM555.16 36.52L555.16 35.48L539.16 35.48L539.16 36.52ZM539.16 43.48L539.16 44.52L555.16 44.52L555.16 43.48ZM552.12 64L552.12 39.64C552.76 40.20 553.64 40.52 554.64 40.52C557.84 40.52 561.80 37.52 561.80 34.48C561.80 32.68 560.36 31.48 558.28 31.48C554.32 31.48 551.16 34.40 551.16 37.52L551.16 64ZM571.16 20.52L571.16 19.48L555.16 19.48L555.16 20.52ZM571.16 28.52L571.16 27.48L555.16 27.48L555.16 28.52ZM555.16 51.48L555.16 52.52L571.16 52.52L571.16 51.48ZM571.16 36.52L571.16 35.48L555.16 35.48L555.16 36.52ZM555.16 43.48L555.16 44.52L571.16 44.52L571.16 43.48ZM565.12 64L565.12 39.64C565.76 40.20 566.64 40.52 567.64 40.52C570.84 40.52 574.80 37.52 574.80 34.48C574.80 32.68 573.36 31.48 571.28 31.48C567.32 31.48 564.16 34.40 564.16 37.52L564.16 64ZM579.16 20.52L579.16 19.48L571.16 19.48L571.16 20.52ZM579.16 28.52L579.16 27.48L571.16 27.48L571.16 28.52ZM571.16 51.48L571.16 52.52L579.16 52.52L579.16 51.48ZM579.16 36.52L579.16 35.48L571.16 35.48L571.16 36.52ZM571.16 43.48L571.16 44.52L579.16 44.52L579.16 43.48ZM578.12 64L578.12 39.64C578.76 40.20 579.64 40.52 580.64 40.52C583.84 40.52 587.80 37.52 587.80 34.48C587.80 32.68 586.36 31.48 584.28 31.48C580.32 31.48 577.16 34.40 577.16 37.52L577.16 64ZM595.16 20.52L595.16 19.48L579.16 19.48L579.16 20.52ZM595.16 28.52L595.16 27.48L579.16 27.48L579.16 28.52ZM579.16 51.48L579.16 52.52L595.16 52.52L595.16 51.48ZM595.16 36.52L595.16 35.48L579.16 35.48L579.16 36.52ZM579.16 43.48L579.16 44.52L595.16 44.52L595.16 43.48ZM591.12 64L591.12 39.64C591.76 40.20 592.64 40.52 593.64 40.52C596.84 40.52 600.80 37.52 600.80 34.48C600.80 32.68 599.36 31.48 597.28 31.48C593.32 31.48 590.16 34.40 590.16 37.52L590.16 64ZM603.16 20.52L603.16 19.48L595.16 19.48L595.16 20.52ZM603.16 28.52L603.16 27.48L595.16 27.48L595.16 28.52ZM595.16 51.48L595.16 52.52L603.16 52.52L603.16 51.48ZM603.16 36.52L603.16 35.48L595.16 35.48L595.16 36.52ZM595.16 43.48L595.16 44.52L603.16 44.52L603.16 43.48ZM611.16 20.52L611.16 19.48L603.16 19.48L603.16 20.52ZM611.16 28.52L611.16 27.48L603.16 27.48L603.16 28.52ZM603.16 51.48L603.16 52.52L611.16 52.52L611.16 51.48ZM611.16 36.52L611.16 35.48L603.16 35.48L603.16 36.52ZM603.16 43.48L603.16 44.52L611.16 44.52L611.16 43.48ZM610.60 52L611.76 52L611.76 20L610.60 20ZM608.32 52L608.32 20L607.16 20L607.16 52Z"/></svg>