<svg xmlns="http://www.w3.org/2000/svg" xmlns:xlink="http://www.w3.org/1999/xlink" height="80" width="8" style="padding: 0px">
	<g transform="translate(0 0)">
		<path d="M8 20.52L8 19.48L0 19.48L0 20.52ZM8 28.52L8 27.48L0 27.48L0 28.52ZM0 51.48L0 52.52L8 52.52L8 51.48ZM8 36.52L8 35.48L0 35.48L0 36.52ZM0 43.48L0 44.52L8 44.52L8 43.48ZM5 32C5 32.80 5.72 33.52 6.52 33.52C7.32 33.52 8 32.80 8 32C8 31.20 7.32 30.48 6.52 30.48C5.72 30.48 5 31.20 5 32ZM5.56 32C5.56 31.48 6 31.08 6.52 31.08C7 31.08 7.44 31.48 7.44 32C7.44 32.52 7 32.92 6.52 32.92C6 32.92 5.56 32.52 5.56 32Z"/>
	</g>
</svg>