<svg xmlns="http://www.w3.org/2000/svg" xmlns:xlink="http://www.w3.org/1999/xlink" height="80" width="16" style="padding: 0px">
	<g transform="translate(0 0)">
		<path d="M16 20.52L16 19.48L0 19.48L0 20.52ZM16 28.52L16 27.48L0 27.48L0 28.52ZM0 51.48L0 52.52L16 52.52L16 51.48ZM16 36.52L16 35.48L0 35.48L0 36.52ZM0 43.48L0 44.52L16 44.52L16 43.48ZM1 15.44L1 56.48C1 56.68 1.08 56.72 1.24 56.72L4.48 56.72C10.60 57.16 14.64 61.36 14.92 61.72C15.12 61.96 15.40 62.16 15.64 62.16C15.92 62.12 16 62 16 61.76C16 61.68 15.96 61.52 15.96 61.40C14.68 56.08 10.12 53.68 5 52.72L5 19.16C10.12 18.20 14.68 15.84 15.96 10.48C16 10.36 16 10.28 16 10.16C16 9.92 15.92 9.80 15.76 9.72C15.40 9.72 15.12 9.96 14.92 10.16C14.64 10.52 10.60 14.76 4.48 15.20L1.24 15.20C1.08 15.20 1 15.24 1 15.44Z"/>
	</g>
</svg>