<svg xmlns="http://www.w3.org/2000/svg" xmlns:xlink="http://www.w3.org/1999/xlink" height="80" width="24" style="padding: 0px">
	<g transform="translate(0 0)">
		<path d="M0 51.48L0 52.52L24 52.52L24 51.48ZM24 28.52L24 27.48L0 27.48L0 28.52ZM24 36.52L24 35.48L0 35.48L0 36.52ZM0 43.48L0 44.52L24 44.52L24 43.48ZM24 20.52L24 19.48L0 19.48L0 20.52ZM13.20 39.60L13.40 39.80L15.28 40.40L15.44 40.40L15.56 40.28C16.04 39.80 16.08 38.76 16.08 38.16C15.96 38.04 15.92 37.92 15.84 37.92L14.04 37.28C13.96 37.28 13.88 37.28 13.84 37.32L13.72 37.40C13.60 37.52 13.48 37.80 13.36 38.12C13.20 38.48 13.16 38.80 13.16 39.24C13.16 39.40 13.20 39.52 13.20 39.60ZM8.24 38.88C8.28 39 8.36 39.12 8.48 39.12L8.84 39.12C8.96 39.12 9.16 39.12 9.44 39.16C9.68 39.20 9.92 39.20 10.12 39.20L10.32 39.20C10.40 39.20 10.48 39.16 10.52 39.12C10.68 38.96 10.80 38.68 10.96 38.32C11.12 37.88 11.20 37.52 11.20 37.20C11.20 37.16 11.20 37.08 11.16 37.04C11.16 36.92 11.12 36.88 11.04 36.84C10.84 36.64 10.32 36.60 9.92 36.60L9.12 36.60C9.04 36.60 8.96 36.68 8.88 36.72C8.52 37.20 8.24 38.28 8.24 38.88ZM18 41.76L19.44 42.80C19.44 42.84 19.52 42.84 19.56 42.84C19.60 42.84 19.60 42.84 19.68 42.80C19.88 42.64 20.04 42.40 20.20 42.04C20.32 41.68 20.40 41.32 20.44 40.92C20.44 40.72 20.40 40.60 20.32 40.52C20.32 40.48 20.28 40.44 20.24 40.36L18.76 39.36C18.72 39.32 18.68 39.28 18.64 39.28C18.60 39.28 18.56 39.28 18.52 39.32L18.44 39.44C18.28 39.56 18.16 39.80 18 40.12C17.84 40.60 17.84 41.08 17.84 41.56ZM3.92 39.60C3.96 39.76 4.04 39.84 4.16 39.88C4.24 39.88 4.32 39.88 4.36 39.84C4.52 39.76 4.80 39.64 5.20 39.60C5.68 39.52 6 39.44 6.16 39.28C6.20 39.28 6.24 39.28 6.28 39.24C6.36 39.12 6.48 38.92 6.52 38.60C6.64 38.28 6.64 37.92 6.64 37.56L6.64 37.24C6.60 37.08 6.48 37 6.32 36.96C5.84 36.96 4.56 37.24 4.24 37.64C4.20 37.64 4.16 37.68 4.12 37.68C3.96 37.92 3.92 38.40 3.88 39.12C3.88 39.36 3.92 39.52 3.92 39.60ZM20.12 50.96L20.28 51.04C20.40 51.04 20.48 51 20.56 50.88C20.80 50.60 20.88 50 20.92 49.04C20.92 48.96 20.88 48.64 20.84 48.56C20.48 48 20.20 47.36 20.20 46.68C20.16 46.52 20.08 46.44 19.92 46.40C19.76 46.40 19.68 46.44 19.60 46.52L19.44 46.76C19.24 47.24 19.12 47.76 19.12 48.32C19.12 49.24 19.36 50.36 20.12 50.96ZM-0.20 41.76C-0.12 41.88-0.08 41.96 0.08 42C0.16 42 0.20 41.96 0.24 41.96C0.88 41.48 1.36 41.12 1.76 40.92C1.84 40.88 1.84 40.88 1.88 40.80C2.04 40.56 2.16 40.16 2.16 39.48L2.16 39.28C2.16 39.12 2.12 39 2.04 38.88C2 38.80 1.92 38.72 1.76 38.68C1.72 38.68 1.68 38.68 1.68 38.72C1.24 38.72 0.16 39.60-0.16 39.92C-0.16 39.92-0.36 40.52-0.36 40.80C-0.36 41.20-0.28 41.52-0.20 41.76ZM22 46.16L22.48 47.28C22.48 47.36 22.56 47.40 22.64 47.44C22.96 47.44 23.20 46.88 23.28 46.64C23.40 46.28 23.44 45.92 23.44 45.52L23.44 45.36C23.44 45.04 23.36 44.76 23.24 44.48L22.56 43.16C22.52 43.08 22.48 43 22.40 43C22.36 43 22.32 43.04 22.28 43.08L22.16 43.12C22.08 43.24 21.96 43.48 21.84 43.92C21.76 44.32 21.72 44.76 21.72 45.24C21.72 45.60 21.84 45.88 22 46.16ZM21.44 50.76C21.44 50.96 21.48 51.08 21.52 51.16C21.60 51.44 21.76 51.44 22 51.44C22.12 51.36 22.32 51.16 22.56 50.92C22.80 50.64 23 50.36 23.12 50.16C23.28 49.84 23.40 49.44 23.48 49C23.60 48.56 23.64 48.24 23.64 48.08C23.64 47.80 23.52 47.68 23.28 47.68C23.08 47.68 22.92 47.76 22.80 48.04C22.80 48.08 22.76 48.16 22.68 48.40C22.64 48.56 22.52 48.72 22.48 48.80C22.40 48.88 22.28 48.88 22.12 48.96C21.96 49 21.80 49.08 21.68 49.24C21.68 49.24 21.64 49.32 21.60 49.48C21.60 49.52 21.56 49.68 21.52 50C21.48 50.32 21.44 50.64 21.44 50.76ZM-3.16 45.60C-3.12 45.60-3.04 45.56-2.96 45.52C-2.92 45.44-2.72 45.16-2.36 44.56C-2.32 44.44-2.16 44.28-2 44.08C-1.84 43.92-1.76 43.76-1.68 43.60C-1.64 43.48-1.60 43.28-1.60 43.08C-1.60 42.64-1.68 42.32-1.76 42.08C-1.84 41.96-1.88 41.92-2 41.92C-2 41.92-2.16 41.96-2.16 42C-2.40 42.16-2.80 42.76-3.28 43.76C-3.52 44.16-3.64 44.56-3.64 44.84C-3.64 45.16-3.56 45.60-3.16 45.60Z"/>
	</g>
</svg>