<svg xmlns="http://www.w3.org/2000/svg" xmlns:xlink="http://www.w3.org/1999/xlink" height="160" width="16" style="padding: 0px">
	<g transform="translate(0 0)">
		<path d="M0.96 64L0.96 39.64C1.60 40.20 2.48 40.52 3.48 40.52C6.68 40.52 10.64 37.52 10.64 34.48C10.64 32.68 9.20 31.48 7.12 31.48C3.16 31.48 0 34.40 0 37.52L0 64ZM16 20.52L16 19.48L0 19.48L0 20.52ZM16 28.52L16 27.48L0 27.48L0 28.52ZM0 51.48L0 52.52L16 52.52L16 51.48ZM16 36.52L16 35.48L0 35.48L0 36.52ZM0 43.48L0 44.52L16 44.52L16 43.48Z"/>
	</g>
	<g transform="translate(0 80)">
		<path d="M1.16 52L1.16 20L0 20L0 52ZM8 20.52L8 19.48L0 19.48L0 20.52ZM8 28.52L8 27.48L0 27.48L0 28.52ZM0 51.48L0 52.52L8 52.52L8 51.48ZM8 36.52L8 35.48L0 35.48L0 36.52ZM0 43.48L0 44.52L8 44.52L8 43.48ZM3.96 64L3.96 39.64C4.60 40.20 5.48 40.52 6.48 40.52C9.68 40.52 13.64 37.52 13.64 34.48C13.64 32.68 12.20 31.48 10.12 31.48C6.16 31.48 3 34.40 3 37.52L3 64ZM16 20.52L16 19.48L8 19.48L8 20.52ZM16 28.52L16 27.48L8 27.48L8 28.52ZM8 51.48L8 52.52L16 52.52L16 51.48ZM16 36.52L16 35.48L8 35.48L8 36.52ZM8 43.48L8 44.52L16 44.52L16 43.48Z"/>
	</g>
</svg>