<svg xmlns="http://www.w3.org/2000/svg" xmlns:xlink="http://www.w3.org/1999/xlink" height="80" width="8" style="padding: 0px">
	<g transform="translate(0 0)">
		<path d="M8 20.52L8 19.48L0 19.48L0 20.52ZM8 28.52L8 27.48L0 27.48L0 28.52ZM0 51.48L0 52.52L8 52.52L8 51.48ZM8 36.52L8 35.48L0 35.48L0 36.52ZM0 43.48L0 44.52L8 44.52L8 43.48ZM0.04 36.68C0.04 36.72 0.04 36.76 0.08 36.84L3.44 51.52C3.48 51.76 3.72 51.96 4.04 51.96C4.28 51.96 4.52 51.76 4.56 51.52L7.96 36.84L7.96 36.72C7.96 36.44 7.80 36.24 7.52 36.16L7.40 36.16C7.12 36.16 6.92 36.32 6.84 36.56L4 48.88L1.20 36.56C1.08 36.32 0.88 36.16 0.60 36.16L0.48 36.16C0.24 36.24 0.04 36.44 0.04 36.68Z"/>
	</g>
</svg>