<svg xmlns="http://www.w3.org/2000/svg" xmlns:xlink="http://www.w3.org/1999/xlink" width="16" height="80" style="padding: 0px"><path d="M16 20.52L16 19.48L0 19.48L0 20.52ZM16 28.52L16 27.48L0 27.48L0 28.52ZM0 51.48L0 52.52L16 52.52L16 51.48ZM16 36.52L16 35.48L0 35.48L0 36.52ZM0 43.48L0 44.52L16 44.52L16 43.48ZM0 33.80C0 34.08 0.12 34.36 0.36 34.56L7.04 40C7.24 40.16 7.44 40.24 7.68 40.24C8.24 40.24 8.72 39.76 8.72 39.20L8.72 20.24L14.96 17.84C15.36 17.68 15.60 17.28 15.60 16.88C15.60 16.72 15.60 16.64 15.56 16.52C15.40 16.12 14.96 15.88 14.56 15.88C14.44 15.88 14.32 15.92 14.20 15.92L7.28 18.64C6.92 18.76 6.64 19.12 6.64 19.56L6.64 37.04L1.68 32.96C1.48 32.80 1.24 32.72 1.04 32.72C0.72 32.72 0.40 32.88 0.24 33.12C0.08 33.32 0 33.56 0 33.80Z"/></svg>