<svg xmlns="http://www.w3.org/2000/svg" xmlns:xlink="http://www.w3.org/1999/xlink" height="80" width="24" style="padding: 0px">
	<g transform="translate(0 0)">
		<path d="M8 20.52L8 19.48L0 19.48L0 20.52ZM8 28.52L8 27.48L0 27.48L0 28.52ZM0 51.48L0 52.52L8 52.52L8 51.48ZM8 36.52L8 35.48L0 35.48L0 36.52ZM0 43.48L0 44.52L8 44.52L8 43.48ZM3.48 64.52C6.68 64.52 10.64 61.52 10.64 58.48L10.64 32L9.68 32L9.68 56.32C9.04 55.76 8.16 55.48 7.12 55.48C3.16 55.48 0 58.40 0 61.52C0 63.40 1.52 64.52 3.48 64.52ZM16 20.52L16 19.48L0 19.48L0 20.52ZM16 28.52L16 27.48L0 27.48L0 28.52ZM0 51.48L0 52.52L16 52.52L16 51.48ZM16 36.52L16 35.48L0 35.48L0 36.52ZM0 43.48L0 44.52L16 44.52L16 43.48ZM26.20 60.64L26.20 59.36L10.44 59.36L10.44 60.64ZM16.48 64.52C19.68 64.52 23.64 61.52 23.64 58.48L23.64 32L22.68 32L22.68 56.32C22.04 55.76 21.16 55.48 20.12 55.48C16.16 55.48 13 58.40 13 61.52C13 63.40 14.52 64.52 16.48 64.52ZM24 20.52L24 19.48L16 19.48L16 20.52ZM24 28.52L24 27.48L16 27.48L16 28.52ZM16 51.48L16 52.52L24 52.52L24 51.48ZM24 36.52L24 35.48L16 35.48L16 36.52ZM16 43.48L16 44.52L24 44.52L24 43.48Z"/>
	</g>
</svg>