<svg xmlns="http://www.w3.org/2000/svg" xmlns:xlink="http://www.w3.org/1999/xlink" height="80" width="98" style="padding: 0px">
	<g transform="translate(0 0)">
		<path d="M0.96 64L0.96 39.64C1.60 40.20 2.48 40.52 3.48 40.52C6.68 40.52 10.64 37.52 10.64 34.48C10.64 32.68 9.20 31.48 7.12 31.48C3.16 31.48 0 34.40 0 37.52L0 64ZM16.60 27.60L13.48 27.80L13.48 28.60L14.12 28.60C14.80 28.60 14.92 28.72 14.92 29.48L14.92 33.80L14.92 34.20L14.92 34.64C14.92 34.92 14.88 35.04 14.80 35.12C14.68 35.28 14.32 35.36 13.56 35.36L13.48 35.36L13.48 36L18.04 36L18.04 35.36L17.96 35.36C16.76 35.32 16.60 35.20 16.60 34.56L16.60 33.80L16.60 31.92C16.60 31.04 16.72 30.20 16.92 29.80C17.28 29 18.12 28.44 18.88 28.44C19.36 28.44 19.88 28.72 20.16 29.08C20.44 29.48 20.56 30 20.56 30.88L20.56 33.80L20.56 34.64C20.56 34.92 20.52 35.04 20.44 35.12C20.32 35.28 19.96 35.36 19.20 35.36L19.12 35.36L19.12 36L23.68 36L23.68 35.36L23.60 35.36C22.40 35.32 22.24 35.20 22.24 34.56L22.24 33.80L22.24 30.96C22.24 29.68 22.20 29.32 21.88 28.72C21.44 27.84 20.52 27.36 19.44 27.36C18.28 27.36 17.40 27.88 16.60 29.08ZM29.48 27.60L29.48 24.04L28.76 24.04C28.60 26.36 27.76 27.56 26.32 27.68L26.32 28.40L27.80 28.40L27.80 32.96C27.80 34.24 27.84 34.72 28 35.12C28.28 35.88 29.04 36.28 30.08 36.28C31.68 36.28 32.72 35.04 32.72 33.12L32.72 32.72L31.96 32.72C31.92 34.32 31.44 35.16 30.56 35.16C30.16 35.16 29.76 34.96 29.64 34.64C29.52 34.40 29.48 33.92 29.48 33.28L29.48 28.40L32.12 28.40L32.12 27.60ZM36.72 39.32C38.32 38.20 39.08 37.12 39.08 35.84C39.08 34.76 38.48 34.04 37.60 34.04C36.92 34.04 36.44 34.52 36.44 35.12C36.44 35.76 36.92 36.20 37.68 36.20C37.76 36.20 37.88 36.16 37.92 36.16L38 36.16C38.08 36.16 38.12 36.24 38.12 36.36C38.12 37.12 37.48 37.96 36.28 38.80ZM37.72 27.52C37.08 27.52 36.56 28.04 36.56 28.64C36.56 29.28 37.08 29.76 37.68 29.76C38.32 29.76 38.80 29.28 38.80 28.64C38.80 28.04 38.32 27.52 37.72 27.52ZM52.60 27.60L49.48 27.80L49.48 28.60L50.12 28.60C50.80 28.60 50.92 28.72 50.92 29.48L50.92 33.80L50.92 34.20L50.92 34.64C50.92 34.92 50.88 35.04 50.80 35.12C50.68 35.28 50.32 35.36 49.56 35.36L49.48 35.36L49.48 36L54.04 36L54.04 35.36L53.96 35.36C52.76 35.32 52.60 35.20 52.60 34.56L52.60 33.80L52.60 31.92C52.60 31.04 52.72 30.20 52.92 29.80C53.28 29 54.12 28.44 54.88 28.44C55.36 28.44 55.88 28.72 56.16 29.08C56.44 29.48 56.56 30 56.56 30.88L56.56 33.80L56.56 34.64C56.56 34.92 56.52 35.04 56.44 35.12C56.32 35.28 55.96 35.36 55.20 35.36L55.12 35.36L55.12 36L59.68 36L59.68 35.36L59.60 35.36C58.40 35.32 58.24 35.20 58.24 34.56L58.24 33.80L58.24 30.96C58.24 29.68 58.20 29.32 57.88 28.72C57.44 27.84 56.52 27.36 55.44 27.36C54.28 27.36 53.40 27.88 52.60 29.08ZM65.48 27.60L65.48 24.04L64.76 24.04C64.60 26.36 63.76 27.56 62.32 27.68L62.32 28.40L63.80 28.40L63.80 32.96C63.80 34.24 63.84 34.72 64 35.12C64.28 35.88 65.04 36.28 66.08 36.28C67.68 36.28 68.72 35.04 68.72 33.12L68.72 32.72L67.96 32.72C67.92 34.32 67.44 35.16 66.56 35.16C66.16 35.16 65.76 34.96 65.64 34.64C65.52 34.40 65.48 33.92 65.48 33.28L65.48 28.40L68.12 28.40L68.12 27.60ZM72.72 39.32C74.32 38.20 75.08 37.12 75.08 35.84C75.08 34.76 74.48 34.04 73.60 34.04C72.92 34.04 72.44 34.52 72.44 35.12C72.44 35.76 72.92 36.20 73.68 36.20C73.76 36.20 73.88 36.16 73.92 36.16L74 36.16C74.08 36.16 74.12 36.24 74.12 36.36C74.12 37.12 73.48 37.96 72.28 38.80ZM73.72 27.52C73.08 27.52 72.56 28.04 72.56 28.64C72.56 29.28 73.08 29.76 73.68 29.76C74.32 29.76 74.80 29.28 74.80 28.64C74.80 28.04 74.32 27.52 73.72 27.52ZM85.96 64L85.96 39.64C86.60 40.20 87.48 40.52 88.48 40.52C91.68 40.52 95.64 37.52 95.64 34.48C95.64 32.68 94.20 31.48 92.12 31.48C88.16 31.48 85 34.40 85 37.52L85 64Z"/>
	</g>
</svg>