<svg xmlns="http://www.w3.org/2000/svg" xmlns:xlink="http://www.w3.org/1999/xlink" height="80" width="98" style="padding: 0px">
	<g transform="translate(0 0)">
		<path d="M0.96 64L0.96 39.64C1.60 40.20 2.48 40.52 3.48 40.52C6.68 40.52 10.64 37.52 10.64 34.48C10.64 32.68 9.20 31.48 7.12 31.48C3.16 31.48 0 34.40 0 37.52L0 64ZM20.60 27.60L17.48 27.80L17.48 28.60L18.12 28.60C18.80 28.60 18.92 28.72 18.92 29.48L18.92 33.80L18.92 34.20L18.92 34.64C18.92 34.92 18.88 35.04 18.80 35.12C18.68 35.28 18.32 35.36 17.56 35.36L17.48 35.36L17.48 36L22.04 36L22.04 35.36L21.96 35.36C20.76 35.32 20.60 35.20 20.60 34.56L20.60 33.80L20.60 31.92C20.60 31.04 20.72 30.20 20.92 29.80C21.28 29 22.12 28.44 22.88 28.44C23.36 28.44 23.88 28.72 24.16 29.08C24.44 29.48 24.56 30 24.56 30.88L24.56 33.80L24.56 34.64C24.56 34.92 24.52 35.04 24.44 35.12C24.32 35.28 23.96 35.36 23.20 35.36L23.12 35.36L23.12 36L27.68 36L27.68 35.36L27.60 35.36C26.40 35.32 26.24 35.20 26.24 34.56L26.24 33.80L26.24 30.96C26.24 29.68 26.20 29.32 25.88 28.72C25.44 27.84 24.52 27.36 23.44 27.36C22.28 27.36 21.40 27.88 20.60 29.08ZM33.48 27.60L33.48 24.04L32.76 24.04C32.60 26.36 31.76 27.56 30.32 27.68L30.32 28.40L31.80 28.40L31.80 32.96C31.80 34.24 31.84 34.72 32 35.12C32.28 35.88 33.04 36.28 34.08 36.28C35.68 36.28 36.72 35.04 36.72 33.12L36.72 32.72L35.96 32.72C35.92 34.32 35.44 35.16 34.56 35.16C34.16 35.16 33.76 34.96 33.64 34.64C33.52 34.40 33.48 33.92 33.48 33.28L33.48 28.40L36.12 28.40L36.12 27.60ZM40.72 39.32C42.32 38.20 43.08 37.12 43.08 35.84C43.08 34.76 42.48 34.04 41.60 34.04C40.92 34.04 40.44 34.52 40.44 35.12C40.44 35.76 40.92 36.20 41.68 36.20C41.76 36.20 41.88 36.16 41.92 36.16L42 36.16C42.08 36.16 42.12 36.24 42.12 36.36C42.12 37.12 41.48 37.96 40.28 38.80ZM41.72 27.52C41.08 27.52 40.56 28.04 40.56 28.64C40.56 29.28 41.08 29.76 41.68 29.76C42.32 29.76 42.80 29.28 42.80 28.64C42.80 28.04 42.32 27.52 41.72 27.52ZM56.60 27.60L53.48 27.80L53.48 28.60L54.12 28.60C54.80 28.60 54.92 28.72 54.92 29.48L54.92 33.80L54.92 34.20L54.92 34.64C54.92 34.92 54.88 35.04 54.80 35.12C54.68 35.28 54.32 35.36 53.56 35.36L53.48 35.36L53.48 36L58.04 36L58.04 35.36L57.96 35.36C56.76 35.32 56.60 35.20 56.60 34.56L56.60 33.80L56.60 31.92C56.60 31.04 56.72 30.20 56.92 29.80C57.28 29 58.12 28.44 58.88 28.44C59.36 28.44 59.88 28.72 60.16 29.08C60.44 29.48 60.56 30 60.56 30.88L60.56 33.80L60.56 34.64C60.56 34.92 60.52 35.04 60.44 35.12C60.32 35.28 59.96 35.36 59.20 35.36L59.12 35.36L59.12 36L63.68 36L63.68 35.36L63.60 35.36C62.40 35.32 62.24 35.20 62.24 34.56L62.24 33.80L62.24 30.96C62.24 29.68 62.20 29.32 61.88 28.72C61.44 27.84 60.52 27.36 59.44 27.36C58.28 27.36 57.40 27.88 56.60 29.08ZM69.48 27.60L69.48 24.04L68.76 24.04C68.60 26.36 67.76 27.56 66.32 27.68L66.32 28.40L67.80 28.40L67.80 32.96C67.80 34.24 67.84 34.72 68 35.12C68.28 35.88 69.04 36.28 70.08 36.28C71.68 36.28 72.72 35.04 72.72 33.12L72.72 32.72L71.96 32.72C71.92 34.32 71.44 35.16 70.56 35.16C70.16 35.16 69.76 34.96 69.64 34.64C69.52 34.40 69.48 33.92 69.48 33.28L69.48 28.40L72.12 28.40L72.12 27.60ZM76.72 39.32C78.32 38.20 79.08 37.12 79.08 35.84C79.08 34.76 78.48 34.04 77.60 34.04C76.92 34.04 76.44 34.52 76.44 35.12C76.44 35.76 76.92 36.20 77.68 36.20C77.76 36.20 77.88 36.16 77.92 36.16L78 36.16C78.08 36.16 78.12 36.24 78.12 36.36C78.12 37.12 77.48 37.96 76.28 38.80ZM77.72 27.52C77.08 27.52 76.56 28.04 76.56 28.64C76.56 29.28 77.08 29.76 77.68 29.76C78.32 29.76 78.80 29.28 78.80 28.64C78.80 28.04 78.32 27.52 77.72 27.52ZM85.96 64L85.96 39.64C86.60 40.20 87.48 40.52 88.48 40.52C91.68 40.52 95.64 37.52 95.64 34.48C95.64 32.68 94.20 31.48 92.12 31.48C88.16 31.48 85 34.40 85 37.52L85 64Z"/>
	</g>
</svg>