<svg xmlns="http://www.w3.org/2000/svg" xmlns:xlink="http://www.w3.org/1999/xlink" width="24" height="80" style="padding: 0px"><path d="M0.96 56L0.96 31.64C1.60 32.20 2.48 32.52 3.48 32.52C6.68 32.52 10.64 29.52 10.64 26.48C10.64 24.68 9.20 23.48 7.12 23.48C3.16 23.48 0 26.40 0 29.52L0 56ZM18 34.80L18 47.48L19 47.48L19 34.80L24 41.52L24 38L18.52 30.48L13 38L13 41.52ZM13.96 64L13.96 39.64C14.60 40.20 15.48 40.52 16.48 40.52C19.68 40.52 23.64 37.52 23.64 34.48C23.64 32.68 22.20 31.48 20.12 31.48C16.16 31.48 13 34.40 13 37.52L13 64Z"/></svg>