<svg xmlns="http://www.w3.org/2000/svg" xmlns:xlink="http://www.w3.org/1999/xlink" height="84" width="212.8125">
	<g transform="translate(2 2)">
		<path d="M0 33.36C0 34.17 0.30 34.81 0.89 35.28C1.48 35.76 2.23 36.00 3.13 36.00C4.06 36.00 5.02 35.74 6.00 35.23C6.97 34.73 7.79 34.05 8.45 33.20C9.10 32.36 9.43 31.50 9.43 30.63C9.43 29.83 9.15 29.19 8.57 28.71C8.00 28.23 7.25 27.99 6.33 27.99C4.60 27.99 3.11 28.53 1.87 29.62C0.62 30.71 0 31.95 0 33.36ZM16.00 20.51L16.00 19.47L0 19.47L0 20.51ZM16.00 28.52L16.00 27.48L0 27.48L0 28.52ZM0 51.46L0 52.52L16.00 52.52L16.00 51.46ZM16.00 36.50L16.00 35.47L0 35.47L0 36.50ZM0 43.48L0 44.51L16.00 44.51L16.00 43.48ZM11.00 31.99C11.00 33.10 11.39 34.04 12.17 34.82C12.95 35.61 13.89 36.00 15 36.00C16.11 36.00 17.05 35.61 17.83 34.82C18.61 34.04 19.00 33.10 19.00 31.99C19.00 30.89 18.61 29.94 17.83 29.16C17.05 28.38 16.11 27.99 15 27.99C13.89 27.99 12.95 28.38 12.17 29.16C11.39 29.94 11.00 30.89 11.00 31.99ZM13.28 34.47L17.44 30.31C17.78 30.78 17.95 31.34 17.95 31.99C17.95 32.83 17.66 33.53 17.09 34.10C16.52 34.67 15.82 34.96 15 34.96C14.36 34.96 13.79 34.80 13.28 34.47ZM12.03 31.99C12.03 31.16 12.32 30.46 12.90 29.88C13.48 29.31 14.18 29.02 15 29.02C15.64 29.02 16.21 29.19 16.72 29.51L12.56 33.67C12.21 33.18 12.03 32.62 12.03 31.99ZM24.00 20.51L24.00 19.47L16.00 19.47L16.00 20.51ZM24.00 28.52L24.00 27.48L16.00 27.48L16.00 28.52ZM16.00 51.46L16.00 52.52L24.00 52.52L24.00 51.46ZM24.00 36.50L24.00 35.47L16.00 35.47L16.00 36.50ZM16.00 43.48L16.00 44.51L24.00 44.51L24.00 43.48ZM31.00 7.91L31.00 10L21.00 10L21.00 13.98L31.00 13.98L31.00 15.96L21.00 15.96L21.00 19.96L31.00 19.96L31.00 28.28C30.31 27.72 29.45 27.44 28.44 27.44C26.48 27.44 24.81 28.05 23.41 29.27C22.01 30.49 21.31 31.89 21.31 33.48C21.31 34.39 21.64 35.11 22.30 35.65C22.97 36.19 23.80 36.46 24.80 36.46C25.86 36.46 26.94 36.18 28.05 35.62C29.15 35.05 30.08 34.29 30.82 33.35C31.56 32.41 31.94 31.45 31.95 30.47L31.95 3.91L21.00 3.91L21.00 7.91ZM39.98 20.51L39.98 19.47L23.98 19.47L23.98 20.51ZM39.98 28.52L39.98 27.48L23.98 27.48L23.98 28.52ZM23.98 51.46L23.98 52.52L39.98 52.52L39.98 51.46ZM39.98 36.50L39.98 35.47L23.98 35.47L23.98 36.50ZM23.98 43.48L23.98 44.51L39.98 44.51L39.98 43.48ZM34.06 48.22L39.67 56.23C39.77 56.33 39.88 56.39 39.98 56.39L46.23 56.39C46.46 56.39 46.58 56.26 46.58 56.00C46.58 55.94 46.56 55.87 46.50 55.76L40.90 47.75C40.79 47.65 40.69 47.60 40.59 47.60L34.38 47.60C34.19 47.60 34.08 47.68 34.02 47.83C34.00 47.86 33.98 47.90 33.98 47.95C33.98 48.03 34.01 48.12 34.06 48.22ZM40.39 48.40L45.47 55.59L40.18 55.59L35.10 48.40ZM55.96 20.51L55.96 19.47L39.96 19.47L39.96 20.51ZM55.96 28.52L55.96 27.48L39.96 27.48L39.96 28.52ZM39.96 51.46L39.96 52.52L55.96 52.52L55.96 51.46ZM55.96 36.50L55.96 35.47L39.96 35.47L39.96 36.50ZM39.96 43.48L39.96 44.51L55.96 44.51L55.96 43.48ZM49.10 56.31C49.21 56.36 49.28 56.39 49.34 56.39L49.47 56.35L61.07 52.34C61.26 52.29 61.35 52.17 61.35 51.99C61.35 51.81 61.26 51.69 61.07 51.64L49.47 47.64C49.42 47.61 49.36 47.60 49.30 47.60C49.27 47.60 49.21 47.62 49.10 47.68C49.00 47.78 48.95 47.88 48.95 47.99L48.95 56.00C48.95 56.10 49.00 56.20 49.10 56.31ZM63.95 20.51L63.95 19.47L55.94 19.47L55.94 20.51ZM63.95 28.52L63.95 27.48L55.94 27.48L55.94 28.52ZM55.94 51.46L55.94 52.52L63.95 52.52L63.95 51.46ZM63.95 36.50L63.95 35.47L55.94 35.47L55.94 36.50ZM55.94 43.48L55.94 44.51L63.95 44.51L63.95 43.48ZM72.32 56.00C74.76 56.00 76.52 55.63 77.60 54.88C78.68 54.14 79.22 53.16 79.22 51.95L79.22 56.72C79.22 56.88 79.32 56.95 79.53 56.95L79.96 56.95C80.18 56.95 80.29 56.88 80.29 56.72L80.29 47.27C80.29 47.21 80.26 47.16 80.19 47.11C80.11 47.06 80.04 47.03 79.96 47.03L79.53 47.03C79.45 47.03 79.38 47.06 79.32 47.11C79.25 47.16 79.22 47.21 79.22 47.27L79.22 51.95C79.22 51.22 78.88 50.55 78.20 49.92C77.53 49.30 76.69 48.82 75.68 48.49C74.68 48.15 73.67 47.99 72.66 47.99C70.60 47.99 68.94 48.37 67.69 49.12C66.43 49.88 65.80 50.82 65.80 51.95C65.80 53.10 66.33 54.06 67.40 54.83C68.47 55.61 70.11 56.00 72.32 56.00ZM69.26 50.70C69.26 50.36 69.27 50.13 69.30 50C69.57 49.14 70.41 48.71 71.82 48.71C72.87 48.71 73.79 49.17 74.58 50.09C75.37 51.01 75.76 51.97 75.76 52.99C75.76 53.50 75.63 53.95 75.37 54.35C75.11 54.74 74.75 55 74.30 55.12C74.11 55.20 73.81 55.23 73.38 55.23C72.96 55.23 72.66 55.20 72.48 55.12C71.58 54.83 70.82 54.26 70.20 53.40C69.57 52.54 69.26 51.64 69.26 50.70ZM81.05 56.72C81.05 56.88 81.16 56.95 81.37 56.95L81.78 56.95C81.99 56.95 82.09 56.88 82.09 56.72L82.09 47.27C82.09 47.11 81.99 47.03 81.78 47.03L81.37 47.03C81.30 47.03 81.23 47.06 81.16 47.11C81.09 47.16 81.05 47.21 81.05 47.27ZM64.77 47.27L64.77 56.72C64.77 56.88 64.88 56.95 65.10 56.95L65.45 56.95C65.66 56.95 65.76 56.88 65.76 56.72L65.76 47.27C65.76 47.21 65.73 47.16 65.66 47.11C65.60 47.06 65.53 47.03 65.45 47.03L65.10 47.03C64.88 47.03 64.77 47.11 64.77 47.27ZM63.20 56.95L63.65 56.95C63.83 56.95 63.93 56.88 63.93 56.72L63.93 47.27C63.93 47.11 63.83 47.03 63.65 47.03L63.20 47.03C63.02 47.03 62.93 47.11 62.93 47.27L62.93 56.72C62.93 56.88 63.02 56.95 63.20 56.95ZM63.93 51.46L63.93 52.52L87.93 52.52L87.93 51.46ZM87.93 28.52L87.93 27.48L63.93 27.48L63.93 28.52ZM87.93 36.50L87.93 35.47L63.93 35.47L63.93 36.50ZM63.93 43.48L63.93 44.51L87.93 44.51L87.93 43.48ZM87.93 20.51L87.93 19.47L63.93 19.47L63.93 20.51ZM85.92 27.99L85.92 36.00C85.92 36.13 85.97 36.24 86.07 36.35C86.18 36.45 86.30 36.50 86.45 36.50L109.92 36.50L109.92 51.99C109.92 52.14 109.97 52.26 110.08 52.36C110.18 52.47 110.30 52.52 110.43 52.52C110.57 52.52 110.70 52.46 110.80 52.35C110.90 52.24 110.96 52.12 110.96 51.99L110.96 27.99C110.96 27.86 110.90 27.74 110.80 27.64C110.70 27.53 110.57 27.48 110.43 27.48L86.45 27.48C86.30 27.48 86.18 27.53 86.07 27.64C85.97 27.74 85.92 27.86 85.92 27.99ZM87.91 51.46L87.91 52.52L111.91 52.52L111.91 51.46ZM111.91 28.52L111.91 27.48L87.91 27.48L87.91 28.52ZM111.91 36.50L111.91 35.47L87.91 35.47L87.91 36.50ZM87.91 43.48L87.91 44.51L111.91 44.51L111.91 43.48ZM111.91 20.51L111.91 19.47L87.91 19.47L87.91 20.51ZM119.90 20.51L119.90 19.47L111.89 19.47L111.89 20.51ZM119.90 28.52L119.90 27.48L111.89 27.48L111.89 28.52ZM111.89 51.46L111.89 52.52L119.90 52.52L119.90 51.46ZM119.90 36.50L119.90 35.47L111.89 35.47L111.89 36.50ZM111.89 43.48L111.89 44.51L119.90 44.51L119.90 43.48ZM112.89 27.99L112.89 36.00C112.89 36.13 112.94 36.24 113.05 36.35C113.15 36.45 113.27 36.50 113.42 36.50L137.40 36.50C137.55 36.50 137.67 36.45 137.77 36.35C137.88 36.24 137.93 36.13 137.93 36.00L137.93 27.99C137.93 27.87 137.87 27.76 137.76 27.65C137.65 27.54 137.53 27.48 137.40 27.48L113.42 27.48C113.29 27.48 113.17 27.54 113.06 27.65C112.95 27.76 112.89 27.87 112.89 27.99ZM119.88 51.46L119.88 52.52L143.89 52.52L143.89 51.46ZM143.89 28.52L143.89 27.48L119.88 27.48L119.88 28.52ZM143.89 36.50L143.89 35.47L119.88 35.47L119.88 36.50ZM119.88 43.48L119.88 44.51L143.89 44.51L143.89 43.48ZM143.89 20.51L143.89 19.47L119.88 19.47L119.88 20.51ZM139.88 48.40L139.88 55.76C139.88 55.98 139.96 56.17 140.12 56.32C140.27 56.47 140.46 56.54 140.68 56.54L140.80 56.54L164.16 52.56C164.38 52.55 164.56 52.45 164.71 52.29C164.85 52.12 164.92 51.93 164.92 51.72L164.92 44.36C164.92 44.12 164.85 43.93 164.70 43.78C164.55 43.63 164.36 43.55 164.12 43.55L164.00 43.59L140.64 47.52C140.42 47.56 140.24 47.66 140.10 47.82C139.95 47.99 139.88 48.18 139.88 48.40ZM143.87 51.46L143.87 52.52L167.87 52.52L167.87 51.46ZM167.87 28.52L167.87 27.48L143.87 27.48L143.87 28.52ZM167.87 36.50L167.87 35.47L143.87 35.47L143.87 36.50ZM143.87 43.48L143.87 44.51L167.87 44.51L167.87 43.48ZM167.87 20.51L167.87 19.47L143.87 19.47L143.87 20.51ZM166.86 27.15L167.17 28.40L167.95 31.21C168.47 33.09 169.00 34.96 169.54 36.85C170.08 38.73 170.37 39.68 170.41 39.71C170.71 39.93 171.09 40.04 171.54 40.04C172.15 40.04 172.46 39.89 172.46 39.59C172.30 39.00 171.98 37.99 171.49 36.55C171.01 35.11 170.56 33.80 170.15 32.61C169.74 31.42 169.52 30.76 169.49 30.63C169.47 30.55 169.45 30.44 169.45 30.31C169.45 30.10 169.51 30 169.61 30C169.67 30 169.73 30.01 169.79 30.04C170.14 30.25 170.52 30.40 170.94 30.51C171.39 30.68 171.80 30.76 172.17 30.76C172.27 30.76 172.43 30.74 172.64 30.69C172.85 30.65 172.97 30.63 173.01 30.63C173.48 30.51 173.89 30.25 174.25 29.85C174.61 29.46 174.79 29.02 174.79 28.55C174.79 27.98 174.57 27.48 174.15 27.06C173.73 26.64 173.22 26.43 172.62 26.43C172.02 26.43 171.51 26.64 171.08 27.06C170.66 27.48 170.45 27.98 170.45 28.55L170.45 28.87C170.14 28.87 169.77 28.71 169.35 28.40C168.92 28.09 168.53 27.74 168.15 27.37L167.58 26.80C167.47 26.69 167.36 26.64 167.25 26.64C166.99 26.77 166.86 26.94 166.86 27.15ZM183.85 20.51L183.85 19.47L167.85 19.47L167.85 20.51ZM183.85 28.52L183.85 27.48L167.85 27.48L167.85 28.52ZM167.85 51.46L167.85 52.52L183.85 52.52L183.85 51.46ZM183.85 36.50L183.85 35.47L167.85 35.47L167.85 36.50ZM167.85 43.48L167.85 44.51L183.85 44.51L183.85 43.48ZM176.84 32.27C176.84 34.28 177.42 35.98 178.59 37.36C179.77 38.74 181.33 39.43 183.28 39.43C184.74 39.43 186.04 38.99 187.19 38.12C188.33 37.24 189.04 36.18 189.32 34.96C189.45 34.34 189.51 33.80 189.51 33.36C189.51 32.76 189.43 32.18 189.26 31.62C189.09 31.06 188.95 30.70 188.85 30.54C188.74 30.37 188.66 30.25 188.59 30.16C188.50 29.93 188.37 29.82 188.20 29.82L187.99 29.82C187.95 29.85 187.73 29.93 187.34 30.07C186.95 30.21 186.53 30.37 186.08 30.58C185.63 30.78 185.30 30.98 185.08 31.19C184.97 31.30 184.92 31.40 184.92 31.50C184.92 31.62 184.97 31.71 185.08 31.76L185.31 32.03C185.48 32.21 185.67 32.44 185.89 32.71C186.10 32.99 186.32 33.29 186.54 33.62C186.76 33.96 186.95 34.31 187.10 34.70C187.25 35.08 187.32 35.44 187.32 35.76C187.32 36.35 187.06 36.82 186.52 37.19C185.86 37.59 185.23 37.79 184.63 37.79C183.83 37.79 183.10 37.47 182.42 36.84C181.74 36.20 181.22 35.41 180.85 34.47C180.48 33.54 180.29 32.59 180.27 31.64C180.27 30.22 180.63 29.05 181.36 28.12C182.08 27.18 183.05 26.72 184.28 26.72C184.49 26.72 184.70 26.74 184.93 26.77C185.16 26.80 185.36 26.84 185.53 26.88C185.70 26.91 185.92 26.98 186.19 27.06C186.46 27.15 186.66 27.21 186.79 27.26C186.91 27.30 187.13 27.39 187.45 27.51C187.77 27.63 187.98 27.71 188.07 27.75C188.08 27.75 188.10 27.76 188.12 27.77C188.13 27.79 188.15 27.79 188.16 27.79C188.32 27.79 188.46 27.71 188.59 27.56L189.20 26.64C189.23 26.61 189.24 26.58 189.24 26.54C189.24 26.46 189.13 26.35 188.91 26.19C188.53 25.81 187.97 25.45 187.23 25.11C186.48 24.76 185.61 24.59 184.59 24.59C183.03 24.59 181.43 25.08 179.80 26.07C178.87 26.63 178.14 27.48 177.62 28.61C177.10 29.75 176.84 30.96 176.84 32.27ZM191.84 20.51L191.84 19.47L183.83 19.47L183.83 20.51ZM191.84 28.52L191.84 27.48L183.83 27.48L183.83 28.52ZM183.83 51.46L183.83 52.52L191.84 52.52L191.84 51.46ZM191.84 36.50L191.84 35.47L183.83 35.47L183.83 36.50ZM183.83 43.48L183.83 44.51L191.84 44.51L191.84 43.48ZM191.89 35.59C191.89 35.55 192.26 35.50 192.98 35.44C193.70 35.38 194.14 35.35 194.30 35.35L197.30 35.16C197.57 35.13 197.98 35.12 198.54 35.12C198.56 35.12 198.57 35.17 198.57 35.27C198.57 35.59 198.52 36.18 198.40 37.04C198.28 37.91 198.20 38.42 198.14 38.59C198.03 39.26 197.83 39.94 197.56 40.63C197.29 41.33 197.03 41.89 196.80 42.32C196.56 42.75 196.21 43.37 195.74 44.16L199.14 48.87L202.62 44.24L201.46 41.95C201.01 41.02 200.68 40.07 200.49 39.12C200.23 38.16 200.06 37.43 199.98 36.95C199.97 36.80 199.94 36.57 199.89 36.26C199.85 35.95 199.81 35.67 199.79 35.42C199.76 35.17 199.75 34.93 199.75 34.71C199.68 33.63 199.65 32.99 199.65 32.79L199.65 32.34C199.65 31.80 199.73 30.77 199.90 29.28L199.94 28.22L199.34 28.22L199.14 29.43L198.98 29.43C198.79 29.43 198.41 29.42 197.86 29.39C197.31 29.37 197.02 29.36 197.01 29.36C196.39 29.30 195.49 29.22 194.34 29.09C193.18 28.97 192.47 28.89 192.21 28.87L192.05 30.16C191.95 31.02 191.89 31.48 191.89 31.54C191.84 32.45 191.82 33.11 191.82 33.52L191.82 34.63ZM207.81 20.51L207.81 19.47L191.82 19.47L191.82 20.51ZM207.81 28.52L207.81 27.48L191.82 27.48L191.82 28.52ZM191.82 51.46L191.82 52.52L207.81 52.52L207.81 51.46ZM207.81 36.50L207.81 35.47L191.82 35.47L191.82 36.50ZM191.82 43.48L191.82 44.51L207.81 44.51L207.81 43.48Z"/>
	</g>
</svg>