<svg xmlns="http://www.w3.org/2000/svg" xmlns:xlink="http://www.w3.org/1999/xlink" height="84" width="213">
	<g transform="translate(2 2)">
		<path d="M0 33.36C0 35 1.36 36 3.12 36C5.96 36 9.44 33.36 9.44 30.64C9.44 29.04 8.16 28 6.32 28C2.80 28 0 30.60 0 33.36ZM16 20.52L16 19.48L0 19.48L0 20.52ZM16 28.52L16 27.48L0 27.48L0 28.52ZM0 51.48L0 52.52L16 52.52L16 51.48ZM16 36.52L16 35.48L0 35.48L0 36.52ZM0 43.48L0 44.52L16 44.52L16 43.48ZM11 32C11 34.20 12.80 36 15 36C17.20 36 19 34.20 19 32C19 29.80 17.20 28 15 28C12.80 28 11 29.80 11 32ZM13.28 34.48L17.44 30.32C17.80 30.80 17.96 31.36 17.96 32C17.96 33.68 16.64 34.96 15 34.96C14.36 34.96 13.76 34.80 13.28 34.48ZM12.04 32C12.04 30.32 13.36 29.04 15 29.04C15.64 29.04 16.24 29.20 16.72 29.52L12.56 33.68C12.20 33.20 12.04 32.64 12.04 32ZM24 20.52L24 19.48L16 19.48L16 20.52ZM24 28.52L24 27.48L16 27.48L16 28.52ZM16 51.48L16 52.52L24 52.52L24 51.48ZM24 36.52L24 35.48L16 35.48L16 36.52ZM16 43.48L16 44.52L24 44.52L24 43.48ZM31 7.92L31 10L21 10L21 14L31 14L31 15.96L21 15.96L21 19.96L31 19.96L31 28.28C30.36 27.76 29.48 27.44 28.44 27.44C24.48 27.44 21.32 30.36 21.32 33.48C21.32 35.36 22.84 36.48 24.80 36.48C28 36.48 31.92 33.52 31.96 30.48L31.96 3.92L21 3.92L21 7.92ZM40 20.52L40 19.48L24 19.48L24 20.52ZM40 28.52L40 27.48L24 27.48L24 28.52ZM24 51.48L24 52.52L40 52.52L40 51.48ZM40 36.52L40 35.48L24 35.48L24 36.52ZM24 43.48L24 44.52L40 44.52L40 43.48ZM34.08 48.24L39.68 56.24C39.76 56.32 39.84 56.40 40 56.40L46.24 56.40C46.44 56.40 46.60 56.24 46.60 56C46.60 55.92 46.56 55.84 46.52 55.76L40.92 47.76C40.84 47.68 40.72 47.60 40.60 47.60L34.40 47.60C34.24 47.60 34.08 47.72 34.04 47.84C34 47.88 34 47.92 34 47.96C34 48.08 34.04 48.16 34.08 48.24ZM40.40 48.40L45.48 55.60L40.20 55.60L35.12 48.40ZM56 20.52L56 19.48L40 19.48L40 20.52ZM56 28.52L56 27.48L40 27.48L40 28.52ZM40 51.48L40 52.52L56 52.52L56 51.48ZM56 36.52L56 35.48L40 35.48L40 36.52ZM40 43.48L40 44.52L56 44.52L56 43.48ZM49.16 56.32C49.24 56.36 49.28 56.40 49.40 56.40C49.40 56.40 49.44 56.40 49.52 56.36L61.12 52.36C61.28 52.32 61.40 52.16 61.40 52C61.40 51.84 61.28 51.68 61.12 51.64L49.52 47.64C49.44 47.60 49.40 47.60 49.36 47.60C49.28 47.60 49.24 47.64 49.16 47.68C49.08 47.76 49 47.88 49 48L49 56C49 56.12 49.08 56.24 49.16 56.32ZM64 20.52L64 19.48L56 19.48L56 20.52ZM64 28.52L64 27.48L56 27.48L56 28.52ZM56 51.48L56 52.52L64 52.52L64 51.48ZM64 36.52L64 35.48L56 35.48L56 36.52ZM56 43.48L56 44.52L64 44.52L64 43.48ZM72.40 56C77.60 56 79.28 54.16 79.28 51.96L79.28 56.72C79.28 56.88 79.44 56.96 79.60 56.96L80.04 56.96C80.20 56.96 80.36 56.88 80.36 56.72L80.36 47.28C80.36 47.16 80.20 47.04 80.04 47.04L79.60 47.04C79.44 47.04 79.28 47.16 79.28 47.28L79.28 51.96C79.28 49.68 75.72 48 72.72 48C68.52 48 65.88 49.76 65.88 51.96C65.88 54.04 67.68 56 72.40 56ZM69.32 50.72C69.32 50.44 69.32 50.20 69.36 50C69.72 48.88 70.92 48.72 71.88 48.72C74.08 48.72 75.84 51.08 75.84 53C75.84 53.96 75.32 54.88 74.36 55.12C74.08 55.24 73.76 55.24 73.44 55.24C73.12 55.24 72.84 55.24 72.56 55.12C70.76 54.56 69.32 52.60 69.32 50.72ZM81.12 56.72C81.12 56.88 81.32 56.96 81.44 56.96L81.84 56.96C82.04 56.96 82.16 56.88 82.16 56.72L82.16 47.28C82.16 47.16 82.04 47.04 81.84 47.04L81.44 47.04C81.32 47.04 81.12 47.16 81.12 47.28ZM64.84 47.28L64.84 56.72C64.84 56.88 64.96 56.96 65.16 56.96L65.52 56.96C65.68 56.96 65.84 56.88 65.84 56.72L65.84 47.28C65.84 47.16 65.68 47.04 65.52 47.04L65.16 47.04C64.96 47.04 64.84 47.16 64.84 47.28ZM63.28 56.96L63.72 56.96C63.88 56.96 64 56.88 64 56.72L64 47.28C64 47.16 63.88 47.04 63.72 47.04L63.28 47.04C63.08 47.04 63 47.16 63 47.28L63 56.72C63 56.88 63.08 56.96 63.28 56.96ZM64 51.48L64 52.52L88 52.52L88 51.48ZM88 28.52L88 27.48L64 27.48L64 28.52ZM88 36.52L88 35.48L64 35.48L64 36.52ZM64 43.48L64 44.52L88 44.52L88 43.48ZM88 20.52L88 19.48L64 19.48L64 20.52ZM86 28L86 36C86 36.28 86.24 36.52 86.52 36.52L110 36.52L110 52C110 52.28 110.24 52.52 110.52 52.52C110.80 52.52 111.04 52.28 111.04 52L111.04 28C111.04 27.72 110.80 27.48 110.52 27.48L86.52 27.48C86.24 27.48 86 27.72 86 28ZM88 51.48L88 52.52L112 52.52L112 51.48ZM112 28.52L112 27.48L88 27.48L88 28.52ZM112 36.52L112 35.48L88 35.48L88 36.52ZM88 43.48L88 44.52L112 44.52L112 43.48ZM112 20.52L112 19.48L88 19.48L88 20.52ZM120 20.52L120 19.48L112 19.48L112 20.52ZM120 28.52L120 27.48L112 27.48L112 28.52ZM112 51.48L112 52.52L120 52.52L120 51.48ZM120 36.52L120 35.48L112 35.48L112 36.52ZM112 43.48L112 44.52L120 44.52L120 43.48ZM113 28L113 36C113 36.28 113.24 36.52 113.52 36.52L137.52 36.52C137.80 36.52 138.04 36.28 138.04 36L138.04 28C138.04 27.76 137.80 27.48 137.52 27.48L113.52 27.48C113.24 27.48 113 27.76 113 28ZM120 51.48L120 52.52L144 52.52L144 51.48ZM144 28.52L144 27.48L120 27.48L120 28.52ZM144 36.52L144 35.48L120 35.48L120 36.52ZM120 43.48L120 44.52L144 44.52L144 43.48ZM144 20.52L144 19.48L120 19.48L120 20.52ZM140 48.40L140 55.76C140 56.20 140.36 56.56 140.80 56.56L140.92 56.56L164.28 52.56C164.72 52.52 165.04 52.12 165.04 51.72L165.04 44.36C165.04 43.92 164.72 43.56 164.24 43.56C164.24 43.56 164.16 43.60 164.12 43.60L140.76 47.52C140.32 47.60 140 47.96 140 48.40ZM144 51.48L144 52.52L168 52.52L168 51.48ZM168 28.52L168 27.48L144 27.48L144 28.52ZM168 36.52L168 35.48L144 35.48L144 36.52ZM144 43.48L144 44.52L168 44.52L168 43.48ZM168 20.52L168 19.48L144 19.48L144 20.52ZM167 27.16C167.04 27.32 167.20 27.84 167.32 28.40C167.32 28.40 170.44 39.64 170.56 39.72C170.88 39.96 171.32 40.04 171.68 40.04C171.88 40.04 172.60 40 172.60 39.60C172.04 37.52 169.72 31.12 169.64 30.64C169.60 30.52 169.60 30.40 169.60 30.32C169.60 30.16 169.64 30 169.76 30C169.80 30 169.84 30 169.92 30.04C170.32 30.28 170.60 30.40 171.08 30.52C171.40 30.64 171.88 30.76 172.32 30.76C172.60 30.76 172.88 30.68 173.16 30.64C174.08 30.40 174.92 29.52 174.92 28.56C174.92 27.40 173.96 26.44 172.76 26.44C171.56 26.44 170.60 27.40 170.60 28.56L170.60 28.88C169.56 28.88 167.96 26.96 167.72 26.80C167.56 26.64 167.44 26.64 167.40 26.64C167.32 26.68 167 26.84 167 27.16ZM184 20.52L184 19.48L168 19.48L168 20.52ZM184 28.52L184 27.48L168 27.48L168 28.52ZM168 51.48L168 52.52L184 52.52L184 51.48ZM184 36.52L184 35.48L168 35.48L168 36.52ZM168 43.48L168 44.52L184 44.52L184 43.48ZM177 32.28C177 36.16 179.40 39.44 183.44 39.44C186.40 39.44 188.96 37.36 189.48 34.96C189.60 34.40 189.68 33.84 189.68 33.36C189.68 31.32 188.76 30.16 188.76 30.16C188.68 29.96 188.56 29.84 188.36 29.84L188.16 29.84C187.92 30 186 30.48 185.24 31.20C185.16 31.28 185.08 31.44 185.08 31.52C185.08 31.64 185.16 31.72 185.24 31.76C185.28 31.84 187.48 34.04 187.48 35.76C187.48 36.32 187.24 36.80 186.68 37.20C186.04 37.60 185.40 37.80 184.80 37.80C182.32 37.80 180.48 34.44 180.44 31.64C180.44 28.88 181.92 26.72 184.44 26.72C185.72 26.72 186.96 27.28 188.24 27.76C188.28 27.76 188.28 27.80 188.32 27.80C188.56 27.80 188.76 27.56 188.76 27.56L189.36 26.64C189.40 26.60 189.40 26.60 189.40 26.56C189.40 26.44 189.08 26.20 189.08 26.20C188.60 25.72 187.08 24.60 184.76 24.60C183.44 24.60 181.80 24.96 179.96 26.08C178.04 27.24 177 29.76 177 32.28ZM192 20.52L192 19.48L184 19.48L184 20.52ZM192 28.52L192 27.48L184 27.48L184 28.52ZM184 51.48L184 52.52L192 52.52L192 51.48ZM192 36.52L192 35.48L184 35.48L184 36.52ZM184 43.48L184 44.52L192 44.52L192 43.48ZM192.08 35.60C192.08 35.52 194.28 35.36 194.48 35.36L197.48 35.16C197.88 35.12 198.32 35.12 198.72 35.12C198.76 35.12 198.76 35.20 198.76 35.28C198.76 35.96 198.40 38.32 198.32 38.60C197.92 40.72 197 42.32 195.92 44.16L199.32 48.88L202.80 44.24C202.80 44.24 201.68 41.96 201.64 41.96C201.20 41.04 200.88 40.08 200.68 39.12C200.48 38.40 200.28 37.68 200.16 36.96C200.08 36.24 199.92 35.48 199.92 34.72C199.88 34.08 199.84 33.44 199.84 32.80L199.84 32.36C199.84 31.32 199.96 30.32 200.08 29.28L200.12 28.24L199.52 28.24L199.32 29.44L199.16 29.44C198.68 29.44 197.32 29.36 197.20 29.36C195.60 29.24 194 29.04 192.40 28.88C192.40 28.88 192.28 29.52 192.24 30.16C192.16 30.80 192.08 31.44 192.08 31.56C192.04 32.24 192 32.88 192 33.52L192 34.64ZM208 20.52L208 19.48L192 19.48L192 20.52ZM208 28.52L208 27.48L192 27.48L192 28.52ZM192 51.48L192 52.52L208 52.52L208 51.48ZM208 36.52L208 35.48L192 35.48L192 36.52ZM192 43.48L192 44.52L208 44.52L208 43.48Z"/>
	</g>
</svg>