<svg xmlns="http://www.w3.org/2000/svg" xmlns:xlink="http://www.w3.org/1999/xlink" height="84" width="44.98046875">
	<g transform="translate(2 2)">
		<path d="M11.64 32.07C12.40 32.07 13.13 32.01 13.85 31.88C14.02 31.82 14.13 31.81 14.20 31.84C14.26 31.86 14.30 31.97 14.32 32.15C14.90 35.40 15.20 37.55 15.20 38.59C15.20 39.49 15.07 40.28 14.83 40.96C14.59 41.63 14.30 42.15 13.96 42.52C13.61 42.88 13.19 43.18 12.71 43.40C12.22 43.62 11.77 43.76 11.38 43.82C10.98 43.88 10.56 43.91 10.12 43.91C9.31 43.91 8.68 43.81 8.23 43.61C7.78 43.42 7.56 43.20 7.56 42.95C7.56 42.79 7.89 42.62 8.55 42.44C9.14 42.29 9.65 41.95 10.08 41.45C10.51 40.94 10.72 40.27 10.72 39.43C10.72 38.52 10.44 37.75 9.88 37.11C9.32 36.47 8.57 36.15 7.64 36.15C6.61 36.15 5.78 36.51 5.17 37.22C4.55 37.93 4.24 38.80 4.24 39.82C4.24 40.28 4.29 40.73 4.39 41.17C4.50 41.61 4.69 42.07 4.98 42.55C5.27 43.02 5.63 43.44 6.07 43.80C6.52 44.16 7.10 44.45 7.83 44.69C8.56 44.92 9.39 45.04 10.31 45.04C10.81 45.04 11.30 44.99 11.80 44.90C12.29 44.81 12.84 44.63 13.44 44.35C14.04 44.07 14.56 43.70 15.01 43.25C15.46 42.80 15.84 42.18 16.14 41.39C16.45 40.59 16.60 39.67 16.60 38.63C16.60 37.54 16.30 35.26 15.68 31.80C15.64 31.61 15.64 31.50 15.68 31.46C15.72 31.41 15.85 31.35 16.07 31.27C17.74 30.61 19.06 29.61 20.03 28.28C21.00 26.95 21.48 25.40 21.48 23.63C21.48 22.27 21.18 21.00 20.56 19.83C19.94 18.67 19.03 17.72 17.84 17.00C16.65 16.28 15.29 15.92 13.77 15.92C13.34 15.92 13.09 15.90 13.01 15.85C12.93 15.80 12.87 15.64 12.83 15.35L12.03 10.70C12.02 10.63 12.01 10.56 12.00 10.52C12.00 10.47 12.00 10.43 12.02 10.38C12.04 10.34 12.05 10.31 12.06 10.29C12.07 10.28 12.10 10.25 12.15 10.21C12.20 10.16 12.23 10.13 12.25 10.12C14.20 8.16 15.70 6.23 16.75 4.33C17.80 2.42 18.32 0.28 18.32-2.09C18.32-3.47 18.13-4.81 17.76-6.12C17.39-7.43 16.88-8.57 16.23-9.53C15.97-9.92 15.67-10.29 15.32-10.63C14.98-10.96 14.72-11.13 14.55-11.13C14.34-11.13 14.03-10.98 13.62-10.66C13.21-10.35 12.83-10 12.48-9.61C11.39-8.39 10.59-6.89 10.10-5.12C9.60-3.35 9.36-1.52 9.36 0.35C9.36 2.15 9.51 3.89 9.80 5.59C9.83 5.79 9.83 5.94 9.80 6.02C9.78 6.09 9.68 6.20 9.51 6.35C8.43 7.25 7.50 8.05 6.73 8.75C5.95 9.45 5.11 10.32 4.20 11.34C3.29 12.36 2.55 13.34 1.99 14.29C1.43 15.23 0.96 16.31 0.58 17.52C0.19 18.73 0 19.95 0 21.19C0 22.62 0.24 23.98 0.73 25.26C1.22 26.55 1.93 27.70 2.86 28.72C3.79 29.74 5.02 30.56 6.53 31.16C8.05 31.77 9.75 32.07 11.64 32.07ZM2.56 23.36C2.56 22.32 2.71 21.31 3.03 20.32C3.34 19.34 3.72 18.47 4.18 17.71C4.64 16.96 5.24 16.18 6.01 15.36C6.77 14.55 7.46 13.86 8.10 13.31C8.73 12.76 9.51 12.12 10.45 11.39C10.61 11.26 10.71 11.20 10.75 11.21C10.80 11.22 10.84 11.32 10.88 11.50L11.56 15.59C11.60 15.90 11.60 16.08 11.56 16.14C11.52 16.20 11.36 16.28 11.07 16.39C9.67 16.86 8.54 17.67 7.71 18.82C6.87 19.97 6.45 21.23 6.45 22.60C6.45 24.00 6.78 25.20 7.44 26.19C8.11 27.18 9.00 27.86 10.12 28.22C10.40 28.37 10.68 28.44 10.96 28.44C11.23 28.44 11.37 28.31 11.37 28.07C11.37 27.91 11.20 27.78 10.88 27.68C10.19 27.39 9.63 26.93 9.20 26.30C8.77 25.67 8.55 24.98 8.55 24.24C8.55 23.35 8.85 22.58 9.43 21.91C10.02 21.25 10.79 20.78 11.76 20.51C12.02 20.44 12.19 20.43 12.27 20.46C12.34 20.49 12.39 20.59 12.40 20.76L14.00 30.31C14.04 30.47 14.04 30.57 13.99 30.61C13.95 30.64 13.80 30.70 13.55 30.76C12.85 30.87 12.25 30.92 11.76 30.92C8.98 30.92 6.76 30.22 5.08 28.82C3.40 27.42 2.56 25.60 2.56 23.36ZM15.04-6.17C15.59-6.17 16.04-5.95 16.41-5.50C16.77-5.05 16.95-4.41 16.95-3.57C16.95-2.88 16.83-2.19 16.59-1.49C16.35-0.80 16.07-0.18 15.75 0.36C15.43 0.90 14.99 1.49 14.42 2.12C13.86 2.75 13.37 3.26 12.97 3.64C12.57 4.03 12.04 4.51 11.41 5.08C11.18 5.27 11.04 5.19 10.96 4.82C10.85 4.08 10.80 3.10 10.80 1.88C10.80-0.48 11.24-2.41 12.13-3.92C13.01-5.42 13.98-6.17 15.04-6.17ZM14.12 20.23C15.44 20.35 16.55 20.90 17.47 21.89C18.39 22.88 18.85 24.08 18.85 25.47C18.85 26.45 18.58 27.33 18.04 28.13C17.50 28.94 16.76 29.56 15.84 30C15.64 30.10 15.52 30.14 15.46 30.12C15.40 30.09 15.35 29.99 15.31 29.82L13.77 20.70C13.73 20.51 13.73 20.38 13.77 20.32C13.81 20.26 13.93 20.23 14.12 20.23ZM0 31.46L0 32.52L24.00 32.52L24.00 31.46ZM24.00 8.52L24.00 7.48L0 7.48L0 8.52ZM24.00 16.50L24.00 15.47L0 15.47L0 16.50ZM0 23.48L0 24.51L24.00 24.51L24.00 23.48ZM24.00 0.51L24.00-0.53L0-0.53L0 0.51ZM23.95 43.98L23.95 19.63C24.61 20.21 25.45 20.51 26.46 20.51C27.52 20.51 28.60 20.22 29.72 19.65C30.83 19.08 31.76 18.31 32.51 17.36C33.26 16.41 33.63 15.45 33.63 14.47C33.63 13.57 33.31 12.85 32.66 12.29C32.01 11.74 31.16 11.46 30.12 11.46C28.16 11.46 26.49 12.08 25.09 13.30C23.69 14.52 22.99 15.93 22.99 17.52L22.99 43.98ZM39.98 0.51L39.98-0.53L23.98-0.53L23.98 0.51ZM39.98 8.52L39.98 7.48L23.98 7.48L23.98 8.52ZM23.98 31.46L23.98 32.52L39.98 32.52L39.98 31.46ZM39.98 16.50L39.98 15.47L23.98 15.47L23.98 16.50ZM23.98 23.48L23.98 24.51L39.98 24.51L39.98 23.48Z"/>
	</g>
	<g transform="translate(2 42)">
		<path d="M0.96 43.98L0.96 19.63C1.62 20.21 2.46 20.51 3.48 20.51C4.53 20.51 5.62 20.22 6.73 19.65C7.84 19.08 8.77 18.31 9.52 17.36C10.27 16.41 10.64 15.45 10.64 14.47C10.64 13.57 10.32 12.85 9.67 12.29C9.02 11.74 8.17 11.46 7.13 11.46C5.18 11.46 3.50 12.08 2.10 13.30C0.70 14.52 0 15.93 0 17.52L0 43.98ZM16.00 0.51L16.00-0.53L0-0.53L0 0.51ZM16.00 8.52L16.00 7.48L0 7.48L0 8.52ZM0 31.46L0 32.52L16.00 32.52L16.00 31.46ZM16.00 16.50L16.00 15.47L0 15.47L0 16.50ZM0 23.48L0 24.51L16.00 24.51L16.00 23.48Z"/>
	</g>
</svg>