<svg xmlns="http://www.w3.org/2000/svg" xmlns:xlink="http://www.w3.org/1999/xlink" height="84" width="45">
	<g transform="translate(2 2)">
		<path d="M11.64 32.08C12.40 32.08 13.20 32 13.84 31.88C14.20 31.80 14.28 31.76 14.32 32.16C14.72 34.32 15.20 37.08 15.20 38.60C15.20 43.32 12 43.92 10.12 43.92C8.40 43.92 7.56 43.40 7.56 42.96C7.56 42.76 7.84 42.64 8.56 42.44C9.56 42.16 10.72 41.28 10.72 39.44C10.72 37.68 9.60 36.16 7.64 36.16C5.52 36.16 4.24 37.84 4.24 39.84C4.24 41.92 5.48 45.04 10.32 45.04C12.44 45.04 16.60 44.08 16.60 38.64C16.60 36.84 16.04 33.80 15.68 31.80C15.60 31.44 15.64 31.44 16.08 31.28C19.32 30 21.48 27.28 21.48 23.64C21.48 19.56 18.48 15.92 13.76 15.92C12.92 15.92 12.92 15.92 12.84 15.36L12.04 10.72C11.96 10.32 12.04 10.32 12.24 10.12C15.68 6.68 18.32 3.04 18.32-2.08C18.32-4.88 17.52-7.60 16.24-9.52C15.76-10.24 14.92-11.12 14.56-11.12C14.12-11.12 13.12-10.32 12.48-9.60C10.12-6.96 9.36-2.96 9.36 0.36C9.36 2.20 9.56 4.28 9.80 5.60C9.84 6 9.88 6.04 9.52 6.36C4.92 10.16 0 14.76 0 21.20C0 26.80 3.80 32.08 11.64 32.08ZM2.56 23.36C2.56 17.96 6.52 14.48 10.44 11.40C10.76 11.12 10.80 11.16 10.88 11.52L11.56 15.60C11.64 16.24 11.64 16.20 11.08 16.40C8.24 17.36 6.44 19.88 6.44 22.60C6.44 25.48 7.92 27.52 10.12 28.24C10.36 28.36 10.76 28.44 10.96 28.44C11.24 28.44 11.36 28.28 11.36 28.08C11.36 27.88 11.12 27.76 10.88 27.68C9.52 27.12 8.56 25.72 8.56 24.24C8.56 22.44 9.84 21.04 11.76 20.52C12.28 20.40 12.36 20.40 12.40 20.76L14 30.32C14.08 30.64 14.04 30.64 13.56 30.76C13.04 30.84 12.40 30.92 11.76 30.92C6.16 30.92 2.56 27.80 2.56 23.36ZM15.04-6.16C16.08-6.16 16.96-5.32 16.96-3.56C16.96 0.04 13.92 2.84 11.40 5.08C11.16 5.28 11.04 5.24 10.96 4.84C10.84 4 10.80 2.92 10.80 1.88C10.80-3.12 13.08-6.16 15.04-6.16ZM14.12 20.24C16.72 20.48 18.84 22.64 18.84 25.48C18.84 27.48 17.64 29.12 15.84 30C15.44 30.20 15.40 30.20 15.32 29.84L13.76 20.72C13.68 20.32 13.72 20.24 14.12 20.24ZM0 31.48L0 32.52L24 32.52L24 31.48ZM24 8.52L24 7.48L0 7.48L0 8.52ZM24 16.52L24 15.48L0 15.48L0 16.52ZM0 23.48L0 24.52L24 24.52L24 23.48ZM24 0.52L24-0.52L0-0.52L0 0.52ZM23.96 44L23.96 19.64C24.60 20.20 25.48 20.52 26.48 20.52C29.68 20.52 33.64 17.52 33.64 14.48C33.64 12.68 32.20 11.48 30.12 11.48C26.16 11.48 23 14.40 23 17.52L23 44ZM40 0.52L40-0.52L24-0.52L24 0.52ZM40 8.52L40 7.48L24 7.48L24 8.52ZM24 31.48L24 32.52L40 32.52L40 31.48ZM40 16.52L40 15.48L24 15.48L24 16.52ZM24 23.48L24 24.52L40 24.52L40 23.48Z"/>
	</g>
	<g transform="translate(2 42)">
		<path d="M0.96 44L0.96 19.64C1.60 20.20 2.48 20.52 3.48 20.52C6.68 20.52 10.64 17.52 10.64 14.48C10.64 12.68 9.20 11.48 7.12 11.48C3.16 11.48 0 14.40 0 17.52L0 44ZM16 0.52L16-0.52L0-0.52L0 0.52ZM16 8.52L16 7.48L0 7.48L0 8.52ZM0 31.48L0 32.52L16 32.52L16 31.48ZM16 16.52L16 15.48L0 15.48L0 16.52ZM0 23.48L0 24.52L16 24.52L16 23.48Z"/>
	</g>
</svg>