<svg xmlns="http://www.w3.org/2000/svg" xmlns:xlink="http://www.w3.org/1999/xlink" height="80" width="20" style="padding: 2px">
	<g transform="translate(0 0)">
		<path d="M16.52 36.64L16.52 35.36L0.52 35.36L0.52 36.64ZM3 13.52L3 40.12L3.08 40.12C3.16 40.20 3.24 40.24 3.36 40.24C3.60 40.24 3.76 40.20 3.92 40.12L3.96 40.12L3.96 40.08C4.16 40 4.24 39.80 4.28 39.52C4.84 36.48 7.20 33.68 8.84 31.16C10.84 28 12.80 24.20 12.80 20.20C12.80 17.68 12.16 15.44 11.88 14.40C11.88 14.32 11.84 14.24 11.80 14.16C12.88 13.12 13.64 11.80 13.64 10.48C13.64 8.68 12.20 7.48 10.12 7.48C6.16 7.48 3 10.40 3 13.52ZM3.96 31.88L3.96 15.64C4.60 16.20 5.48 16.52 6.48 16.52C7.88 16.52 9.32 15.96 10.60 15.12C10.60 15.24 10.64 15.32 10.68 15.44C11.12 16.80 11.36 18.40 11.36 19.84C11.36 21.72 10.56 24.40 10.08 25.52C9 28 7.56 30.36 3.96 31.88ZM19 20.52L19 19.48L3 19.48L3 20.52ZM19 28.52L19 27.48L3 27.48L3 28.52ZM3 51.48L3 52.52L19 52.52L19 51.48ZM19 36.52L19 35.48L3 35.48L3 36.52ZM3 43.48L3 44.52L19 44.52L19 43.48Z"/>
	</g>
</svg>