<svg xmlns="http://www.w3.org/2000/svg" xmlns:xlink="http://www.w3.org/1999/xlink" height="84" width="20.99609375">
	<g transform="translate(2 2)">
		<path d="M13.20 12.64L13.20 11.35L-2.56 11.35L-2.56 12.64ZM0 13.52L0 40.12L0.08 40.12C0.16 40.20 0.25 40.23 0.35 40.23C0.57 40.23 0.76 40.20 0.92 40.12L0.96 40.12L0.96 40.08C1.14 40.01 1.25 39.82 1.29 39.51C1.42 38.80 1.68 38.03 2.06 37.21C2.44 36.39 2.80 35.72 3.12 35.21C3.43 34.69 3.92 33.96 4.56 33.03C5.21 32.09 5.63 31.46 5.84 31.15C7.04 29.24 8.00 27.39 8.72 25.61C9.44 23.82 9.80 22.02 9.80 20.20C9.80 18.65 9.50 16.71 8.89 14.39C8.89 14.34 8.86 14.26 8.81 14.16C10.03 12.98 10.64 11.74 10.64 10.47C10.64 9.57 10.32 8.85 9.67 8.30C9.02 7.75 8.17 7.48 7.13 7.48C5.18 7.48 3.50 8.09 2.10 9.31C0.70 10.52 0 11.93 0 13.52ZM0.96 31.88L0.96 15.63C1.62 16.21 2.46 16.50 3.48 16.50C4.80 16.50 6.18 16.04 7.60 15.12C7.60 15.17 7.62 15.27 7.68 15.43C8.13 16.82 8.36 18.29 8.36 19.82C8.36 20.67 8.22 21.66 7.94 22.80C7.66 23.94 7.37 24.84 7.07 25.51C6.84 26.05 6.60 26.55 6.37 26.98C6.13 27.42 5.84 27.88 5.49 28.38C5.14 28.87 4.76 29.32 4.35 29.71C3.94 30.10 3.44 30.48 2.87 30.86C2.30 31.24 1.66 31.58 0.96 31.88ZM16.00 20.51L16.00 19.47L0 19.47L0 20.51ZM16.00 28.52L16.00 27.48L0 27.48L0 28.52ZM0 51.46L0 52.52L16.00 52.52L16.00 51.46ZM16.00 36.50L16.00 35.47L0 35.47L0 36.50ZM0 43.48L0 44.51L16.00 44.51L16.00 43.48Z"/>
	</g>
</svg>