<svg xmlns="http://www.w3.org/2000/svg" xmlns:xlink="http://www.w3.org/1999/xlink" height="84" width="28.96484375">
	<g transform="translate(2 2)">
		<path d="M0.96 63.98L0.96 39.63C1.62 40.21 2.46 40.51 3.48 40.51C4.53 40.51 5.62 40.22 6.73 39.65C7.84 39.08 8.77 38.31 9.52 37.36C10.27 36.41 10.64 35.45 10.64 34.47C10.64 33.57 10.32 32.85 9.67 32.29C9.02 31.74 8.17 31.46 7.13 31.46C5.18 31.46 3.50 32.08 2.10 33.30C0.70 34.52 0 35.93 0 37.52L0 63.98ZM16.00 20.51L16.00 19.47L0 19.47L0 20.51ZM16.00 28.52L16.00 27.48L0 27.48L0 28.52ZM0 51.46L0 52.52L16.00 52.52L16.00 51.46ZM16.00 36.50L16.00 35.47L0 35.47L0 36.50ZM0 43.48L0 44.51L16.00 44.51L16.00 43.48ZM24.00 20.51L24.00 19.47L16.00 19.47L16.00 20.51ZM24.00 28.52L24.00 27.48L16.00 27.48L16.00 28.52ZM16.00 51.46L16.00 52.52L24.00 52.52L24.00 51.46ZM24.00 36.50L24.00 35.47L16.00 35.47L16.00 36.50ZM16.00 43.48L16.00 44.51L24.00 44.51L24.00 43.48ZM23.42 51.99L24.59 51.99L24.59 20L23.42 20ZM21.13 51.99L21.13 20L19.98 20L19.98 51.99Z"/>
	</g>
</svg>