<svg xmlns="http://www.w3.org/2000/svg" xmlns:xlink="http://www.w3.org/1999/xlink" height="80" width="25" style="padding: 2px">
	<g transform="translate(0 0)">
		<path d="M0.96 64L0.96 39.64C1.60 40.20 2.48 40.52 3.48 40.52C6.68 40.52 10.64 37.52 10.64 34.48C10.64 32.68 9.20 31.48 7.12 31.48C3.16 31.48 0 34.40 0 37.52L0 64ZM16 20.52L16 19.48L0 19.48L0 20.52ZM16 28.52L16 27.48L0 27.48L0 28.52ZM0 51.48L0 52.52L16 52.52L16 51.48ZM16 36.52L16 35.48L0 35.48L0 36.52ZM0 43.48L0 44.52L16 44.52L16 43.48ZM24 20.52L24 19.48L16 19.48L16 20.52ZM24 28.52L24 27.48L16 27.48L16 28.52ZM16 51.48L16 52.52L24 52.52L24 51.48ZM24 36.52L24 35.48L16 35.48L16 36.52ZM16 43.48L16 44.52L24 44.52L24 43.48ZM23.44 52L24.60 52L24.60 20L23.44 20ZM21.16 52L21.16 20L20 20L20 52Z"/>
	</g>
</svg>