<svg xmlns="http://www.w3.org/2000/svg" xmlns:xlink="http://www.w3.org/1999/xlink" height="164" width="44.98046875">
	<g transform="translate(2 2)">
		<path d="M11.64 52.07C12.40 52.07 13.13 52.01 13.85 51.88C14.02 51.82 14.13 51.81 14.20 51.84C14.26 51.86 14.30 51.97 14.32 52.15C14.90 55.40 15.20 57.55 15.20 58.59C15.20 59.49 15.07 60.28 14.83 60.96C14.59 61.63 14.30 62.15 13.96 62.52C13.61 62.88 13.19 63.18 12.71 63.40C12.22 63.62 11.77 63.76 11.38 63.82C10.98 63.88 10.56 63.91 10.12 63.91C9.31 63.91 8.68 63.81 8.23 63.61C7.78 63.42 7.56 63.20 7.56 62.95C7.56 62.79 7.89 62.62 8.55 62.44C9.14 62.29 9.65 61.95 10.08 61.45C10.51 60.94 10.72 60.27 10.72 59.43C10.72 58.52 10.44 57.75 9.88 57.11C9.32 56.47 8.57 56.15 7.64 56.15C6.61 56.15 5.78 56.51 5.17 57.22C4.55 57.93 4.24 58.80 4.24 59.82C4.24 60.28 4.29 60.73 4.39 61.17C4.50 61.61 4.69 62.07 4.98 62.55C5.27 63.02 5.63 63.44 6.07 63.80C6.52 64.16 7.10 64.45 7.83 64.69C8.56 64.92 9.39 65.04 10.31 65.04C10.81 65.04 11.30 64.99 11.80 64.90C12.29 64.81 12.84 64.63 13.44 64.35C14.04 64.07 14.56 63.70 15.01 63.25C15.46 62.80 15.84 62.18 16.14 61.39C16.45 60.59 16.60 59.67 16.60 58.63C16.60 57.54 16.30 55.26 15.68 51.80C15.64 51.61 15.64 51.50 15.68 51.46C15.72 51.41 15.85 51.35 16.07 51.27C17.74 50.61 19.06 49.61 20.03 48.28C21.00 46.95 21.48 45.40 21.48 43.63C21.48 42.27 21.18 41.00 20.56 39.83C19.94 38.67 19.03 37.72 17.84 37.00C16.65 36.28 15.29 35.92 13.77 35.92C13.34 35.92 13.09 35.90 13.01 35.85C12.93 35.80 12.87 35.64 12.83 35.35L12.03 30.70C12.02 30.63 12.01 30.56 12.00 30.52C12.00 30.47 12.00 30.43 12.02 30.38C12.04 30.34 12.05 30.31 12.06 30.29C12.07 30.28 12.10 30.25 12.15 30.21C12.20 30.16 12.23 30.13 12.25 30.12C14.20 28.16 15.70 26.23 16.75 24.33C17.80 22.42 18.32 20.28 18.32 17.91C18.32 16.53 18.13 15.19 17.76 13.88C17.39 12.57 16.88 11.43 16.23 10.47C15.97 10.08 15.67 9.71 15.32 9.38C14.98 9.04 14.72 8.87 14.55 8.87C14.34 8.87 14.03 9.02 13.62 9.34C13.21 9.65 12.83 10 12.48 10.39C11.39 11.61 10.59 13.11 10.10 14.88C9.60 16.65 9.36 18.48 9.36 20.35C9.36 22.15 9.51 23.89 9.80 25.59C9.83 25.79 9.83 25.94 9.80 26.02C9.78 26.09 9.68 26.20 9.51 26.35C8.43 27.25 7.50 28.05 6.73 28.75C5.95 29.45 5.11 30.32 4.20 31.34C3.29 32.36 2.55 33.34 1.99 34.29C1.43 35.23 0.96 36.31 0.58 37.52C0.19 38.73 0 39.95 0 41.19C0 42.62 0.24 43.98 0.73 45.26C1.22 46.55 1.93 47.70 2.86 48.72C3.79 49.74 5.02 50.56 6.53 51.16C8.05 51.77 9.75 52.07 11.64 52.07ZM2.56 43.36C2.56 42.32 2.71 41.31 3.03 40.32C3.34 39.34 3.72 38.47 4.18 37.71C4.64 36.96 5.24 36.18 6.01 35.36C6.77 34.55 7.46 33.86 8.10 33.31C8.73 32.76 9.51 32.12 10.45 31.39C10.61 31.26 10.71 31.20 10.75 31.21C10.80 31.22 10.84 31.32 10.88 31.50L11.56 35.59C11.60 35.90 11.60 36.08 11.56 36.14C11.52 36.20 11.36 36.28 11.07 36.39C9.67 36.86 8.54 37.67 7.71 38.82C6.87 39.97 6.45 41.23 6.45 42.60C6.45 44.00 6.78 45.20 7.44 46.19C8.11 47.18 9.00 47.86 10.12 48.22C10.40 48.37 10.68 48.44 10.96 48.44C11.23 48.44 11.37 48.31 11.37 48.07C11.37 47.91 11.20 47.78 10.88 47.68C10.19 47.39 9.63 46.93 9.20 46.30C8.77 45.67 8.55 44.98 8.55 44.24C8.55 43.35 8.85 42.58 9.43 41.91C10.02 41.25 10.79 40.78 11.76 40.51C12.02 40.44 12.19 40.43 12.27 40.46C12.34 40.49 12.39 40.59 12.40 40.76L14.00 50.31C14.04 50.47 14.04 50.57 13.99 50.61C13.95 50.64 13.80 50.70 13.55 50.76C12.85 50.87 12.25 50.92 11.76 50.92C8.98 50.92 6.76 50.22 5.08 48.82C3.40 47.42 2.56 45.60 2.56 43.36ZM15.04 13.83C15.59 13.83 16.04 14.05 16.41 14.50C16.77 14.95 16.95 15.59 16.95 16.43C16.95 17.12 16.83 17.81 16.59 18.51C16.35 19.20 16.07 19.82 15.75 20.36C15.43 20.90 14.99 21.49 14.42 22.12C13.86 22.75 13.37 23.26 12.97 23.64C12.57 24.03 12.04 24.51 11.41 25.08C11.18 25.27 11.04 25.19 10.96 24.82C10.85 24.08 10.80 23.10 10.80 21.88C10.80 19.52 11.24 17.59 12.13 16.08C13.01 14.58 13.98 13.83 15.04 13.83ZM14.12 40.23C15.44 40.35 16.55 40.90 17.47 41.89C18.39 42.88 18.85 44.08 18.85 45.47C18.85 46.45 18.58 47.33 18.04 48.13C17.50 48.94 16.76 49.56 15.84 50C15.64 50.10 15.52 50.14 15.46 50.12C15.40 50.09 15.35 49.99 15.31 49.82L13.77 40.70C13.73 40.51 13.73 40.38 13.77 40.32C13.81 40.26 13.93 40.23 14.12 40.23ZM0 51.46L0 52.52L24.00 52.52L24.00 51.46ZM24.00 28.52L24.00 27.48L0 27.48L0 28.52ZM24.00 36.50L24.00 35.47L0 35.47L0 36.50ZM0 43.48L0 44.51L24.00 44.51L24.00 43.48ZM24.00 20.51L24.00 19.47L0 19.47L0 20.51ZM23.95 63.98L23.95 39.63C24.61 40.21 25.45 40.51 26.46 40.51C27.52 40.51 28.60 40.22 29.72 39.65C30.83 39.08 31.76 38.31 32.51 37.36C33.26 36.41 33.63 35.45 33.63 34.47C33.63 33.57 33.31 32.85 32.66 32.29C32.01 31.74 31.16 31.46 30.12 31.46C28.16 31.46 26.49 32.08 25.09 33.30C23.69 34.52 22.99 35.93 22.99 37.52L22.99 63.98ZM39.98 20.51L39.98 19.47L23.98 19.47L23.98 20.51ZM39.98 28.52L39.98 27.48L23.98 27.48L23.98 28.52ZM23.98 51.46L23.98 52.52L39.98 52.52L39.98 51.46ZM39.98 36.50L39.98 35.47L23.98 35.47L23.98 36.50ZM23.98 43.48L23.98 44.51L39.98 44.51L39.98 43.48Z"/>
	</g>
	<g transform="translate(2 82)">
		<path d="M0.96 63.98L0.96 39.63C1.62 40.21 2.46 40.51 3.48 40.51C4.53 40.51 5.62 40.22 6.73 39.65C7.84 39.08 8.77 38.31 9.52 37.36C10.27 36.41 10.64 35.45 10.64 34.47C10.64 33.57 10.32 32.85 9.67 32.29C9.02 31.74 8.17 31.46 7.13 31.46C5.18 31.46 3.50 32.08 2.10 33.30C0.70 34.52 0 35.93 0 37.52L0 63.98ZM16.00 20.51L16.00 19.47L0 19.47L0 20.51ZM16.00 28.52L16.00 27.48L0 27.48L0 28.52ZM0 51.46L0 52.52L16.00 52.52L16.00 51.46ZM16.00 36.50L16.00 35.47L0 35.47L0 36.50ZM0 43.48L0 44.51L16.00 44.51L16.00 43.48Z"/>
	</g>
</svg>