<svg xmlns="http://www.w3.org/2000/svg" width="49.22687144577503"
     height="57.1363605260849" style="position: relative; top: 0px; left: 0px;">
    <path d="M 40.15909090909091 0.06844919786096232L 39.92058823529411 0.2387700534759357L 39.8524064171123 0.5796791443850265L 39.750267379679144 0.75L 39.71604278074866 17.079679144385025L 39.61363636363636 17.113903743315507L 16.193048128342244 17.079679144385025L 16.158823529411762 14.386363636363635L 16.022459893048126 14.113636363636363L 16.022459893048126 13.431818181818182L 15.88609625668449 13.159090909090908L 15.88609625668449 12.613636363636363L 15.61336898395722 12.068181818181817L 15.61336898395722 11.795454545454545L 15.511229946524063 11.625133689839572L 15.443048128342244 11.28422459893048L 15.238502673796791 10.943315508021389L 15.170320855614973 10.602406417112299L 14.965775401069518 10.397860962566844L 14.829411764705881 10.125133689839572L 14.761229946524063 9.78422459893048L 14.556684491978608 9.579679144385025L 14.488502673796791 9.375133689839572L 14.1475935828877 9.03422459893048L 14.079411764705881 8.829679144385025L 13.124866310160426 7.875133689839571L 12.477272727272727 7.841176470588234L 12.102406417112299 8.011497326203207L 11.625133689839572 8.488770053475935L 11.420588235294117 8.556951871657754L 10.602406417112299 9.375133689839572L 10.53422459893048 9.579679144385025L 10.193315508021389 9.920588235294117L 10.125133689839572 10.125133689839572L 9.920588235294117 10.329679144385025L 9.068449197860962 12.068181818181817L 9.068449197860962 12.34090909090909L 8.829679144385025 12.78422459893048L 8.761497326203207 13.12513368983957L 8.659358288770052 13.295454545454545L 8.659358288770052 13.84090909090909L 8.386631016042779 14.386363636363635L 8.386631016042779 15.204545454545453L 8.250267379679144 15.477272727272727L 8.250267379679144 16.43181818181818L 8.113903743315507 16.704545454545453L 8.079679144385025 17.079679144385025L 6.204545454545454 17.113903743315507L 5.931818181818182 17.15806451612903L 0.3409090909090909 17.153532226287645L 0.15584415584415914 17.189446916719643L 0.06804463142491489 17.386363636363637L 0.11054721977052265 18.027555346208192L 0.20454545454545453 18.06564403338597L 5.931818181818182 18.066790352504636L 6.204545454545454 18.20427807486631L 8.079679144385025 18.23850267379679L 8.113903743315507 19.43181818181818L 8.250267379679144 19.704545454545453L 8.113903743315507 19.977272727272727L 8.250267379679144 20.25L 8.250267379679144 20.93181818181818L 8.386631016042779 21.204545454545453L 8.386631016042779 22.43181818181818L 8.522994652406416 22.704545454545453L 8.352406417112299 23.079679144385025L 8.079679144385025 23.3524064171123L 7.875133689839571 23.420588235294115L 7.125133689839571 24.170588235294115L 0.12714987714987558 24.263513513513512L 0.08649932157394924 24.34090909090909L 0.11160108548168327 25.115671641791042L 5.795454545454545 25.15004022526146L 5.926422498364944 25.18865647626709L 5.930303030303029 25.295454545454543L 4.08934767522554 27.134802220680083L 3.386491317671096 27.931818181818176L 2.1672384219554006 29.572798295454543L 1.2606818181818187 31.122576475657038L 0.11160108548168327 31.20251017639077L 0.08649932157394924 31.977272727272727L 0.12714987714987558 32.0546683046683L 0.6136363636363635 32.08033826638478L 0.7400000000000013 32.13107822410148L 0.7704364600916294 32.25L 0.35261332672776935 33.61363636363636L 0.10257441673370883 34.97727272727273L 0.06975414522584474 36.88636363636363L 0.11833855799372889 37.56818181818181L 0.2285864424592732 38.11363636363636L 0.07546048722519251 38.38636363636363L 0.06804463142491489 38.93181818181818L 0.15584415584415914 39.128734901462174L 0.45652173913043204 39.2174913693901L 1.2161319073083776 40.924447174447174L 2.0241935483871005 42.159355179704015L 3.239385614385611 43.39428374655647L 4.614963503649637 44.335326953748L 6.030203349282298 44.9697966507177L 6.008049242424241 45.144412878787875L 0.2695560253699796 45.13531468531468L 0.10254115962777373 45.221284703320634L 0.06845238095238089 45.88636363636363L 0.10267696730147302 45.988911290322584L 0.20454545454545453 46.02688995215311L 5.931818181818182 46.03398665554629L 6.204545454545454 46.15882352941176L 12.443315508021389 46.19304812834224L 12.511497326203207 46.533957219251334L 12.579679144385025 46.602139037433155L 12.647860962566844 46.94304812834224L 12.750267379679142 47.11363636363636L 12.750267379679142 47.79545454545454L 12.886631016042779 48.06818181818181L 12.886631016042779 49.022727272727266L 13.022994652406416 49.29545454545454L 13.022994652406416 49.56818181818181L 13.159358288770052 49.840909090909086L 13.159358288770052 52.56818181818181L 13.056951871657754 52.73877005347593L 12.988770053475935 53.079679144385025L 12.886631016042779 53.24999999999999L 12.886631016042779 53.522727272727266L 12.579679144385025 54.17058823529411L 12.37513368983957 54.375133689839565L 12.306951871657754 54.579679144385025L 11.761497326203207 55.125133689839565L 11.556951871657754 55.193315508021385L 11.352406417112299 55.39786096256684L 10.704545454545453 55.7048128342246L 10.431818181818182 55.7048128342246L 10.159090909090908 55.84117647058823L 7.704545454545454 55.84117647058823L 7.533957219251336 55.73877005347593L 7.193048128342245 55.67058823529411L 6.783957219251336 55.261497326203205L 6.783957219251336 55.19304812834224L 7.329411764705882 54.92032085561497L 7.670320855614973 54.852139037433155L 7.738502673796791 54.783957219251334L 8.079411764705881 54.715775401069514L 8.283957219251336 54.51122994652406L 8.488502673796791 54.44304812834224L 9.170320855614973 53.76122994652406L 9.30668449197861 53.48850267379679L 9.374866310160428 53.147593582887694L 9.443048128342246 53.07941176470588L 9.511229946524063 52.73850267379679L 9.61336898395722 52.56818181818181L 9.61336898395722 51.61363636363636L 9.340641711229946 51.06818181818181L 9.340641711229946 50.79545454545454L 9.170320855614973 50.42058823529411L 8.965775401069518 50.21604278074866L 8.8975935828877 50.011497326203205L 8.488502673796791 49.6024064171123L 7.5681818181818175 49.15935828877005L 6.204545454545454 49.15935828877005L 5.25 49.580632411067185L 4.93080486392588 49.792899408284015L 4.339105339105339 50.42321867321868L 3.9395787139689555 51.24085005903187L 3.7809917355371927 51.88636363636363L 3.76586840269705 52.97727272727273L 4.021073266356283 54.06818181818181L 4.364693446088794 54.81669960474308L 4.881973140495869 55.525659824046926L 5.306903622693097 55.91909090909091L 6.030858150470216 56.42155425219941L 6.102406417112299 56.62486631016042L 6.477272727272727 56.65882352941176L 7.0227272727272725 56.931550802139036L 7.295454545454545 56.931550802139036L 7.5681818181818175 57.06791443850267L 10.431818181818182 57.06791443850267L 10.704545454545453 56.931550802139036L 10.977272727272727 56.931550802139036L 11.420320855614973 56.69304812834224L 11.761229946524063 56.62486631016042L 11.965775401069518 56.42032085561497L 12.30668449197861 56.352139037433155L 12.6475935828877 56.01122994652406L 12.852139037433155 55.94304812834224L 13.670320855614973 55.12486631016042L 13.738502673796791 54.92032085561497L 13.943048128342244 54.715775401069514L 14.079411764705881 54.44304812834224L 14.1475935828877 54.102139037433155L 14.352139037433155 53.76122994652406L 14.420320855614973 53.42032085561497L 14.522459893048127 53.24999999999999L 14.522459893048127 52.43181818181818L 14.658823529411764 52.15909090909091L 14.658823529411764 50.38636363636363L 14.522459893048127 50.11363636363636L 14.522459893048127 49.022727272727266L 14.38609625668449 48.74999999999999L 14.38609625668449 47.79545454545454L 14.283957219251336 47.62513368983957L 14.215775401069518 47.28422459893048L 14.11336898395722 47.11363636363636L 14.1475935828877 46.19304812834224L 20.795454545454543 46.15882352941176L 21.03422459893048 46.05668449197861L 21.204545454545453 46.15882352941176L 27.749999999999996 46.15882352941176L 27.92032085561497 46.05668449197861L 28.159090909090907 46.15882352941176L 48.852139037433155 46.12486631016043L 49.12486631016042 45.852139037433155L 49.12486631016042 45.23877005347593L 48.88636363636363 45.06844919786096L 14.386363636363635 45.06844919786096L 14.283957219251336 45.03422459893048L 14.283957219251336 44.965775401069514L 15.579411764705881 44.352139037433155L 15.783957219251336 44.147593582887694L 15.988502673796791 44.07941176470588L 16.32941176470588 43.73850267379679L 16.533957219251334 43.67032085561497L 17.352139037433155 42.852139037433155L 17.42032085561497 42.647593582887694L 17.761229946524065 42.30668449197861L 17.965775401069518 41.82941176470588L 18.17032085561497 41.62486631016043L 18.23850267379679 41.283957219251334L 18.443048128342244 41.07941176470588L 18.511229946524065 40.73850267379679L 18.61336898395722 40.56818181818181L 18.61336898395722 40.29545454545454L 18.886096256684493 39.75L 18.92032085561497 39.23850267379679L 19.02272727272727 39.20427807486631L 48.88636363636363 39.20427807486631L 49.12486631016042 39.033957219251334L 49.15882352941176 38.52272727272727L 48.98850267379679 38.147860962566845L 18.92032085561497 38.079679144385025L 18.886096256684493 37.02272727272727L 18.783957219251334 36.8524064171123L 18.715775401069518 36.511497326203205L 18.61336898395722 36.340909090909086L 18.61336898395722 36.06818181818181L 18.511229946524065 35.897860962566845L 18.443048128342244 35.55695187165775L 18.23850267379679 35.3524064171123L 18.17032085561497 35.011497326203205L 17.965775401069518 34.80695187165775L 17.761229946524065 34.329679144385025L 17.283957219251334 33.8524064171123L 17.215775401069518 33.647860962566845L 16.67032085561497 33.1024064171123L 16.465775401069518 33.03422459893048L 16.124866310160428 32.693315508021385L 15.920320855614973 32.62513368983957L 15.715775401069518 32.42058823529411L 15.238502673796791 32.21604278074866L 15.238502673796791 32.1475935828877L 15.34090909090909 32.113368983957216L 24.306951871657752 32.1475935828877L 24.37513368983957 34.533957219251334L 24.613636363636363 34.70427807486631L 25.397593582887698 34.67032085561497L 25.465775401069518 32.1475935828877L 48.88636363636363 32.113368983957216L 49.12486631016042 31.943048128342244L 49.12486631016042 31.329679144385025L 48.88636363636363 31.15935828877005L 25.465775401069518 31.12513368983957L 25.431550802139036 31.02272727272727L 25.465775401069518 25.193048128342244L 26.249999999999996 25.158823529411762L 26.3524064171123 25.193048128342244L 26.761497326203205 25.602139037433155L 26.829679144385025 25.806684491978608L 27.170588235294115 26.147593582887698L 27.238770053475935 26.352139037433155L 27.579679144385025 26.693048128342244L 27.647860962566842 26.897593582887698L 27.8524064171123 27.102139037433155L 27.920588235294115 27.306684491978608L 28.261497326203205 27.647593582887698L 28.329679144385025 27.852139037433155L 28.670588235294115 28.193048128342244L 28.738770053475932 28.397593582887698L 29.079679144385025 28.738502673796788L 29.147860962566842 28.943048128342244L 29.556951871657752 29.352139037433155L 29.76122994652406 29.352139037433155L 29.931550802139036 29.11363636363636L 29.931550802139036 26.52272727272727L 29.76122994652406 26.147860962566842L 29.556684491978608 25.94331550802139L 29.488502673796788 25.738770053475935L 29.147593582887698 25.397860962566842L 29.113368983957216 25.295454545454543L 29.147593582887698 25.193048128342244L 29.249999999999996 25.158823529411762L 31.397860962566842 25.193048128342244L 31.466042780748662 26.897593582887698L 31.670588235294115 27.102139037433155L 31.738770053475932 27.443048128342244L 32.42058823529411 28.124866310160424L 32.62513368983957 28.193048128342244L 32.829679144385025 28.397593582887698L 33.17058823529411 28.465775401069518L 33.23877005347593 28.533957219251334L 33.579679144385025 28.602139037433155L 33.75 28.70427807486631L 35.38636363636363 28.70427807486631L 35.55668449197861 28.602139037433155L 35.8975935828877 28.533957219251334L 36.06818181818181 28.431550802139036L 36.340909090909086 28.431550802139036L 36.783957219251334 28.193048128342244L 37.12486631016043 28.124866310160424L 37.67032085561497 27.852139037433155L 37.87486631016043 27.647593582887698L 38.352139037433155 27.443048128342244L 38.69304812834224 27.102139037433155L 38.8975935828877 27.033957219251334L 39.852139037433155 26.07941176470588L 39.92032085561497 25.874866310160424L 40.12486631016043 25.67032085561497L 40.19304812834224 25.465775401069518L 40.465775401069514 25.193048128342244L 48.88636363636363 25.158823529411762L 49.12486631016042 24.98850267379679L 49.15882352941176 24.477272727272727L 48.98850267379679 24.238770053475935L 40.87486631016043 24.170588235294115L 40.84064171122994 18.34090909090909L 40.87486631016043 18.23850267379679L 48.98850267379679 18.17032085561497L 49.15882352941176 17.795454545454543L 49.12486631016042 17.28422459893048L 48.88636363636363 17.113903743315507L 40.87486631016043 17.079679144385025L 40.84064171122994 0.3409090909090909L 40.67032085561497 0.10240641711229934L 40.15909090909091 0.06844919786096232M 13.431818181818182 12.340641711229946L 13.602406417112299 12.443048128342244L 13.943315508021389 12.511229946524063L 14.352406417112299 12.920320855614973L 14.659358288770052 13.568181818181817L 14.659358288770052 15.749999999999998L 14.556951871657752 15.920588235294117L 14.488770053475935 16.26149732620321L 14.28422459893048 16.6024064171123L 14.216042780748662 16.94331550802139L 13.977272727272727 17.113903743315507L 9.920320855614973 17.079679144385025L 9.88609625668449 16.568181818181817L 10.022459893048127 16.295454545454543L 10.022459893048127 16.02272727272727L 10.124866310160428 15.852139037433155L 10.193048128342244 15.511229946524063L 10.261229946524063 15.443048128342244L 10.329411764705881 15.102139037433155L 10.874866310160428 14.011229946524063L 11.079411764705881 13.80668449197861L 11.1475935828877 13.602139037433155L 11.965775401069518 12.783957219251336L 12.170320855614973 12.715775401069518L 12.374866310160426 12.511229946524063L 12.749999999999998 12.477005347593582L 13.022727272727272 12.340641711229946L 13.431818181818182 12.340641711229946M 13.295454545454545 18.20427807486631L 13.397860962566844 18.23850267379679L 13.261497326203207 18.579679144385025L 12.78422459893048 19.056951871657752L 12.716042780748662 19.26149732620321L 10.125133689839572 21.8524064171123L 9.886363636363635 21.886631016042777L 9.783957219251336 21.8524064171123L 9.749732620320856 21.34090909090909L 9.61336898395722 21.068181818181817L 9.6475935828877 18.23850267379679L 13.295454545454545 18.20427807486631M 16.02272727272727 18.20427807486631L 39.71604278074866 18.23850267379679L 39.750267379679144 20.659090909090907L 39.88663101604278 20.93181818181818L 39.8524064171123 21.03422459893048L 39.75 21.06844919786096L 39.51122994652406 21.03422459893048L 39.30668449197861 20.829679144385025L 38.93181818181818 20.795721925133687L 38.76122994652406 20.69331550802139L 38.42032085561497 20.625133689839572L 38.25 20.522994652406414L 37.02272727272727 20.522994652406414L 36.8524064171123 20.625133689839572L 36.511497326203205 20.69331550802139L 36.340909090909086 20.795721925133687L 35.93181818181818 20.795721925133687L 35.761497326203205 20.897860962566842L 35.42058823529411 20.966042780748662L 35.3524064171123 21.03422459893048L 35.011497326203205 21.1024064171123L 34.193315508021385 21.511497326203205L 33.8524064171123 21.8524064171123L 33.37513368983957 22.056951871657752L 32.42058823529411 23.011497326203205L 32.3524064171123 23.216042780748662L 32.147860962566845 23.420588235294115L 32.079679144385025 23.625133689839572L 31.87513368983957 23.829679144385025L 31.806951871657752 24.170588235294115L 31.704545454545453 24.204812834224597L 28.32941176470588 24.170588235294115L 27.92032085561497 23.761497326203205L 27.715775401069518 23.28422459893048L 27.374866310160424 22.94331550802139L 27.306684491978608 22.738770053475935L 26.82941176470588 22.261497326203205L 26.624866310160424 21.78422459893048L 26.283957219251334 21.44331550802139L 26.215775401069518 21.238770053475935L 25.73850267379679 20.761497326203205L 25.67032085561497 20.556951871657752L 25.465775401069518 20.3524064171123L 25.397593582887698 20.147860962566842L 24.98850267379679 19.738770053475935L 24.920588235294115 19.738770053475935L 24.511497326203205 20.147860962566842L 24.44331550802139 20.3524064171123L 24.238770053475935 20.556951871657752L 24.170588235294115 20.761497326203205L 23.69331550802139 21.238770053475935L 23.625133689839572 21.44331550802139L 23.420588235294115 21.647860962566842L 23.3524064171123 21.8524064171123L 22.875133689839572 22.329679144385025L 22.806951871657752 22.53422459893048L 22.466042780748662 22.875133689839572L 22.261497326203205 23.3524064171123L 21.78422459893048 23.829679144385025L 21.716042780748662 24.03422459893048L 21.477272727272727 24.204812834224597L 13.05668449197861 24.170588235294115L 13.05668449197861 24.102139037433155L 13.3975935828877 23.76122994652406L 13.465775401069518 23.556684491978608L 13.670320855614973 23.352139037433155L 13.738502673796791 23.147593582887698L 14.079411764705881 22.806684491978608L 14.283957219251336 22.32941176470588L 14.488502673796791 22.124866310160428L 15.170320855614973 20.76122994652406L 15.238502673796791 20.42032085561497L 15.61336898395722 19.704545454545453L 15.61336898395722 19.43181818181818L 15.88609625668449 18.886363636363637L 15.920320855614973 18.23850267379679L 16.02272727272727 18.20427807486631M 24.306951871657752 24.102139037433155L 24.306951871657752 24.170588235294115L 24.23850267379679 24.170588235294115L 24.23850267379679 24.102139037433155L 24.306951871657752 24.102139037433155M 20.659090909090907 25.158823529411762L 20.761497326203205 25.193048128342244L 20.625133689839572 25.53422459893048L 20.420588235294115 25.738770053475935L 20.3524064171123 25.94331550802139L 20.147860962566842 26.147860962566842L 20.147860962566842 29.352139037433155L 20.352139037433155 29.352139037433155L 20.624866310160428 29.07941176470588L 20.693048128342244 28.874866310160424L 21.033957219251334 28.533957219251334L 21.102139037433155 28.32941176470588L 21.443048128342244 27.98850267379679L 21.51122994652406 27.783957219251334L 21.852139037433155 27.443048128342244L 21.92032085561497 27.23850267379679L 22.124866310160428 27.033957219251334L 22.193048128342244 26.82941176470588L 22.533957219251334 26.48850267379679L 22.602139037433155 26.283957219251334L 22.943048128342244 25.943048128342244L 23.01122994652406 25.73850267379679L 23.352139037433155 25.397593582887698L 23.42032085561497 25.193048128342244L 24.204545454545453 25.158823529411762L 24.306951871657752 25.193048128342244L 24.341176470588234 31.02272727272727L 24.306951871657752 31.12513368983957L 24.204545454545453 31.15935828877005L 11.420320855614973 31.12513368983957L 11.38609625668449 30.61363636363636L 11.249732620320856 30.34090909090909L 11.249732620320856 30.068181818181817L 11.11336898395722 29.795454545454543L 11.11336898395722 28.977272727272727L 10.977005347593582 28.704545454545453L 10.977005347593582 28.43181818181818L 10.840641711229946 28.159090909090907L 10.840641711229946 27.613636363636363L 10.704278074866309 27.34090909090909L 10.738502673796791 26.693048128342244L 12.238502673796791 25.193048128342244L 20.659090909090907 25.158823529411762M 9.44331550802139 27.783957219251334L 9.47754010695187 28.568181818181817L 9.579679144385025 28.738502673796788L 9.647860962566844 29.07941176470588L 9.750267379679144 29.249999999999996L 9.750267379679144 29.93181818181818L 9.886631016042779 30.204545454545453L 9.852406417112299 31.12513368983957L 5.5227272727272725 31.167613636363633L 5.404518558364714 31.128992628992624L 5.404518558364714 31.03636363636364L 6.087057010785822 30.374866310160424L 6.30668449197861 30.306684491978608L 6.374866310160427 30.102139037433155L 6.579411764705882 30.033957219251334L 7.329411764705882 29.283957219251334L 7.533957219251336 29.215775401069518L 8.1475935828877 28.602139037433155L 8.352139037433155 28.533957219251334L 8.965775401069518 27.92032085561497L 9.34090909090909 27.749732620320852L 9.44331550802139 27.783957219251334M 4.704545454545454 32.08264462809917L 9.03422459893048 32.1475935828877L 9.03422459893048 32.21604278074866L 8.011497326203207 32.693315508021385L 7.397860962566845 33.30695187165775L 7.1933155080213895 33.37513368983957L 7.125133689839571 33.579679144385025L 6.511497326203208 34.193315508021385L 6.102406417112299 35.011497326203205L 6.048454083987079 35.38636363636363L 5.704619484749777 36.47727272727273L 5.62262156448203 38.21660482374768L 5.5227272727272725 38.25139146567718L 2.4072580645161255 38.21368577075099L 2.3518838575872807 38.11363636363636L 2.3439287984742543 37.43181818181818L 2.412302371541505 36.75L 2.6756756756756745 35.52272727272727L 3.079090909090907 34.43181818181818L 3.5331378299120266 33.52954545454545L 4.468504845408396 32.15227272727273L 4.704545454545454 32.08264462809917M 12.886363636363635 35.52245989304813L 13.329679144385025 35.76122994652406L 13.670588235294117 35.82941176470588L 13.738770053475935 35.8975935828877L 14.079679144385025 35.965775401069514L 14.28422459893048 36.17032085561497L 14.488770053475935 36.23850267379679L 14.829679144385025 36.57941176470588L 15.03422459893048 36.6475935828877L 15.102406417112299 36.852139037433155L 15.579679144385025 37.32941176470588L 15.647860962566844 37.533957219251334L 15.852406417112299 37.73850267379679L 15.988770053475935 38.079679144385025L 15.886363636363635 38.113903743315504L 12.6475935828877 38.079679144385025L 12.579411764705881 37.73877005347593L 12.477005347593582 37.56818181818181L 12.477005347593582 37.02272727272727L 12.340641711229946 36.75L 12.340641711229946 36.340909090909086L 12.204278074866309 36.06818181818181L 12.238502673796791 35.55668449197861L 12.886363636363635 35.52245989304813M 10.806951871657754 35.82941176470588L 10.841176470588234 36.61363636363636L 10.97754010695187 36.88636363636363L 10.97754010695187 37.70454545454545L 11.113903743315507 37.97727272727273L 11.079679144385025 38.079679144385025L 7.84090909090909 38.113903743315504L 7.738502673796791 38.079679144385025L 7.874866310160427 37.602139037433155L 8.079411764705881 37.3975935828877L 8.1475935828877 37.19304812834224L 9.102139037433155 36.23850267379679L 9.443048128342246 36.17032085561497L 9.6475935828877 35.965775401069514L 9.988502673796791 35.8975935828877L 10.159090909090908 35.795187165775395L 10.806951871657754 35.82941176470588M 2.5227272727272725 39.174947145877375L 5.795454545454545 39.17631731325998L 5.892768595041319 39.23241852487135L 6.0435047526200325 39.61363636363636L 6.102406417112299 40.12486631016043L 6.306951871657754 40.32941176470588L 6.511497326203208 40.80668449197861L 7.466042780748662 41.76122994652406L 7.9433155080213895 41.965775401069514L 8.147860962566844 42.17032085561497L 8.488770053475935 42.23850267379679L 8.931818181818182 42.47700534759358L 9.204545454545453 42.47700534759358L 9.477272727272727 42.613368983957216L 9.852139037433155 42.57941176470588L 10.022459893048127 42.340909090909086L 9.988502673796791 41.829679144385025L 9.238502673796791 41.48877005347593L 9.033957219251336 41.28422459893048L 8.829411764705881 41.21604278074866L 8.1475935828877 40.53422459893048L 7.874866310160427 39.98877005347593L 7.80668449197861 39.64786096256684L 7.70427807486631 39.47727272727273L 7.738502673796791 39.23850267379679L 11.25 39.20427807486631L 11.352406417112299 39.23850267379679L 11.386631016042779 40.15909090909091L 11.488770053475935 40.32941176470588L 11.556951871657754 40.67032085561497L 11.659358288770052 40.840909090909086L 11.659358288770052 41.522727272727266L 11.79572192513369 41.79545454545454L 11.79572192513369 42.340909090909086L 11.932085561497326 42.61363636363636L 11.932085561497326 43.022727272727266L 12.06844919786096 43.29545454545454L 12.06844919786096 43.97727272727273L 12.170588235294117 44.21604278074866L 11.829679144385025 44.28422459893048L 11.659090909090908 44.38663101604278L 11.25 44.38663101604278L 11.011229946524063 44.48877005347593L 10.943048128342244 44.42058823529411L 10.704545454545453 44.52299465240641L 9.886363636363635 44.52299465240641L 9.613636363636363 44.38663101604278L 9.375133689839572 44.42058823529411L 9.306951871657754 44.48877005347593L 9.068181818181818 44.38663101604278L 8.795454545454545 44.38663101604278L 8.522727272727272 44.250267379679144L 7.84090909090909 44.250267379679144L 7.670320855614973 44.14786096256684L 7.329411764705882 44.079679144385025L 7.261229946524064 44.011497326203205L 6.920320855614973 43.943315508021385L 6.8521390374331546 43.87513368983957L 6.511229946524064 43.80695187165775L 6.170320855614973 43.6024064171123L 5.953687821612349 43.66115702479338L 5.424242424242423 43.387351778656125L 4.617569930069932 42.83552985476062L 3.967741935483874 42.257231404958674L 3.5253787878787852 41.751046650717704L 3.1010330578512404 41.10617897727273L 2.703835227272727 40.27959830866808L 2.43342391304348 39.23499558693733L 2.5227272727272725 39.174947145877375M 16.159090909090907 39.20427807486631L 16.26149732620321 39.23850267379679L 16.329679144385025 39.57941176470588L 16.432085561497324 39.75L 16.432085561497324 40.15909090909091L 16.295721925133687 40.43181818181818L 16.295721925133687 40.70454545454545L 16.15935828877005 40.97727272727273L 16.15935828877005 41.25L 15.716042780748662 42.17058823529411L 14.62513368983957 43.261497326203205L 14.147860962566844 43.46604278074866L 13.943315508021389 43.67058823529411L 13.84090909090909 43.7048128342246L 13.602139037433155 43.67058823529411L 13.533957219251336 43.329679144385025L 13.431550802139038 43.15909090909091L 13.431550802139038 42.61363636363636L 13.2951871657754 42.340909090909086L 13.2951871657754 41.522727272727266L 13.022459893048127 40.97727272727273L 13.022459893048127 40.15909090909091L 12.88609625668449 39.88636363636363L 12.920320855614973 39.23850267379679L 16.159090909090907 39.20427807486631"
          fill-rule="even-odd" stroke-width="1" fill="black"></path>
</svg>
